<?xml version="1.0" encoding="UTF-8" standalone="no"?>
<!DOCTYPE svg PUBLIC "-//W3C//DTD SVG 1.1//EN"
 "http://www.w3.org/Graphics/SVG/1.1/DTD/svg11.dtd">
<!-- Generated by graphviz version 2.40.1 (0)
 -->
<!-- Title: snakemake_dag Pages: 1 -->
<svg width="1637pt" height="548pt"
 viewBox="0.00 0.00 1637.00 548.00" xmlns="http://www.w3.org/2000/svg" xmlns:xlink="http://www.w3.org/1999/xlink">
<g id="graph0" class="graph" transform="scale(1 1) rotate(0) translate(4 544)">
<title>snakemake_dag</title>
<polygon fill="#ffffff" stroke="transparent" points="-4,4 -4,-544 1633,-544 1633,4 -4,4"/>
<!-- 0 -->
<g id="node1" class="node">
<title>0</title>
<path fill="none" stroke="#56a9d8" stroke-width="2" d="M612,-36C612,-36 540,-36 540,-36 534,-36 528,-30 528,-24 528,-24 528,-12 528,-12 528,-6 534,0 540,0 540,0 612,0 612,0 618,0 624,-6 624,-12 624,-12 624,-24 624,-24 624,-30 618,-36 612,-36"/>
<text text-anchor="middle" x="576" y="-15.5" font-family="sans" font-size="10.00" fill="#000000">make_summary</text>
</g>
<!-- 1 -->
<g id="node2" class="node">
<title>1</title>
<path fill="none" stroke="#8fd856" stroke-width="2" d="M106,-180C106,-180 62,-180 62,-180 56,-180 50,-174 50,-168 50,-168 50,-156 50,-156 50,-150 56,-144 62,-144 62,-144 106,-144 106,-144 112,-144 118,-150 118,-156 118,-156 118,-168 118,-168 118,-174 112,-180 106,-180"/>
<text text-anchor="middle" x="84" y="-159.5" font-family="sans" font-size="10.00" fill="#000000">make_dag</text>
</g>
<!-- 1&#45;&gt;0 -->
<g id="edge1" class="edge">
<title>1&#45;&gt;0</title>
<path fill="none" stroke="#c0c0c0" stroke-width="2" d="M71.4309,-143.7899C59.3001,-123.7604 45.1798,-91.7945 63,-72 92.9714,-38.7081 389.4591,-24.4701 517.5536,-19.8385"/>
<polygon fill="#c0c0c0" stroke="#c0c0c0" stroke-width="2" points="517.7116,-23.3352 527.5814,-19.4832 517.4636,-16.3396 517.7116,-23.3352"/>
</g>
<!-- 2 -->
<g id="node3" class="node">
<title>2</title>
<path fill="none" stroke="#56c9d8" stroke-width="2" d="M161.5,-108C161.5,-108 84.5,-108 84.5,-108 78.5,-108 72.5,-102 72.5,-96 72.5,-96 72.5,-84 72.5,-84 72.5,-78 78.5,-72 84.5,-72 84.5,-72 161.5,-72 161.5,-72 167.5,-72 173.5,-78 173.5,-84 173.5,-84 173.5,-96 173.5,-96 173.5,-102 167.5,-108 161.5,-108"/>
<text text-anchor="middle" x="123" y="-87.5" font-family="sans" font-size="10.00" fill="#000000">save_pinned_env</text>
</g>
<!-- 1&#45;&gt;2 -->
<g id="edge17" class="edge">
<title>1&#45;&gt;2</title>
<path fill="none" stroke="#c0c0c0" stroke-width="2" d="M93.8413,-143.8314C98.1957,-135.7925 103.4098,-126.1666 108.2169,-117.2918"/>
<polygon fill="#c0c0c0" stroke="#c0c0c0" stroke-width="2" points="111.3408,-118.8732 113.0261,-108.4133 105.1857,-115.5392 111.3408,-118.8732"/>
</g>
<!-- 2&#45;&gt;0 -->
<g id="edge2" class="edge">
<title>2&#45;&gt;0</title>
<path fill="none" stroke="#c0c0c0" stroke-width="2" d="M173.5847,-75.2974C178.4364,-74.0971 183.2989,-72.9736 188,-72 303.7618,-48.0249 441.2033,-31.7117 517.5123,-23.7091"/>
<polygon fill="#c0c0c0" stroke="#c0c0c0" stroke-width="2" points="518.28,-27.1484 527.8655,-22.6352 517.5577,-20.1857 518.28,-27.1484"/>
</g>
<!-- 3 -->
<g id="node4" class="node">
<title>3</title>
<path fill="none" stroke="#d88d56" stroke-width="2" d="M632.5,-468C632.5,-468 549.5,-468 549.5,-468 543.5,-468 537.5,-462 537.5,-456 537.5,-456 537.5,-444 537.5,-444 537.5,-438 543.5,-432 549.5,-432 549.5,-432 632.5,-432 632.5,-432 638.5,-432 644.5,-438 644.5,-444 644.5,-444 644.5,-456 644.5,-456 644.5,-462 638.5,-468 632.5,-468"/>
<text text-anchor="middle" x="591" y="-447.5" font-family="sans" font-size="10.00" fill="#000000">process_ccs_MERS</text>
</g>
<!-- 3&#45;&gt;0 -->
<g id="edge3" class="edge">
<title>3&#45;&gt;0</title>
<path fill="none" stroke="#c0c0c0" stroke-width="2" d="M537.3196,-441.6767C430.6067,-423.611 202,-376.6632 202,-306 202,-306 202,-306 202,-162 202,-106.3663 240.0219,-98.3868 289,-72 327.6609,-51.1716 445.4162,-33.8051 517.5198,-24.7526"/>
<polygon fill="#c0c0c0" stroke="#c0c0c0" stroke-width="2" points="518.318,-28.1805 527.8119,-23.4779 517.4575,-21.2336 518.318,-28.1805"/>
</g>
<!-- 15 -->
<g id="node16" class="node">
<title>15</title>
<path fill="none" stroke="#d87556" stroke-width="2" d="M643.5,-396C643.5,-396 550.5,-396 550.5,-396 544.5,-396 538.5,-390 538.5,-384 538.5,-384 538.5,-372 538.5,-372 538.5,-366 544.5,-360 550.5,-360 550.5,-360 643.5,-360 643.5,-360 649.5,-360 655.5,-366 655.5,-372 655.5,-372 655.5,-384 655.5,-384 655.5,-390 649.5,-396 643.5,-396"/>
<text text-anchor="middle" x="597" y="-375.5" font-family="sans" font-size="10.00" fill="#000000">merge_libs_to_pools</text>
</g>
<!-- 3&#45;&gt;15 -->
<g id="edge50" class="edge">
<title>3&#45;&gt;15</title>
<path fill="none" stroke="#c0c0c0" stroke-width="2" d="M592.5141,-431.8314C593.1558,-424.131 593.9188,-414.9743 594.6319,-406.4166"/>
<polygon fill="#c0c0c0" stroke="#c0c0c0" stroke-width="2" points="598.1229,-406.6694 595.4656,-396.4133 591.1471,-406.088 598.1229,-406.6694"/>
</g>
<!-- 4 -->
<g id="node5" class="node">
<title>4</title>
<path fill="none" stroke="#c6d856" stroke-width="2" d="M1617,-540C1617,-540 1471,-540 1471,-540 1465,-540 1459,-534 1459,-528 1459,-528 1459,-516 1459,-516 1459,-510 1465,-504 1471,-504 1471,-504 1617,-504 1617,-504 1623,-504 1629,-510 1629,-516 1629,-516 1629,-528 1629,-528 1629,-534 1623,-540 1617,-540"/>
<text text-anchor="middle" x="1544" y="-525" font-family="sans" font-size="10.00" fill="#000000">get_ccs</text>
<text text-anchor="middle" x="1544" y="-514" font-family="sans" font-size="10.00" fill="#000000">pacbioRun: lib51_MERS_230124</text>
</g>
<!-- 4&#45;&gt;3 -->
<g id="edge18" class="edge">
<title>4&#45;&gt;3</title>
<path fill="none" stroke="#c0c0c0" stroke-width="2" d="M1458.7773,-505.126C1455.8201,-504.7175 1452.8879,-504.3399 1450,-504 1101.1148,-462.9334 1004.6196,-524.6725 654.4919,-468.0248"/>
<polygon fill="#c0c0c0" stroke="#c0c0c0" stroke-width="2" points="655.0231,-464.5652 644.5887,-466.4021 653.8912,-471.4731 655.0231,-464.5652"/>
</g>
<!-- 12 -->
<g id="node13" class="node">
<title>12</title>
<path fill="none" stroke="#56d8a9" stroke-width="2" d="M920,-468C920,-468 816,-468 816,-468 810,-468 804,-462 804,-456 804,-456 804,-444 804,-444 804,-438 810,-432 816,-432 816,-432 920,-432 920,-432 926,-432 932,-438 932,-444 932,-444 932,-456 932,-456 932,-462 926,-468 920,-468"/>
<text text-anchor="middle" x="868" y="-447.5" font-family="sans" font-size="10.00" fill="#000000">process_ccs_MERS_rpk</text>
</g>
<!-- 4&#45;&gt;12 -->
<g id="edge26" class="edge">
<title>4&#45;&gt;12</title>
<path fill="none" stroke="#c0c0c0" stroke-width="2" d="M1458.7654,-505.2222C1455.8116,-504.7863 1452.8833,-504.3769 1450,-504 1225.5651,-474.664 1165.6417,-502.8711 942,-468 941.8979,-467.9841 941.7958,-467.9681 941.6936,-467.952"/>
<polygon fill="#c0c0c0" stroke="#c0c0c0" stroke-width="2" points="942.4946,-464.5389 932.0429,-466.2746 941.2958,-471.4355 942.4946,-464.5389"/>
</g>
<!-- 13 -->
<g id="node14" class="node">
<title>13</title>
<path fill="none" stroke="#56d892" stroke-width="2" d="M773.5,-468C773.5,-468 674.5,-468 674.5,-468 668.5,-468 662.5,-462 662.5,-456 662.5,-456 662.5,-444 662.5,-444 662.5,-438 668.5,-432 674.5,-432 674.5,-432 773.5,-432 773.5,-432 779.5,-432 785.5,-438 785.5,-444 785.5,-444 785.5,-456 785.5,-456 785.5,-462 779.5,-468 773.5,-468"/>
<text text-anchor="middle" x="724" y="-447.5" font-family="sans" font-size="10.00" fill="#000000">process_ccs_PDF2180</text>
</g>
<!-- 4&#45;&gt;13 -->
<g id="edge34" class="edge">
<title>4&#45;&gt;13</title>
<path fill="none" stroke="#c0c0c0" stroke-width="2" d="M1458.7729,-505.1627C1455.817,-504.7438 1452.8862,-504.354 1450,-504 1163.8683,-468.9024 1084.9721,-511.0618 795.7487,-467.9226"/>
<polygon fill="#c0c0c0" stroke="#c0c0c0" stroke-width="2" points="796.2227,-464.4546 785.8116,-466.4195 795.1756,-471.3759 796.2227,-464.4546"/>
</g>
<!-- 14 -->
<g id="node15" class="node">
<title>14</title>
<path fill="none" stroke="#5692d8" stroke-width="2" d="M1079.5,-468C1079.5,-468 962.5,-468 962.5,-468 956.5,-468 950.5,-462 950.5,-456 950.5,-456 950.5,-444 950.5,-444 950.5,-438 956.5,-432 962.5,-432 962.5,-432 1079.5,-432 1079.5,-432 1085.5,-432 1091.5,-438 1091.5,-444 1091.5,-444 1091.5,-456 1091.5,-456 1091.5,-462 1085.5,-468 1079.5,-468"/>
<text text-anchor="middle" x="1021" y="-447.5" font-family="sans" font-size="10.00" fill="#000000">process_ccs_panmerbeco</text>
</g>
<!-- 4&#45;&gt;14 -->
<g id="edge42" class="edge">
<title>4&#45;&gt;14</title>
<path fill="none" stroke="#c0c0c0" stroke-width="2" d="M1458.9884,-505.4686C1455.9573,-504.9596 1452.954,-504.4683 1450,-504 1329.1169,-484.8382 1188.1968,-468.1803 1101.7965,-458.6095"/>
<polygon fill="#c0c0c0" stroke="#c0c0c0" stroke-width="2" points="1102.1183,-455.1238 1091.7948,-457.5063 1101.3508,-462.0816 1102.1183,-455.1238"/>
</g>
<!-- 5 -->
<g id="node6" class="node">
<title>5</title>
<path fill="none" stroke="#c6d856" stroke-width="2" d="M158,-540C158,-540 12,-540 12,-540 6,-540 0,-534 0,-528 0,-528 0,-516 0,-516 0,-510 6,-504 12,-504 12,-504 158,-504 158,-504 164,-504 170,-510 170,-516 170,-516 170,-528 170,-528 170,-534 164,-540 158,-540"/>
<text text-anchor="middle" x="85" y="-525" font-family="sans" font-size="10.00" fill="#000000">get_ccs</text>
<text text-anchor="middle" x="85" y="-514" font-family="sans" font-size="10.00" fill="#000000">pacbioRun: lib52_MERS_230124</text>
</g>
<!-- 5&#45;&gt;3 -->
<g id="edge19" class="edge">
<title>5&#45;&gt;3</title>
<path fill="none" stroke="#c0c0c0" stroke-width="2" d="M170.0147,-505.4882C173.0449,-504.9737 176.0472,-504.4758 179,-504 301.7687,-484.2176 446.0055,-466.5926 527.1361,-457.1889"/>
<polygon fill="#c0c0c0" stroke="#c0c0c0" stroke-width="2" points="527.6604,-460.6517 537.193,-456.0279 526.8575,-453.6979 527.6604,-460.6517"/>
</g>
<!-- 5&#45;&gt;12 -->
<g id="edge27" class="edge">
<title>5&#45;&gt;12</title>
<path fill="none" stroke="#c0c0c0" stroke-width="2" d="M170.2287,-505.1757C173.1842,-504.7531 176.1145,-504.359 179,-504 447.8243,-470.552 522.0328,-508.0621 793.4869,-468.0665"/>
<polygon fill="#c0c0c0" stroke="#c0c0c0" stroke-width="2" points="794.2695,-471.4885 803.6418,-466.5479 793.2341,-464.5655 794.2695,-471.4885"/>
</g>
<!-- 5&#45;&gt;13 -->
<g id="edge35" class="edge">
<title>5&#45;&gt;13</title>
<path fill="none" stroke="#c0c0c0" stroke-width="2" d="M170.2371,-505.2411C173.1902,-504.7999 176.1177,-504.3842 179,-504 385.1493,-476.5239 442.7048,-501.2873 652.0894,-467.9726"/>
<polygon fill="#c0c0c0" stroke="#c0c0c0" stroke-width="2" points="652.8629,-471.3931 662.1761,-466.3419 651.7456,-464.4828 652.8629,-471.3931"/>
</g>
<!-- 5&#45;&gt;14 -->
<g id="edge43" class="edge">
<title>5&#45;&gt;14</title>
<path fill="none" stroke="#c0c0c0" stroke-width="2" d="M170.2236,-505.1337C173.1805,-504.7231 176.1125,-504.3429 179,-504 512.3907,-464.4073 603.2386,-512.4284 940.403,-467.9173"/>
<polygon fill="#c0c0c0" stroke="#c0c0c0" stroke-width="2" points="941.003,-471.3683 950.4506,-466.5732 940.0748,-464.4301 941.003,-471.3683"/>
</g>
<!-- 6 -->
<g id="node7" class="node">
<title>6</title>
<path fill="none" stroke="#c6d856" stroke-width="2" d="M362,-540C362,-540 200,-540 200,-540 194,-540 188,-534 188,-528 188,-528 188,-516 188,-516 188,-510 194,-504 200,-504 200,-504 362,-504 362,-504 368,-504 374,-510 374,-516 374,-516 374,-528 374,-528 374,-534 368,-540 362,-540"/>
<text text-anchor="middle" x="281" y="-525" font-family="sans" font-size="10.00" fill="#000000">get_ccs</text>
<text text-anchor="middle" x="281" y="-514" font-family="sans" font-size="10.00" fill="#000000">pacbioRun: lib53_PDF2180_230124</text>
</g>
<!-- 6&#45;&gt;3 -->
<g id="edge20" class="edge">
<title>6&#45;&gt;3</title>
<path fill="none" stroke="#c0c0c0" stroke-width="2" d="M358.826,-503.9243C410.8414,-491.8433 478.4243,-476.1466 527.2489,-464.8067"/>
<polygon fill="#c0c0c0" stroke="#c0c0c0" stroke-width="2" points="528.1128,-468.1993 537.0616,-462.5276 526.529,-461.3808 528.1128,-468.1993"/>
</g>
<!-- 6&#45;&gt;12 -->
<g id="edge28" class="edge">
<title>6&#45;&gt;12</title>
<path fill="none" stroke="#c0c0c0" stroke-width="2" d="M374.0595,-505.2317C377.0722,-504.7995 380.0584,-504.3873 383,-504 562.0326,-480.4272 611.927,-497.4694 793.7382,-468.0689"/>
<polygon fill="#c0c0c0" stroke="#c0c0c0" stroke-width="2" points="794.3248,-471.5195 803.6256,-466.4456 793.1907,-464.612 794.3248,-471.5195"/>
</g>
<!-- 6&#45;&gt;13 -->
<g id="edge36" class="edge">
<title>6&#45;&gt;13</title>
<path fill="none" stroke="#c0c0c0" stroke-width="2" d="M374.0845,-505.4067C377.0901,-504.9242 380.0679,-504.454 383,-504 499.482,-485.9649 532.4044,-490.6436 652.2106,-468.0301"/>
<polygon fill="#c0c0c0" stroke="#c0c0c0" stroke-width="2" points="652.9739,-471.4476 662.1387,-466.1318 651.6593,-464.5722 652.9739,-471.4476"/>
</g>
<!-- 6&#45;&gt;14 -->
<g id="edge44" class="edge">
<title>6&#45;&gt;14</title>
<path fill="none" stroke="#c0c0c0" stroke-width="2" d="M374.0484,-505.1438C377.0643,-504.7369 380.0542,-504.3539 383,-504 626.4889,-474.7516 693.2638,-502.6298 940.4373,-467.9308"/>
<polygon fill="#c0c0c0" stroke="#c0c0c0" stroke-width="2" points="941.0345,-471.3811 950.4412,-466.5063 940.0477,-464.451 941.0345,-471.3811"/>
</g>
<!-- 7 -->
<g id="node8" class="node">
<title>7</title>
<path fill="none" stroke="#c6d856" stroke-width="2" d="M566,-540C566,-540 404,-540 404,-540 398,-540 392,-534 392,-528 392,-528 392,-516 392,-516 392,-510 398,-504 404,-504 404,-504 566,-504 566,-504 572,-504 578,-510 578,-516 578,-516 578,-528 578,-528 578,-534 572,-540 566,-540"/>
<text text-anchor="middle" x="485" y="-525" font-family="sans" font-size="10.00" fill="#000000">get_ccs</text>
<text text-anchor="middle" x="485" y="-514" font-family="sans" font-size="10.00" fill="#000000">pacbioRun: lib54_PDF2180_230124</text>
</g>
<!-- 7&#45;&gt;3 -->
<g id="edge21" class="edge">
<title>7&#45;&gt;3</title>
<path fill="none" stroke="#c0c0c0" stroke-width="2" d="M511.7483,-503.8314C525.0553,-494.7927 541.316,-483.7476 555.6375,-474.0198"/>
<polygon fill="#c0c0c0" stroke="#c0c0c0" stroke-width="2" points="557.9547,-476.677 564.2603,-468.1628 554.0215,-470.8864 557.9547,-476.677"/>
</g>
<!-- 7&#45;&gt;12 -->
<g id="edge29" class="edge">
<title>7&#45;&gt;12</title>
<path fill="none" stroke="#c0c0c0" stroke-width="2" d="M578.1091,-505.556C581.1076,-505.0306 584.0773,-504.5108 587,-504 676.3494,-488.3841 701.5223,-487.2996 794.1742,-468.1032"/>
<polygon fill="#c0c0c0" stroke="#c0c0c0" stroke-width="2" points="794.8903,-471.5292 803.9643,-466.06 793.4601,-464.6769 794.8903,-471.5292"/>
</g>
<!-- 7&#45;&gt;13 -->
<g id="edge37" class="edge">
<title>7&#45;&gt;13</title>
<path fill="none" stroke="#c0c0c0" stroke-width="2" d="M545.0013,-503.9243C578.2422,-493.9103 619.7295,-481.412 654.3912,-470.97"/>
<polygon fill="#c0c0c0" stroke="#c0c0c0" stroke-width="2" points="655.4087,-474.3189 663.974,-468.0831 653.3895,-467.6165 655.4087,-474.3189"/>
</g>
<!-- 7&#45;&gt;14 -->
<g id="edge45" class="edge">
<title>7&#45;&gt;14</title>
<path fill="none" stroke="#c0c0c0" stroke-width="2" d="M578.0669,-505.2865C581.0775,-504.8385 584.0612,-504.4082 587,-504 740.4288,-482.6899 783.1677,-492.9592 940.3912,-467.979"/>
<polygon fill="#c0c0c0" stroke="#c0c0c0" stroke-width="2" points="941.1035,-471.4095 950.4193,-466.363 939.9898,-464.4987 941.1035,-471.4095"/>
</g>
<!-- 8 -->
<g id="node9" class="node">
<title>8</title>
<path fill="none" stroke="#c6d856" stroke-width="2" d="M775.5,-540C775.5,-540 608.5,-540 608.5,-540 602.5,-540 596.5,-534 596.5,-528 596.5,-528 596.5,-516 596.5,-516 596.5,-510 602.5,-504 608.5,-504 608.5,-504 775.5,-504 775.5,-504 781.5,-504 787.5,-510 787.5,-516 787.5,-516 787.5,-528 787.5,-528 787.5,-534 781.5,-540 775.5,-540"/>
<text text-anchor="middle" x="692" y="-525" font-family="sans" font-size="10.00" fill="#000000">get_ccs</text>
<text text-anchor="middle" x="692" y="-514" font-family="sans" font-size="10.00" fill="#000000">pacbioRun: lib84_MERS_rpk_240206</text>
</g>
<!-- 8&#45;&gt;3 -->
<g id="edge22" class="edge">
<title>8&#45;&gt;3</title>
<path fill="none" stroke="#c0c0c0" stroke-width="2" d="M666.5134,-503.8314C653.8341,-494.7927 638.3404,-483.7476 624.6945,-474.0198"/>
<polygon fill="#c0c0c0" stroke="#c0c0c0" stroke-width="2" points="626.6529,-471.1176 616.4784,-468.1628 622.5895,-476.8176 626.6529,-471.1176"/>
</g>
<!-- 8&#45;&gt;12 -->
<g id="edge30" class="edge">
<title>8&#45;&gt;12</title>
<path fill="none" stroke="#c0c0c0" stroke-width="2" d="M736.4122,-503.8314C760.1604,-494.1162 789.5746,-482.0831 814.5664,-471.8592"/>
<polygon fill="#c0c0c0" stroke="#c0c0c0" stroke-width="2" points="815.9769,-475.0638 823.9071,-468.038 813.3264,-468.585 815.9769,-475.0638"/>
</g>
<!-- 8&#45;&gt;13 -->
<g id="edge38" class="edge">
<title>8&#45;&gt;13</title>
<path fill="none" stroke="#c0c0c0" stroke-width="2" d="M700.075,-503.8314C703.6102,-495.8771 707.836,-486.369 711.7456,-477.5723"/>
<polygon fill="#c0c0c0" stroke="#c0c0c0" stroke-width="2" points="714.9532,-478.9729 715.8163,-468.4133 708.5565,-476.1299 714.9532,-478.9729"/>
</g>
<!-- 8&#45;&gt;14 -->
<g id="edge46" class="edge">
<title>8&#45;&gt;14</title>
<path fill="none" stroke="#c0c0c0" stroke-width="2" d="M775.8879,-503.9769C821.7399,-494.0854 879.7914,-481.4974 940.5613,-468.0892"/>
<polygon fill="#c0c0c0" stroke="#c0c0c0" stroke-width="2" points="941.3264,-471.5047 950.3364,-465.9305 939.8169,-464.6693 941.3264,-471.5047"/>
</g>
<!-- 9 -->
<g id="node10" class="node">
<title>9</title>
<path fill="none" stroke="#c6d856" stroke-width="2" d="M984.5,-540C984.5,-540 817.5,-540 817.5,-540 811.5,-540 805.5,-534 805.5,-528 805.5,-528 805.5,-516 805.5,-516 805.5,-510 811.5,-504 817.5,-504 817.5,-504 984.5,-504 984.5,-504 990.5,-504 996.5,-510 996.5,-516 996.5,-516 996.5,-528 996.5,-528 996.5,-534 990.5,-540 984.5,-540"/>
<text text-anchor="middle" x="901" y="-525" font-family="sans" font-size="10.00" fill="#000000">get_ccs</text>
<text text-anchor="middle" x="901" y="-514" font-family="sans" font-size="10.00" fill="#000000">pacbioRun: lib85_MERS_rpk_240206</text>
</g>
<!-- 9&#45;&gt;3 -->
<g id="edge23" class="edge">
<title>9&#45;&gt;3</title>
<path fill="none" stroke="#c0c0c0" stroke-width="2" d="M811.118,-503.9698C766.4575,-494.6439 711.5007,-482.6208 654.6004,-468.3369"/>
<polygon fill="#c0c0c0" stroke="#c0c0c0" stroke-width="2" points="655.2602,-464.8936 644.7073,-465.8353 653.5441,-471.68 655.2602,-464.8936"/>
</g>
<!-- 9&#45;&gt;12 -->
<g id="edge31" class="edge">
<title>9&#45;&gt;12</title>
<path fill="none" stroke="#c0c0c0" stroke-width="2" d="M892.6727,-503.8314C889.027,-495.8771 884.6691,-486.369 880.6373,-477.5723"/>
<polygon fill="#c0c0c0" stroke="#c0c0c0" stroke-width="2" points="883.7877,-476.0456 876.4394,-468.4133 877.4243,-478.9622 883.7877,-476.0456"/>
</g>
<!-- 9&#45;&gt;13 -->
<g id="edge39" class="edge">
<title>9&#45;&gt;13</title>
<path fill="none" stroke="#c0c0c0" stroke-width="2" d="M856.3354,-503.8314C832.4523,-494.1162 802.871,-482.0831 777.7372,-471.8592"/>
<polygon fill="#c0c0c0" stroke="#c0c0c0" stroke-width="2" points="778.9252,-468.564 768.3434,-468.038 776.2875,-475.0481 778.9252,-468.564"/>
</g>
<!-- 9&#45;&gt;14 -->
<g id="edge47" class="edge">
<title>9&#45;&gt;14</title>
<path fill="none" stroke="#c0c0c0" stroke-width="2" d="M931.2811,-503.8314C946.6298,-494.6221 965.4498,-483.3301 981.8823,-473.4706"/>
<polygon fill="#c0c0c0" stroke="#c0c0c0" stroke-width="2" points="983.9544,-476.3091 990.7286,-468.1628 980.3529,-470.3066 983.9544,-476.3091"/>
</g>
<!-- 10 -->
<g id="node11" class="node">
<title>10</title>
<path fill="none" stroke="#c6d856" stroke-width="2" d="M1207,-540C1207,-540 1027,-540 1027,-540 1021,-540 1015,-534 1015,-528 1015,-528 1015,-516 1015,-516 1015,-510 1021,-504 1027,-504 1027,-504 1207,-504 1207,-504 1213,-504 1219,-510 1219,-516 1219,-516 1219,-528 1219,-528 1219,-534 1213,-540 1207,-540"/>
<text text-anchor="middle" x="1117" y="-525" font-family="sans" font-size="10.00" fill="#000000">get_ccs</text>
<text text-anchor="middle" x="1117" y="-514" font-family="sans" font-size="10.00" fill="#000000">pacbioRun: lib82_panmerbeco_240206</text>
</g>
<!-- 10&#45;&gt;3 -->
<g id="edge24" class="edge">
<title>10&#45;&gt;3</title>
<path fill="none" stroke="#c0c0c0" stroke-width="2" d="M1014.8175,-505.1967C1011.8473,-504.7831 1008.9032,-504.3831 1006,-504 852.859,-483.7923 809.5667,-497.518 654.5113,-468.116"/>
<polygon fill="#c0c0c0" stroke="#c0c0c0" stroke-width="2" points="655.1044,-464.666 644.623,-466.2118 653.7807,-471.5397 655.1044,-464.666"/>
</g>
<!-- 10&#45;&gt;12 -->
<g id="edge32" class="edge">
<title>10&#45;&gt;12</title>
<path fill="none" stroke="#c0c0c0" stroke-width="2" d="M1054.4882,-503.9243C1019.8564,-493.9103 976.6333,-481.412 940.5213,-470.97"/>
<polygon fill="#c0c0c0" stroke="#c0c0c0" stroke-width="2" points="941.1162,-467.4987 930.5375,-468.0831 939.1717,-474.2232 941.1162,-467.4987"/>
</g>
<!-- 10&#45;&gt;13 -->
<g id="edge40" class="edge">
<title>10&#45;&gt;13</title>
<path fill="none" stroke="#c0c0c0" stroke-width="2" d="M1014.9698,-505.3206C936.4714,-492.4227 835.9648,-475.7462 795.4645,-467.9241"/>
<polygon fill="#c0c0c0" stroke="#c0c0c0" stroke-width="2" points="795.9953,-464.4609 785.5016,-465.9209 794.6154,-471.3235 795.9953,-464.4609"/>
</g>
<!-- 10&#45;&gt;14 -->
<g id="edge48" class="edge">
<title>10&#45;&gt;14</title>
<path fill="none" stroke="#c0c0c0" stroke-width="2" d="M1092.7751,-503.8314C1080.8372,-494.8779 1066.2744,-483.9558 1053.394,-474.2955"/>
<polygon fill="#c0c0c0" stroke="#c0c0c0" stroke-width="2" points="1055.3171,-471.3629 1045.2171,-468.1628 1051.1171,-476.9629 1055.3171,-471.3629"/>
</g>
<!-- 11 -->
<g id="node12" class="node">
<title>11</title>
<path fill="none" stroke="#c6d856" stroke-width="2" d="M1429,-540C1429,-540 1249,-540 1249,-540 1243,-540 1237,-534 1237,-528 1237,-528 1237,-516 1237,-516 1237,-510 1243,-504 1249,-504 1249,-504 1429,-504 1429,-504 1435,-504 1441,-510 1441,-516 1441,-516 1441,-528 1441,-528 1441,-534 1435,-540 1429,-540"/>
<text text-anchor="middle" x="1339" y="-525" font-family="sans" font-size="10.00" fill="#000000">get_ccs</text>
<text text-anchor="middle" x="1339" y="-514" font-family="sans" font-size="10.00" fill="#000000">pacbioRun: lib83_panmerbeco_240206</text>
</g>
<!-- 11&#45;&gt;3 -->
<g id="edge25" class="edge">
<title>11&#45;&gt;3</title>
<path fill="none" stroke="#c0c0c0" stroke-width="2" d="M1236.8359,-505.0456C1233.8604,-504.6761 1230.9102,-504.3263 1228,-504 976.8929,-475.8481 907.0868,-511.0104 654.8084,-468.1052"/>
<polygon fill="#c0c0c0" stroke="#c0c0c0" stroke-width="2" points="655.0482,-464.5949 644.5987,-466.3434 653.8579,-471.493 655.0482,-464.5949"/>
</g>
<!-- 11&#45;&gt;12 -->
<g id="edge33" class="edge">
<title>11&#45;&gt;12</title>
<path fill="none" stroke="#c0c0c0" stroke-width="2" d="M1236.805,-505.2876C1233.8384,-504.8475 1230.8985,-504.4173 1228,-504 1101.1933,-485.7434 1068.0002,-491.1772 942,-468 941.8984,-467.9813 941.7967,-467.9626 941.695,-467.9438"/>
<polygon fill="#c0c0c0" stroke="#c0c0c0" stroke-width="2" points="942.5665,-464.5481 932.0798,-466.0578 941.2191,-471.4172 942.5665,-464.5481"/>
</g>
<!-- 11&#45;&gt;13 -->
<g id="edge41" class="edge">
<title>11&#45;&gt;13</title>
<path fill="none" stroke="#c0c0c0" stroke-width="2" d="M1236.8267,-505.1246C1233.8538,-504.732 1230.9067,-504.356 1228,-504 1039.5993,-480.9278 987.2454,-499.1891 795.9347,-467.9882"/>
<polygon fill="#c0c0c0" stroke="#c0c0c0" stroke-width="2" points="796.2656,-464.4954 785.8283,-466.3154 795.1225,-471.4014 796.2656,-464.4954"/>
</g>
<!-- 11&#45;&gt;14 -->
<g id="edge49" class="edge">
<title>11&#45;&gt;14</title>
<path fill="none" stroke="#c0c0c0" stroke-width="2" d="M1259.1656,-503.9243C1210.9715,-493.0124 1149.7494,-479.1508 1101.4457,-468.2141"/>
<polygon fill="#c0c0c0" stroke="#c0c0c0" stroke-width="2" points="1102.1808,-464.792 1091.6547,-465.9973 1100.6349,-471.6192 1102.1808,-464.792"/>
</g>
<!-- 12&#45;&gt;0 -->
<g id="edge4" class="edge">
<title>12&#45;&gt;0</title>
<path fill="none" stroke="#c0c0c0" stroke-width="2" d="M890.9876,-431.7169C919.6719,-406.6722 965,-358.7501 965,-306 965,-306 965,-306 965,-162 965,-111.3255 938.4972,-97.998 895,-72 852.0298,-46.317 714.2459,-30.2197 634.5138,-22.8106"/>
<polygon fill="#c0c0c0" stroke="#c0c0c0" stroke-width="2" points="634.4157,-19.2872 624.1392,-21.8651 633.7803,-26.2583 634.4157,-19.2872"/>
</g>
<!-- 13&#45;&gt;0 -->
<g id="edge5" class="edge">
<title>13&#45;&gt;0</title>
<path fill="none" stroke="#c0c0c0" stroke-width="2" d="M785.7335,-434.4152C845.4572,-415.1915 927,-376.1076 927,-306 927,-306 927,-306 927,-162 927,-110.775 898.8405,-98.4955 855,-72 818.6287,-50.0186 704.8586,-33.1672 634.3336,-24.496"/>
<polygon fill="#c0c0c0" stroke="#c0c0c0" stroke-width="2" points="634.6045,-21.0033 624.2564,-23.2764 633.7634,-27.9526 634.6045,-21.0033"/>
</g>
<!-- 13&#45;&gt;15 -->
<g id="edge51" class="edge">
<title>13&#45;&gt;15</title>
<path fill="none" stroke="#c0c0c0" stroke-width="2" d="M691.9525,-431.8314C675.558,-422.5368 655.4214,-411.1208 637.9171,-401.1971"/>
<polygon fill="#c0c0c0" stroke="#c0c0c0" stroke-width="2" points="639.4626,-398.05 629.0372,-396.1628 636.0103,-404.1395 639.4626,-398.05"/>
</g>
<!-- 14&#45;&gt;0 -->
<g id="edge6" class="edge">
<title>14&#45;&gt;0</title>
<path fill="none" stroke="#c0c0c0" stroke-width="2" d="M1019.7568,-431.8247C1017.9994,-404.5213 1015,-351.2893 1015,-306 1015,-306 1015,-306 1015,-162 1015,-108.1855 981.3846,-97.5089 934,-72 883.3576,-44.7373 722.1728,-28.8573 634.3698,-22.0178"/>
<polygon fill="#c0c0c0" stroke="#c0c0c0" stroke-width="2" points="634.5346,-18.5203 624.2969,-21.2478 634.001,-25.4999 634.5346,-18.5203"/>
</g>
<!-- 15&#45;&gt;0 -->
<g id="edge7" class="edge">
<title>15&#45;&gt;0</title>
<path fill="none" stroke="#c0c0c0" stroke-width="2" d="M655.7393,-361.857C741.0081,-336.6593 889,-285.5072 889,-234 889,-234 889,-234 889,-162 889,-110.2151 859.082,-99.1746 815,-72 785.219,-53.6413 695.0416,-36.5815 634.3738,-26.7304"/>
<polygon fill="#c0c0c0" stroke="#c0c0c0" stroke-width="2" points="634.586,-23.2198 624.1583,-25.0942 633.4789,-30.1317 634.586,-23.2198"/>
</g>
<!-- 16 -->
<g id="node17" class="node">
<title>16</title>
<path fill="none" stroke="#70d856" stroke-width="2" d="M556.5,-324C556.5,-324 491.5,-324 491.5,-324 485.5,-324 479.5,-318 479.5,-312 479.5,-312 479.5,-300 479.5,-300 479.5,-294 485.5,-288 491.5,-288 491.5,-288 556.5,-288 556.5,-288 562.5,-288 568.5,-294 568.5,-300 568.5,-300 568.5,-312 568.5,-312 568.5,-318 562.5,-324 556.5,-324"/>
<text text-anchor="middle" x="524" y="-303.5" font-family="sans" font-size="10.00" fill="#000000">count_variants</text>
</g>
<!-- 15&#45;&gt;16 -->
<g id="edge52" class="edge">
<title>15&#45;&gt;16</title>
<path fill="none" stroke="#c0c0c0" stroke-width="2" d="M578.579,-359.8314C569.8471,-351.219 559.2683,-340.7851 549.7577,-331.4048"/>
<polygon fill="#c0c0c0" stroke="#c0c0c0" stroke-width="2" points="551.9925,-328.6931 542.4151,-324.1628 547.077,-333.6769 551.9925,-328.6931"/>
</g>
<!-- 17 -->
<g id="node18" class="node">
<title>17</title>
<path fill="none" stroke="#56d873" stroke-width="2" d="M848.5,-252C848.5,-252 759.5,-252 759.5,-252 753.5,-252 747.5,-246 747.5,-240 747.5,-240 747.5,-228 747.5,-228 747.5,-222 753.5,-216 759.5,-216 759.5,-216 848.5,-216 848.5,-216 854.5,-216 860.5,-222 860.5,-228 860.5,-228 860.5,-240 860.5,-240 860.5,-246 854.5,-252 848.5,-252"/>
<text text-anchor="middle" x="804" y="-231.5" font-family="sans" font-size="10.00" fill="#000000">fit_titrations_hDPP4</text>
</g>
<!-- 15&#45;&gt;17 -->
<g id="edge53" class="edge">
<title>15&#45;&gt;17</title>
<path fill="none" stroke="#c0c0c0" stroke-width="2" d="M623.2167,-359.7623C660.3899,-333.9026 728.4649,-286.5461 769.6392,-257.9032"/>
<polygon fill="#c0c0c0" stroke="#c0c0c0" stroke-width="2" points="771.7858,-260.6735 777.9962,-252.0896 767.7884,-254.9271 771.7858,-260.6735"/>
</g>
<!-- 18 -->
<g id="node19" class="node">
<title>18</title>
<path fill="none" stroke="#59d856" stroke-width="2" d="M337.5,-252C337.5,-252 242.5,-252 242.5,-252 236.5,-252 230.5,-246 230.5,-240 230.5,-240 230.5,-228 230.5,-228 230.5,-222 236.5,-216 242.5,-216 242.5,-216 337.5,-216 337.5,-216 343.5,-216 349.5,-222 349.5,-228 349.5,-228 349.5,-240 349.5,-240 349.5,-246 343.5,-252 337.5,-252"/>
<text text-anchor="middle" x="290" y="-231.5" font-family="sans" font-size="10.00" fill="#000000">fit_titrations_ApACE2</text>
</g>
<!-- 15&#45;&gt;18 -->
<g id="edge55" class="edge">
<title>15&#45;&gt;18</title>
<path fill="none" stroke="#c0c0c0" stroke-width="2" d="M538.3661,-362.2734C506.745,-352.8809 467.4566,-339.7202 434,-324 393.9804,-305.196 351.4257,-277.533 323.0432,-257.8461"/>
<polygon fill="#c0c0c0" stroke="#c0c0c0" stroke-width="2" points="324.9076,-254.8789 314.7083,-252.0111 320.8931,-260.6134 324.9076,-254.8789"/>
</g>
<!-- 19 -->
<g id="node20" class="node">
<title>19</title>
<path fill="none" stroke="#afd856" stroke-width="2" d="M434.5,-252C434.5,-252 379.5,-252 379.5,-252 373.5,-252 367.5,-246 367.5,-240 367.5,-240 367.5,-228 367.5,-228 367.5,-222 373.5,-216 379.5,-216 379.5,-216 434.5,-216 434.5,-216 440.5,-216 446.5,-222 446.5,-228 446.5,-228 446.5,-240 446.5,-240 446.5,-246 440.5,-252 434.5,-252"/>
<text text-anchor="middle" x="407" y="-231.5" font-family="sans" font-size="10.00" fill="#000000">fit_AUC_sera</text>
</g>
<!-- 15&#45;&gt;19 -->
<g id="edge57" class="edge">
<title>15&#45;&gt;19</title>
<path fill="none" stroke="#c0c0c0" stroke-width="2" d="M538.2544,-360.8187C515.3712,-352.2226 489.9169,-340.1408 470,-324 448.7654,-306.7914 431.5628,-280.6467 420.5322,-260.963"/>
<polygon fill="#c0c0c0" stroke="#c0c0c0" stroke-width="2" points="423.6039,-259.2852 415.7643,-252.1584 417.4484,-262.6185 423.6039,-259.2852"/>
</g>
<!-- 20 -->
<g id="node21" class="node">
<title>20</title>
<path fill="none" stroke="#d8cb56" stroke-width="2" d="M580.5,-252C580.5,-252 515.5,-252 515.5,-252 509.5,-252 503.5,-246 503.5,-240 503.5,-240 503.5,-228 503.5,-228 503.5,-222 509.5,-216 515.5,-216 515.5,-216 580.5,-216 580.5,-216 586.5,-216 592.5,-222 592.5,-228 592.5,-228 592.5,-240 592.5,-240 592.5,-246 586.5,-252 580.5,-252"/>
<text text-anchor="middle" x="548" y="-231.5" font-family="sans" font-size="10.00" fill="#000000">fit_EC50_mAbs</text>
</g>
<!-- 15&#45;&gt;20 -->
<g id="edge59" class="edge">
<title>15&#45;&gt;20</title>
<path fill="none" stroke="#c0c0c0" stroke-width="2" d="M594.4896,-359.9965C591.572,-341.5256 585.9756,-312.1563 577,-288 573.6608,-279.0131 569.0802,-269.6636 564.5455,-261.3197"/>
<polygon fill="#c0c0c0" stroke="#c0c0c0" stroke-width="2" points="567.4753,-259.3898 559.5138,-252.3995 561.3784,-262.829 567.4753,-259.3898"/>
</g>
<!-- 21 -->
<g id="node22" class="node">
<title>21</title>
<path fill="none" stroke="#d85656" stroke-width="2" d="M717.5,-252C717.5,-252 622.5,-252 622.5,-252 616.5,-252 610.5,-246 610.5,-240 610.5,-240 610.5,-228 610.5,-228 610.5,-222 616.5,-216 622.5,-216 622.5,-216 717.5,-216 717.5,-216 723.5,-216 729.5,-222 729.5,-228 729.5,-228 729.5,-240 729.5,-240 729.5,-246 723.5,-252 717.5,-252"/>
<text text-anchor="middle" x="670" y="-231.5" font-family="sans" font-size="10.00" fill="#000000">calculate_expression</text>
</g>
<!-- 15&#45;&gt;21 -->
<g id="edge61" class="edge">
<title>15&#45;&gt;21</title>
<path fill="none" stroke="#c0c0c0" stroke-width="2" d="M606.2455,-359.7623C618.8612,-334.8764 641.5694,-290.0822 656.2028,-261.2165"/>
<polygon fill="#c0c0c0" stroke="#c0c0c0" stroke-width="2" points="659.4297,-262.5916 660.8296,-252.0896 653.1861,-259.4264 659.4297,-262.5916"/>
</g>
<!-- 16&#45;&gt;0 -->
<g id="edge8" class="edge">
<title>16&#45;&gt;0</title>
<path fill="none" stroke="#c0c0c0" stroke-width="2" d="M511.8998,-287.7737C498.9298,-268.8634 477.1939,-238.9076 455,-216 437.4185,-197.8531 424.6675,-201.2513 411,-180 384.6368,-139.0086 362.7903,-111.0141 392,-72 407.2282,-51.6604 469.7133,-36.3777 517.6864,-27.3528"/>
<polygon fill="#c0c0c0" stroke="#c0c0c0" stroke-width="2" points="518.475,-30.7667 527.6809,-25.5224 517.2139,-23.8812 518.475,-30.7667"/>
</g>
<!-- 16&#45;&gt;17 -->
<g id="edge54" class="edge">
<title>16&#45;&gt;17</title>
<path fill="none" stroke="#c0c0c0" stroke-width="2" d="M568.5515,-295.1422C609.9628,-284.9753 673.6134,-269.1601 737.4688,-252.379"/>
<polygon fill="#c0c0c0" stroke="#c0c0c0" stroke-width="2" points="738.5237,-255.7206 747.3015,-249.7876 736.7397,-248.9517 738.5237,-255.7206"/>
</g>
<!-- 16&#45;&gt;18 -->
<g id="edge56" class="edge">
<title>16&#45;&gt;18</title>
<path fill="none" stroke="#c0c0c0" stroke-width="2" d="M479.4356,-292.2879C445.2073,-281.7561 397.3431,-267.0286 358.2917,-255.0128"/>
<polygon fill="#c0c0c0" stroke="#c0c0c0" stroke-width="2" points="359.154,-251.6163 348.5669,-252.0206 357.0954,-258.3067 359.154,-251.6163"/>
</g>
<!-- 16&#45;&gt;19 -->
<g id="edge58" class="edge">
<title>16&#45;&gt;19</title>
<path fill="none" stroke="#c0c0c0" stroke-width="2" d="M494.476,-287.8314C479.5109,-278.6221 461.1614,-267.3301 445.1397,-257.4706"/>
<polygon fill="#c0c0c0" stroke="#c0c0c0" stroke-width="2" points="446.8655,-254.423 436.5146,-252.1628 443.1968,-260.3847 446.8655,-254.423"/>
</g>
<!-- 16&#45;&gt;20 -->
<g id="edge60" class="edge">
<title>16&#45;&gt;20</title>
<path fill="none" stroke="#c0c0c0" stroke-width="2" d="M530.0562,-287.8314C532.6512,-280.0463 535.7424,-270.7729 538.6218,-262.1347"/>
<polygon fill="#c0c0c0" stroke="#c0c0c0" stroke-width="2" points="542.0203,-263.0069 541.8622,-252.4133 535.3795,-260.7933 542.0203,-263.0069"/>
</g>
<!-- 16&#45;&gt;21 -->
<g id="edge62" class="edge">
<title>16&#45;&gt;21</title>
<path fill="none" stroke="#c0c0c0" stroke-width="2" d="M560.842,-287.8314C580.1082,-278.3302 603.8699,-266.6121 624.2992,-256.5374"/>
<polygon fill="#c0c0c0" stroke="#c0c0c0" stroke-width="2" points="626.0023,-259.6 633.423,-252.038 622.9062,-253.3219 626.0023,-259.6"/>
</g>
<!-- 17&#45;&gt;0 -->
<g id="edge9" class="edge">
<title>17&#45;&gt;0</title>
<path fill="none" stroke="#c0c0c0" stroke-width="2" d="M808.7824,-215.9408C816.2991,-183.1017 826.6964,-113.2032 792,-72 771.8592,-48.0821 690.9061,-32.828 634.0488,-24.8397"/>
<polygon fill="#c0c0c0" stroke="#c0c0c0" stroke-width="2" points="634.4681,-21.3646 624.0864,-23.4791 633.5208,-28.3002 634.4681,-21.3646"/>
</g>
<!-- 22 -->
<g id="node23" class="node">
<title>22</title>
<path fill="none" stroke="#5673d8" stroke-width="2" d="M641,-180C641,-180 571,-180 571,-180 565,-180 559,-174 559,-168 559,-168 559,-156 559,-156 559,-150 565,-144 571,-144 571,-144 641,-144 641,-144 647,-144 653,-150 653,-156 653,-156 653,-168 653,-168 653,-174 647,-180 641,-180"/>
<text text-anchor="middle" x="606" y="-159.5" font-family="sans" font-size="10.00" fill="#000000">collapse_scores</text>
</g>
<!-- 17&#45;&gt;22 -->
<g id="edge63" class="edge">
<title>17&#45;&gt;22</title>
<path fill="none" stroke="#c0c0c0" stroke-width="2" d="M754.2918,-215.9243C726.4007,-205.7821 691.5018,-193.0916 662.5673,-182.5699"/>
<polygon fill="#c0c0c0" stroke="#c0c0c0" stroke-width="2" points="663.5962,-179.2199 653.0022,-179.0917 661.204,-185.7985 663.5962,-179.2199"/>
</g>
<!-- 18&#45;&gt;0 -->
<g id="edge10" class="edge">
<title>18&#45;&gt;0</title>
<path fill="none" stroke="#c0c0c0" stroke-width="2" d="M286.5475,-215.8779C281.3513,-182.6209 275.7341,-111.6303 313,-72 340.3349,-42.9308 448.7427,-28.5908 517.5549,-22.2806"/>
<polygon fill="#c0c0c0" stroke="#c0c0c0" stroke-width="2" points="518.1707,-25.7399 527.823,-21.3714 517.5532,-18.7672 518.1707,-25.7399"/>
</g>
<!-- 18&#45;&gt;22 -->
<g id="edge64" class="edge">
<title>18&#45;&gt;22</title>
<path fill="none" stroke="#c0c0c0" stroke-width="2" d="M349.6661,-218.0458C352.4806,-217.3437 355.2694,-216.6583 358,-216 423.1235,-200.2988 498.3594,-184.2023 548.7307,-173.7172"/>
<polygon fill="#c0c0c0" stroke="#c0c0c0" stroke-width="2" points="549.6961,-177.0915 558.776,-171.632 548.2733,-170.2376 549.6961,-177.0915"/>
</g>
<!-- 19&#45;&gt;0 -->
<g id="edge11" class="edge">
<title>19&#45;&gt;0</title>
<path fill="none" stroke="#c0c0c0" stroke-width="2" d="M370.1982,-215.8574C356.5404,-207.0627 342.5467,-195.0935 335,-180 313.5337,-137.0675 304.998,-109.4684 335,-72 357.4821,-43.923 454.0076,-29.4541 517.8687,-22.816"/>
<polygon fill="#c0c0c0" stroke="#c0c0c0" stroke-width="2" points="518.2208,-26.2983 527.8212,-21.817 517.5216,-19.3333 518.2208,-26.2983"/>
</g>
<!-- 19&#45;&gt;22 -->
<g id="edge66" class="edge">
<title>19&#45;&gt;22</title>
<path fill="none" stroke="#c0c0c0" stroke-width="2" d="M446.7923,-219.6028C476.214,-208.9578 516.6883,-194.3138 549.4643,-182.4551"/>
<polygon fill="#c0c0c0" stroke="#c0c0c0" stroke-width="2" points="550.7148,-185.7248 558.9274,-179.0313 548.3332,-179.1424 550.7148,-185.7248"/>
</g>
<!-- 20&#45;&gt;0 -->
<g id="edge12" class="edge">
<title>20&#45;&gt;0</title>
<path fill="none" stroke="#c0c0c0" stroke-width="2" d="M510.9787,-215.9447C456.5016,-186.9307 365.3675,-127.54 406,-72 419.5281,-53.5086 474.2157,-38.3522 517.9608,-28.8535"/>
<polygon fill="#c0c0c0" stroke="#c0c0c0" stroke-width="2" points="518.9007,-32.2322 527.9595,-26.7379 517.4516,-25.3838 518.9007,-32.2322"/>
</g>
<!-- 20&#45;&gt;22 -->
<g id="edge67" class="edge">
<title>20&#45;&gt;22</title>
<path fill="none" stroke="#c0c0c0" stroke-width="2" d="M562.6358,-215.8314C569.3161,-207.5386 577.3568,-197.557 584.6904,-188.4533"/>
<polygon fill="#c0c0c0" stroke="#c0c0c0" stroke-width="2" points="587.6194,-190.3965 591.1671,-180.4133 582.1681,-186.0052 587.6194,-190.3965"/>
</g>
<!-- 21&#45;&gt;0 -->
<g id="edge13" class="edge">
<title>21&#45;&gt;0</title>
<path fill="none" stroke="#c0c0c0" stroke-width="2" d="M696.6522,-215.8374C738.4165,-185.1532 810.7984,-121.5537 773,-72 756.1635,-49.9274 686.2384,-34.6557 634.457,-26.122"/>
<polygon fill="#c0c0c0" stroke="#c0c0c0" stroke-width="2" points="634.7914,-22.631 624.3637,-24.505 633.6841,-29.5429 634.7914,-22.631"/>
</g>
<!-- 21&#45;&gt;22 -->
<g id="edge65" class="edge">
<title>21&#45;&gt;22</title>
<path fill="none" stroke="#c0c0c0" stroke-width="2" d="M653.8501,-215.8314C646.3283,-207.3694 637.2435,-197.1489 629.0196,-187.8971"/>
<polygon fill="#c0c0c0" stroke="#c0c0c0" stroke-width="2" points="631.627,-185.5621 622.3673,-180.4133 626.3951,-190.2127 631.627,-185.5621"/>
</g>
<!-- 22&#45;&gt;0 -->
<g id="edge14" class="edge">
<title>22&#45;&gt;0</title>
<path fill="none" stroke="#c0c0c0" stroke-width="2" d="M653.4452,-152.9359C708.2932,-140.2821 787.2717,-114.0301 756,-72 741.2579,-52.1862 681.0019,-36.9221 634.2191,-27.7559"/>
<polygon fill="#c0c0c0" stroke="#c0c0c0" stroke-width="2" points="634.6407,-24.2732 624.1619,-25.8373 633.3289,-31.1492 634.6407,-24.2732"/>
</g>
<!-- 23 -->
<g id="node24" class="node">
<title>23</title>
<path fill="none" stroke="#d8ac56" stroke-width="2" d="M551,-108C551,-108 427,-108 427,-108 421,-108 415,-102 415,-96 415,-96 415,-84 415,-84 415,-78 421,-72 427,-72 427,-72 551,-72 551,-72 557,-72 563,-78 563,-84 563,-84 563,-96 563,-96 563,-102 557,-108 551,-108"/>
<text text-anchor="middle" x="489" y="-87.5" font-family="sans" font-size="10.00" fill="#000000">interactive_heatmap_delta</text>
</g>
<!-- 22&#45;&gt;23 -->
<g id="edge68" class="edge">
<title>22&#45;&gt;23</title>
<path fill="none" stroke="#c0c0c0" stroke-width="2" d="M576.476,-143.8314C561.5109,-134.6221 543.1614,-123.3301 527.1397,-113.4706"/>
<polygon fill="#c0c0c0" stroke="#c0c0c0" stroke-width="2" points="528.8655,-110.423 518.5146,-108.1628 525.1968,-116.3847 528.8655,-110.423"/>
</g>
<!-- 24 -->
<g id="node25" class="node">
<title>24</title>
<path fill="none" stroke="#56d8c9" stroke-width="2" d="M734.5,-108C734.5,-108 593.5,-108 593.5,-108 587.5,-108 581.5,-102 581.5,-96 581.5,-96 581.5,-84 581.5,-84 581.5,-78 587.5,-72 593.5,-72 593.5,-72 734.5,-72 734.5,-72 740.5,-72 746.5,-78 746.5,-84 746.5,-84 746.5,-96 746.5,-96 746.5,-102 740.5,-108 734.5,-108"/>
<text text-anchor="middle" x="664" y="-87.5" font-family="sans" font-size="10.00" fill="#000000">interactive_heatmap_absolute</text>
</g>
<!-- 22&#45;&gt;24 -->
<g id="edge69" class="edge">
<title>22&#45;&gt;24</title>
<path fill="none" stroke="#c0c0c0" stroke-width="2" d="M620.6358,-143.8314C627.3161,-135.5386 635.3568,-125.557 642.6904,-116.4533"/>
<polygon fill="#c0c0c0" stroke="#c0c0c0" stroke-width="2" points="645.6194,-118.3965 649.1671,-108.4133 640.1681,-114.0052 645.6194,-118.3965"/>
</g>
<!-- 23&#45;&gt;0 -->
<g id="edge15" class="edge">
<title>23&#45;&gt;0</title>
<path fill="none" stroke="#c0c0c0" stroke-width="2" d="M510.9538,-71.8314C521.6695,-62.9632 534.7189,-52.1637 546.309,-42.5718"/>
<polygon fill="#c0c0c0" stroke="#c0c0c0" stroke-width="2" points="548.5808,-45.2349 554.0533,-36.1628 544.1178,-39.8422 548.5808,-45.2349"/>
</g>
<!-- 24&#45;&gt;0 -->
<g id="edge16" class="edge">
<title>24&#45;&gt;0</title>
<path fill="none" stroke="#c0c0c0" stroke-width="2" d="M641.7939,-71.8314C630.955,-62.9632 617.7556,-52.1637 606.0322,-42.5718"/>
<polygon fill="#c0c0c0" stroke="#c0c0c0" stroke-width="2" points="608.155,-39.7864 598.199,-36.1628 603.7223,-45.2041 608.155,-39.7864"/>
</g>
</g>
</svg>
