<?xml version="1.0" encoding="UTF-8" standalone="no"?>
<!DOCTYPE svg PUBLIC "-//W3C//DTD SVG 1.1//EN"
 "http://www.w3.org/Graphics/SVG/1.1/DTD/svg11.dtd">
<!-- Generated by graphviz version 2.40.1 (0)
 -->
<!-- Title: snakemake_dag Pages: 1 -->
<svg width="1637pt" height="548pt"
 viewBox="0.00 0.00 1637.00 548.00" xmlns="http://www.w3.org/2000/svg" xmlns:xlink="http://www.w3.org/1999/xlink">
<g id="graph0" class="graph" transform="scale(1 1) rotate(0) translate(4 544)">
<title>snakemake_dag</title>
<polygon fill="#ffffff" stroke="transparent" points="-4,4 -4,-544 1633,-544 1633,4 -4,4"/>
<!-- 0 -->
<g id="node1" class="node">
<title>0</title>
<path fill="none" stroke="#afd856" stroke-width="2" d="M746,-36C746,-36 674,-36 674,-36 668,-36 662,-30 662,-24 662,-24 662,-12 662,-12 662,-6 668,0 674,0 674,0 746,0 746,0 752,0 758,-6 758,-12 758,-12 758,-24 758,-24 758,-30 752,-36 746,-36"/>
<text text-anchor="middle" x="710" y="-15.5" font-family="sans" font-size="10.00" fill="#000000">make_summary</text>
</g>
<!-- 1 -->
<g id="node2" class="node">
<title>1</title>
<path fill="none" stroke="#d87556" stroke-width="2" d="M290,-180C290,-180 246,-180 246,-180 240,-180 234,-174 234,-168 234,-168 234,-156 234,-156 234,-150 240,-144 246,-144 246,-144 290,-144 290,-144 296,-144 302,-150 302,-156 302,-156 302,-168 302,-168 302,-174 296,-180 290,-180"/>
<text text-anchor="middle" x="268" y="-159.5" font-family="sans" font-size="10.00" fill="#000000">make_dag</text>
</g>
<!-- 1&#45;&gt;0 -->
<g id="edge1" class="edge">
<title>1&#45;&gt;0</title>
<path fill="none" stroke="#c0c0c0" stroke-width="2" d="M277.7108,-143.7069C289.9368,-122.6498 313.019,-88.8125 343,-72 394.7212,-42.9963 561.9393,-27.7772 651.7259,-21.5191"/>
<polygon fill="#c0c0c0" stroke="#c0c0c0" stroke-width="2" points="652.0123,-25.0078 661.7509,-20.8352 651.5358,-18.0241 652.0123,-25.0078"/>
</g>
<!-- 2 -->
<g id="node3" class="node">
<title>2</title>
<path fill="none" stroke="#56d88a" stroke-width="2" d="M278.5,-108C278.5,-108 201.5,-108 201.5,-108 195.5,-108 189.5,-102 189.5,-96 189.5,-96 189.5,-84 189.5,-84 189.5,-78 195.5,-72 201.5,-72 201.5,-72 278.5,-72 278.5,-72 284.5,-72 290.5,-78 290.5,-84 290.5,-84 290.5,-96 290.5,-96 290.5,-102 284.5,-108 278.5,-108"/>
<text text-anchor="middle" x="240" y="-87.5" font-family="sans" font-size="10.00" fill="#000000">save_pinned_env</text>
</g>
<!-- 1&#45;&gt;2 -->
<g id="edge14" class="edge">
<title>1&#45;&gt;2</title>
<path fill="none" stroke="#c0c0c0" stroke-width="2" d="M260.9344,-143.8314C257.874,-135.9617 254.2221,-126.5712 250.8318,-117.8533"/>
<polygon fill="#c0c0c0" stroke="#c0c0c0" stroke-width="2" points="254.0473,-116.4647 247.1607,-108.4133 247.5232,-119.0019 254.0473,-116.4647"/>
</g>
<!-- 2&#45;&gt;0 -->
<g id="edge2" class="edge">
<title>2&#45;&gt;0</title>
<path fill="none" stroke="#c0c0c0" stroke-width="2" d="M290.5788,-75.2689C295.4317,-74.0744 300.2961,-72.9601 305,-72 427.2218,-47.0523 572.6369,-30.8981 651.7075,-23.2285"/>
<polygon fill="#c0c0c0" stroke="#c0c0c0" stroke-width="2" points="652.3282,-26.6851 661.9485,-22.2467 651.6602,-19.7171 652.3282,-26.6851"/>
</g>
<!-- 3 -->
<g id="node4" class="node">
<title>3</title>
<path fill="none" stroke="#d8bc56" stroke-width="2" d="M629.5,-468C629.5,-468 546.5,-468 546.5,-468 540.5,-468 534.5,-462 534.5,-456 534.5,-456 534.5,-444 534.5,-444 534.5,-438 540.5,-432 546.5,-432 546.5,-432 629.5,-432 629.5,-432 635.5,-432 641.5,-438 641.5,-444 641.5,-444 641.5,-456 641.5,-456 641.5,-462 635.5,-468 629.5,-468"/>
<text text-anchor="middle" x="588" y="-447.5" font-family="sans" font-size="10.00" fill="#000000">process_ccs_MERS</text>
</g>
<!-- 3&#45;&gt;0 -->
<g id="edge3" class="edge">
<title>3&#45;&gt;0</title>
<path fill="none" stroke="#c0c0c0" stroke-width="2" d="M534.4233,-440.9691C466.1836,-426.0466 357,-389.1746 357,-306 357,-306 357,-306 357,-162 357,-117.669 364.676,-98.7852 400,-72 438.6917,-42.6612 573.1307,-28.0296 651.6842,-21.8269"/>
<polygon fill="#c0c0c0" stroke="#c0c0c0" stroke-width="2" points="652.2104,-25.2969 661.9132,-21.0419 651.6747,-18.3175 652.2104,-25.2969"/>
</g>
<!-- 15 -->
<g id="node16" class="node">
<title>15</title>
<path fill="none" stroke="#ced856" stroke-width="2" d="M647.5,-396C647.5,-396 554.5,-396 554.5,-396 548.5,-396 542.5,-390 542.5,-384 542.5,-384 542.5,-372 542.5,-372 542.5,-366 548.5,-360 554.5,-360 554.5,-360 647.5,-360 647.5,-360 653.5,-360 659.5,-366 659.5,-372 659.5,-372 659.5,-384 659.5,-384 659.5,-390 653.5,-396 647.5,-396"/>
<text text-anchor="middle" x="601" y="-375.5" font-family="sans" font-size="10.00" fill="#000000">merge_libs_to_pools</text>
</g>
<!-- 3&#45;&gt;15 -->
<g id="edge47" class="edge">
<title>3&#45;&gt;15</title>
<path fill="none" stroke="#c0c0c0" stroke-width="2" d="M591.2804,-431.8314C592.6708,-424.131 594.3241,-414.9743 595.8692,-406.4166"/>
<polygon fill="#c0c0c0" stroke="#c0c0c0" stroke-width="2" points="599.3428,-406.8761 597.6754,-396.4133 592.4542,-405.6322 599.3428,-406.8761"/>
</g>
<!-- 4 -->
<g id="node5" class="node">
<title>4</title>
<path fill="none" stroke="#567bd8" stroke-width="2" d="M380,-540C380,-540 234,-540 234,-540 228,-540 222,-534 222,-528 222,-528 222,-516 222,-516 222,-510 228,-504 234,-504 234,-504 380,-504 380,-504 386,-504 392,-510 392,-516 392,-516 392,-528 392,-528 392,-534 386,-540 380,-540"/>
<text text-anchor="middle" x="307" y="-525" font-family="sans" font-size="10.00" fill="#000000">get_ccs</text>
<text text-anchor="middle" x="307" y="-514" font-family="sans" font-size="10.00" fill="#000000">pacbioRun: lib51_MERS_230124</text>
</g>
<!-- 4&#45;&gt;3 -->
<g id="edge15" class="edge">
<title>4&#45;&gt;3</title>
<path fill="none" stroke="#c0c0c0" stroke-width="2" d="M377.5455,-503.9243C422.6421,-492.3693 480.648,-477.5066 524.3379,-466.312"/>
<polygon fill="#c0c0c0" stroke="#c0c0c0" stroke-width="2" points="525.4558,-469.6387 534.2741,-463.7661 523.7183,-462.8578 525.4558,-469.6387"/>
</g>
<!-- 12 -->
<g id="node13" class="node">
<title>12</title>
<path fill="none" stroke="#68d856" stroke-width="2" d="M917,-468C917,-468 813,-468 813,-468 807,-468 801,-462 801,-456 801,-456 801,-444 801,-444 801,-438 807,-432 813,-432 813,-432 917,-432 917,-432 923,-432 929,-438 929,-444 929,-444 929,-456 929,-456 929,-462 923,-468 917,-468"/>
<text text-anchor="middle" x="865" y="-447.5" font-family="sans" font-size="10.00" fill="#000000">process_ccs_MERS_rpk</text>
</g>
<!-- 4&#45;&gt;12 -->
<g id="edge23" class="edge">
<title>4&#45;&gt;12</title>
<path fill="none" stroke="#c0c0c0" stroke-width="2" d="M392.2454,-505.3012C395.1961,-504.8429 398.1209,-504.4072 401,-504 570.5869,-480.014 618.1538,-496.3393 790.7009,-468.0802"/>
<polygon fill="#c0c0c0" stroke="#c0c0c0" stroke-width="2" points="791.3331,-471.5233 800.6228,-466.4291 790.1839,-464.6182 791.3331,-471.5233"/>
</g>
<!-- 13 -->
<g id="node14" class="node">
<title>13</title>
<path fill="none" stroke="#56d8d0" stroke-width="2" d="M770.5,-468C770.5,-468 671.5,-468 671.5,-468 665.5,-468 659.5,-462 659.5,-456 659.5,-456 659.5,-444 659.5,-444 659.5,-438 665.5,-432 671.5,-432 671.5,-432 770.5,-432 770.5,-432 776.5,-432 782.5,-438 782.5,-444 782.5,-444 782.5,-456 782.5,-456 782.5,-462 776.5,-468 770.5,-468"/>
<text text-anchor="middle" x="721" y="-447.5" font-family="sans" font-size="10.00" fill="#000000">process_ccs_PDF2180</text>
</g>
<!-- 4&#45;&gt;13 -->
<g id="edge31" class="edge">
<title>4&#45;&gt;13</title>
<path fill="none" stroke="#c0c0c0" stroke-width="2" d="M392.0227,-505.5367C395.0507,-505.0085 398.0503,-504.4945 401,-504 508.5767,-485.9645 539.202,-489.7704 649.4047,-468.2176"/>
<polygon fill="#c0c0c0" stroke="#c0c0c0" stroke-width="2" points="650.1183,-471.6444 659.2472,-466.2673 648.7576,-464.7779 650.1183,-471.6444"/>
</g>
<!-- 14 -->
<g id="node15" class="node">
<title>14</title>
<path fill="none" stroke="#56d8a9" stroke-width="2" d="M1076.5,-468C1076.5,-468 959.5,-468 959.5,-468 953.5,-468 947.5,-462 947.5,-456 947.5,-456 947.5,-444 947.5,-444 947.5,-438 953.5,-432 959.5,-432 959.5,-432 1076.5,-432 1076.5,-432 1082.5,-432 1088.5,-438 1088.5,-444 1088.5,-444 1088.5,-456 1088.5,-456 1088.5,-462 1082.5,-468 1076.5,-468"/>
<text text-anchor="middle" x="1018" y="-447.5" font-family="sans" font-size="10.00" fill="#000000">process_ccs_panmerbeco</text>
</g>
<!-- 4&#45;&gt;14 -->
<g id="edge39" class="edge">
<title>4&#45;&gt;14</title>
<path fill="none" stroke="#c0c0c0" stroke-width="2" d="M392.2328,-505.2079C395.1871,-504.7761 398.116,-504.3714 401,-504 634.9998,-473.867 699.5216,-501.5769 937.4451,-467.9313"/>
<polygon fill="#c0c0c0" stroke="#c0c0c0" stroke-width="2" points="938.0387,-471.3821 947.4398,-466.4965 937.0439,-464.4531 938.0387,-471.3821"/>
</g>
<!-- 5 -->
<g id="node6" class="node">
<title>5</title>
<path fill="none" stroke="#567bd8" stroke-width="2" d="M568,-540C568,-540 422,-540 422,-540 416,-540 410,-534 410,-528 410,-528 410,-516 410,-516 410,-510 416,-504 422,-504 422,-504 568,-504 568,-504 574,-504 580,-510 580,-516 580,-516 580,-528 580,-528 580,-534 574,-540 568,-540"/>
<text text-anchor="middle" x="495" y="-525" font-family="sans" font-size="10.00" fill="#000000">get_ccs</text>
<text text-anchor="middle" x="495" y="-514" font-family="sans" font-size="10.00" fill="#000000">pacbioRun: lib52_MERS_230124</text>
</g>
<!-- 5&#45;&gt;3 -->
<g id="edge16" class="edge">
<title>5&#45;&gt;3</title>
<path fill="none" stroke="#c0c0c0" stroke-width="2" d="M518.4678,-503.8314C530.0327,-494.8779 544.1404,-483.9558 556.6183,-474.2955"/>
<polygon fill="#c0c0c0" stroke="#c0c0c0" stroke-width="2" points="558.775,-477.0521 564.5397,-468.1628 554.4898,-471.5171 558.775,-477.0521"/>
</g>
<!-- 5&#45;&gt;12 -->
<g id="edge24" class="edge">
<title>5&#45;&gt;12</title>
<path fill="none" stroke="#c0c0c0" stroke-width="2" d="M580.0446,-505.6608C583.0663,-505.0975 586.0587,-504.5424 589,-504 676.0307,-487.951 700.6898,-487.0253 791.1088,-468.1209"/>
<polygon fill="#c0c0c0" stroke="#c0c0c0" stroke-width="2" points="791.8977,-471.5316 800.9611,-466.0449 790.4543,-464.682 791.8977,-471.5316"/>
</g>
<!-- 5&#45;&gt;13 -->
<g id="edge32" class="edge">
<title>5&#45;&gt;13</title>
<path fill="none" stroke="#c0c0c0" stroke-width="2" d="M551.7376,-503.9243C582.9018,-493.9959 621.7311,-481.6255 654.3356,-471.2382"/>
<polygon fill="#c0c0c0" stroke="#c0c0c0" stroke-width="2" points="655.7733,-474.4536 664.239,-468.0831 653.6484,-467.7839 655.7733,-474.4536"/>
</g>
<!-- 5&#45;&gt;14 -->
<g id="edge40" class="edge">
<title>5&#45;&gt;14</title>
<path fill="none" stroke="#c0c0c0" stroke-width="2" d="M580.2513,-505.3423C583.2003,-504.8723 586.1231,-504.423 589,-504 740.1114,-481.7806 782.3863,-492.6876 937.5235,-467.9582"/>
<polygon fill="#c0c0c0" stroke="#c0c0c0" stroke-width="2" points="938.1057,-471.4096 947.4184,-466.3575 936.9877,-464.4995 938.1057,-471.4096"/>
</g>
<!-- 6 -->
<g id="node7" class="node">
<title>6</title>
<path fill="none" stroke="#567bd8" stroke-width="2" d="M772,-540C772,-540 610,-540 610,-540 604,-540 598,-534 598,-528 598,-528 598,-516 598,-516 598,-510 604,-504 610,-504 610,-504 772,-504 772,-504 778,-504 784,-510 784,-516 784,-516 784,-528 784,-528 784,-534 778,-540 772,-540"/>
<text text-anchor="middle" x="691" y="-525" font-family="sans" font-size="10.00" fill="#000000">get_ccs</text>
<text text-anchor="middle" x="691" y="-514" font-family="sans" font-size="10.00" fill="#000000">pacbioRun: lib53_PDF2180_230124</text>
</g>
<!-- 6&#45;&gt;3 -->
<g id="edge17" class="edge">
<title>6&#45;&gt;3</title>
<path fill="none" stroke="#c0c0c0" stroke-width="2" d="M665.0088,-503.8314C652.0784,-494.7927 636.2778,-483.7476 622.3617,-474.0198"/>
<polygon fill="#c0c0c0" stroke="#c0c0c0" stroke-width="2" points="624.1843,-471.0235 613.9829,-468.1628 620.1737,-476.7608 624.1843,-471.0235"/>
</g>
<!-- 6&#45;&gt;12 -->
<g id="edge25" class="edge">
<title>6&#45;&gt;12</title>
<path fill="none" stroke="#c0c0c0" stroke-width="2" d="M734.9075,-503.8314C758.2824,-494.159 787.2097,-482.1891 811.8468,-471.9944"/>
<polygon fill="#c0c0c0" stroke="#c0c0c0" stroke-width="2" points="813.5063,-475.0956 821.4082,-468.038 810.8298,-468.6275 813.5063,-475.0956"/>
</g>
<!-- 6&#45;&gt;13 -->
<g id="edge33" class="edge">
<title>6&#45;&gt;13</title>
<path fill="none" stroke="#c0c0c0" stroke-width="2" d="M698.5703,-503.8314C701.8493,-495.9617 705.762,-486.5712 709.3945,-477.8533"/>
<polygon fill="#c0c0c0" stroke="#c0c0c0" stroke-width="2" points="712.7124,-478.9902 713.3278,-468.4133 706.2508,-476.2979 712.7124,-478.9902"/>
</g>
<!-- 6&#45;&gt;14 -->
<g id="edge41" class="edge">
<title>6&#45;&gt;14</title>
<path fill="none" stroke="#c0c0c0" stroke-width="2" d="M774.2067,-503.9409C819.5945,-494.0587 877.0363,-481.5018 937.2538,-468.1594"/>
<polygon fill="#c0c0c0" stroke="#c0c0c0" stroke-width="2" points="938.3298,-471.5059 947.335,-465.9241 936.8144,-464.6719 938.3298,-471.5059"/>
</g>
<!-- 7 -->
<g id="node8" class="node">
<title>7</title>
<path fill="none" stroke="#567bd8" stroke-width="2" d="M976,-540C976,-540 814,-540 814,-540 808,-540 802,-534 802,-528 802,-528 802,-516 802,-516 802,-510 808,-504 814,-504 814,-504 976,-504 976,-504 982,-504 988,-510 988,-516 988,-516 988,-528 988,-528 988,-534 982,-540 976,-540"/>
<text text-anchor="middle" x="895" y="-525" font-family="sans" font-size="10.00" fill="#000000">get_ccs</text>
<text text-anchor="middle" x="895" y="-514" font-family="sans" font-size="10.00" fill="#000000">pacbioRun: lib54_PDF2180_230124</text>
</g>
<!-- 7&#45;&gt;3 -->
<g id="edge18" class="edge">
<title>7&#45;&gt;3</title>
<path fill="none" stroke="#c0c0c0" stroke-width="2" d="M807.4595,-503.9671C763.392,-494.5704 708.9591,-482.4828 651.5488,-468.0657"/>
<polygon fill="#c0c0c0" stroke="#c0c0c0" stroke-width="2" points="652.1094,-464.5974 641.5566,-465.5403 650.3941,-471.384 652.1094,-464.5974"/>
</g>
<!-- 7&#45;&gt;12 -->
<g id="edge26" class="edge">
<title>7&#45;&gt;12</title>
<path fill="none" stroke="#c0c0c0" stroke-width="2" d="M887.4297,-503.8314C884.1507,-495.9617 880.238,-486.5712 876.6055,-477.8533"/>
<polygon fill="#c0c0c0" stroke="#c0c0c0" stroke-width="2" points="879.7492,-476.2979 872.6722,-468.4133 873.2876,-478.9902 879.7492,-476.2979"/>
</g>
<!-- 7&#45;&gt;13 -->
<g id="edge34" class="edge">
<title>7&#45;&gt;13</title>
<path fill="none" stroke="#c0c0c0" stroke-width="2" d="M851.0925,-503.8314C827.7176,-494.159 798.7903,-482.1891 774.1532,-471.9944"/>
<polygon fill="#c0c0c0" stroke="#c0c0c0" stroke-width="2" points="775.1702,-468.6275 764.5918,-468.038 772.4937,-475.0956 775.1702,-468.6275"/>
</g>
<!-- 7&#45;&gt;14 -->
<g id="edge42" class="edge">
<title>7&#45;&gt;14</title>
<path fill="none" stroke="#c0c0c0" stroke-width="2" d="M926.0381,-503.8314C941.7705,-494.6221 961.0611,-483.3301 977.9044,-473.4706"/>
<polygon fill="#c0c0c0" stroke="#c0c0c0" stroke-width="2" points="980.1098,-476.2352 986.9718,-468.1628 976.5735,-470.1941 980.1098,-476.2352"/>
</g>
<!-- 8 -->
<g id="node9" class="node">
<title>8</title>
<path fill="none" stroke="#567bd8" stroke-width="2" d="M1185.5,-540C1185.5,-540 1018.5,-540 1018.5,-540 1012.5,-540 1006.5,-534 1006.5,-528 1006.5,-528 1006.5,-516 1006.5,-516 1006.5,-510 1012.5,-504 1018.5,-504 1018.5,-504 1185.5,-504 1185.5,-504 1191.5,-504 1197.5,-510 1197.5,-516 1197.5,-516 1197.5,-528 1197.5,-528 1197.5,-534 1191.5,-540 1185.5,-540"/>
<text text-anchor="middle" x="1102" y="-525" font-family="sans" font-size="10.00" fill="#000000">get_ccs</text>
<text text-anchor="middle" x="1102" y="-514" font-family="sans" font-size="10.00" fill="#000000">pacbioRun: lib84_MERS_rpk_240206</text>
</g>
<!-- 8&#45;&gt;3 -->
<g id="edge19" class="edge">
<title>8&#45;&gt;3</title>
<path fill="none" stroke="#c0c0c0" stroke-width="2" d="M1006.4722,-505.3482C1003.279,-504.8796 1000.1148,-504.4286 997,-504 847.1256,-483.3797 804.6119,-496.7455 652.0192,-467.9973"/>
<polygon fill="#c0c0c0" stroke="#c0c0c0" stroke-width="2" points="652.2865,-464.485 641.8067,-466.042 650.9701,-471.3601 652.2865,-464.485"/>
</g>
<!-- 8&#45;&gt;12 -->
<g id="edge27" class="edge">
<title>8&#45;&gt;12</title>
<path fill="none" stroke="#c0c0c0" stroke-width="2" d="M1042.5008,-503.9243C1009.6789,-493.9531 968.7494,-481.5188 934.4674,-471.104"/>
<polygon fill="#c0c0c0" stroke="#c0c0c0" stroke-width="2" points="935.1093,-467.6411 924.5237,-468.0831 933.0745,-474.3389 935.1093,-467.6411"/>
</g>
<!-- 8&#45;&gt;13 -->
<g id="edge35" class="edge">
<title>8&#45;&gt;13</title>
<path fill="none" stroke="#c0c0c0" stroke-width="2" d="M1006.3698,-505.5224C928.791,-492.1301 827.7679,-474.6253 792.401,-467.8713"/>
<polygon fill="#c0c0c0" stroke="#c0c0c0" stroke-width="2" points="792.9983,-464.4215 782.5067,-465.8969 791.6284,-471.2862 792.9983,-464.4215"/>
</g>
<!-- 8&#45;&gt;14 -->
<g id="edge43" class="edge">
<title>8&#45;&gt;14</title>
<path fill="none" stroke="#c0c0c0" stroke-width="2" d="M1080.8033,-503.8314C1070.5566,-495.0485 1058.0997,-484.3712 1046.9903,-474.8489"/>
<polygon fill="#c0c0c0" stroke="#c0c0c0" stroke-width="2" points="1049.0603,-472.0134 1039.19,-468.1628 1044.5048,-477.3282 1049.0603,-472.0134"/>
</g>
<!-- 9 -->
<g id="node10" class="node">
<title>9</title>
<path fill="none" stroke="#567bd8" stroke-width="2" d="M1394.5,-540C1394.5,-540 1227.5,-540 1227.5,-540 1221.5,-540 1215.5,-534 1215.5,-528 1215.5,-528 1215.5,-516 1215.5,-516 1215.5,-510 1221.5,-504 1227.5,-504 1227.5,-504 1394.5,-504 1394.5,-504 1400.5,-504 1406.5,-510 1406.5,-516 1406.5,-516 1406.5,-528 1406.5,-528 1406.5,-534 1400.5,-540 1394.5,-540"/>
<text text-anchor="middle" x="1311" y="-525" font-family="sans" font-size="10.00" fill="#000000">get_ccs</text>
<text text-anchor="middle" x="1311" y="-514" font-family="sans" font-size="10.00" fill="#000000">pacbioRun: lib85_MERS_rpk_240206</text>
</g>
<!-- 9&#45;&gt;3 -->
<g id="edge20" class="edge">
<title>9&#45;&gt;3</title>
<path fill="none" stroke="#c0c0c0" stroke-width="2" d="M1215.2863,-505.0386C1212.4962,-504.6711 1209.7295,-504.3236 1207,-504 964.3359,-475.2274 896.7708,-509.3328 651.6989,-467.8854"/>
<polygon fill="#c0c0c0" stroke="#c0c0c0" stroke-width="2" points="652.2287,-464.4252 641.7808,-466.1835 651.0447,-471.3244 652.2287,-464.4252"/>
</g>
<!-- 9&#45;&gt;12 -->
<g id="edge28" class="edge">
<title>9&#45;&gt;12</title>
<path fill="none" stroke="#c0c0c0" stroke-width="2" d="M1215.2524,-505.2879C1212.4721,-504.8477 1209.7167,-504.4174 1207,-504 1088.213,-485.7488 1057.1065,-490.2332 939,-468 938.8985,-467.9809 938.7969,-467.9617 938.6953,-467.9425"/>
<polygon fill="#c0c0c0" stroke="#c0c0c0" stroke-width="2" points="939.5775,-464.5496 929.0859,-466.0248 938.2075,-471.4143 939.5775,-464.5496"/>
</g>
<!-- 9&#45;&gt;13 -->
<g id="edge36" class="edge">
<title>9&#45;&gt;13</title>
<path fill="none" stroke="#c0c0c0" stroke-width="2" d="M1215.2764,-505.1179C1212.4892,-504.7273 1209.7258,-504.3535 1207,-504 1026.6274,-480.6103 976.3079,-498.2065 792.8097,-467.9715"/>
<polygon fill="#c0c0c0" stroke="#c0c0c0" stroke-width="2" points="793.271,-464.5001 782.8305,-466.3021 792.116,-471.4041 793.271,-464.5001"/>
</g>
<!-- 9&#45;&gt;14 -->
<g id="edge44" class="edge">
<title>9&#45;&gt;14</title>
<path fill="none" stroke="#c0c0c0" stroke-width="2" d="M1237.4419,-503.9243C1195.1374,-493.5286 1141.938,-480.4558 1098.5153,-469.7853"/>
<polygon fill="#c0c0c0" stroke="#c0c0c0" stroke-width="2" points="1099.1022,-466.3255 1088.5558,-467.338 1097.4317,-473.1233 1099.1022,-466.3255"/>
</g>
<!-- 10 -->
<g id="node11" class="node">
<title>10</title>
<path fill="none" stroke="#567bd8" stroke-width="2" d="M1617,-540C1617,-540 1437,-540 1437,-540 1431,-540 1425,-534 1425,-528 1425,-528 1425,-516 1425,-516 1425,-510 1431,-504 1437,-504 1437,-504 1617,-504 1617,-504 1623,-504 1629,-510 1629,-516 1629,-516 1629,-528 1629,-528 1629,-534 1623,-540 1617,-540"/>
<text text-anchor="middle" x="1527" y="-525" font-family="sans" font-size="10.00" fill="#000000">get_ccs</text>
<text text-anchor="middle" x="1527" y="-514" font-family="sans" font-size="10.00" fill="#000000">pacbioRun: lib82_panmerbeco_240206</text>
</g>
<!-- 10&#45;&gt;3 -->
<g id="edge21" class="edge">
<title>10&#45;&gt;3</title>
<path fill="none" stroke="#c0c0c0" stroke-width="2" d="M1424.8424,-504.9856C1421.865,-504.6336 1418.9126,-504.3037 1416,-504 1080.7651,-469.0454 988.6759,-522.068 651.8083,-467.8822"/>
<polygon fill="#c0c0c0" stroke="#c0c0c0" stroke-width="2" points="652.2025,-464.4003 641.7699,-466.2476 651.0774,-471.3093 652.2025,-464.4003"/>
</g>
<!-- 10&#45;&gt;12 -->
<g id="edge29" class="edge">
<title>10&#45;&gt;12</title>
<path fill="none" stroke="#c0c0c0" stroke-width="2" d="M1424.8302,-505.0951C1421.8563,-504.7111 1418.908,-504.3449 1416,-504 1204.8767,-478.9614 1148.9891,-501.2352 939,-468 938.898,-467.9839 938.7959,-467.9676 938.6937,-467.9514"/>
<polygon fill="#c0c0c0" stroke="#c0c0c0" stroke-width="2" points="939.5006,-464.5396 929.0458,-466.2563 938.2893,-471.434 939.5006,-464.5396"/>
</g>
<!-- 10&#45;&gt;13 -->
<g id="edge37" class="edge">
<title>10&#45;&gt;13</title>
<path fill="none" stroke="#c0c0c0" stroke-width="2" d="M1424.838,-505.0266C1421.8618,-504.6627 1418.9109,-504.3191 1416,-504 1143.096,-474.0811 1068.2971,-509.4771 792.7023,-467.9204"/>
<polygon fill="#c0c0c0" stroke="#c0c0c0" stroke-width="2" points="793.2271,-464.46 782.8132,-466.4094 792.1698,-471.3797 793.2271,-464.46"/>
</g>
<!-- 10&#45;&gt;14 -->
<g id="edge45" class="edge">
<title>10&#45;&gt;14</title>
<path fill="none" stroke="#c0c0c0" stroke-width="2" d="M1424.7995,-505.3248C1421.8346,-504.8738 1418.8965,-504.4313 1416,-504 1306.2057,-487.6522 1179.0594,-470.7548 1098.5974,-460.3128"/>
<polygon fill="#c0c0c0" stroke="#c0c0c0" stroke-width="2" points="1098.9014,-456.823 1088.5346,-459.009 1098.0019,-463.765 1098.9014,-456.823"/>
</g>
<!-- 11 -->
<g id="node12" class="node">
<title>11</title>
<path fill="none" stroke="#567bd8" stroke-width="2" d="M192,-540C192,-540 12,-540 12,-540 6,-540 0,-534 0,-528 0,-528 0,-516 0,-516 0,-510 6,-504 12,-504 12,-504 192,-504 192,-504 198,-504 204,-510 204,-516 204,-516 204,-528 204,-528 204,-534 198,-540 192,-540"/>
<text text-anchor="middle" x="102" y="-525" font-family="sans" font-size="10.00" fill="#000000">get_ccs</text>
<text text-anchor="middle" x="102" y="-514" font-family="sans" font-size="10.00" fill="#000000">pacbioRun: lib83_panmerbeco_240206</text>
</g>
<!-- 11&#45;&gt;3 -->
<g id="edge22" class="edge">
<title>11&#45;&gt;3</title>
<path fill="none" stroke="#c0c0c0" stroke-width="2" d="M204.2052,-505.3562C207.1688,-504.896 210.1053,-504.4431 213,-504 322.1367,-487.2946 449.3754,-469.2804 524.0577,-458.8557"/>
<polygon fill="#c0c0c0" stroke="#c0c0c0" stroke-width="2" points="524.8187,-462.2835 534.2395,-457.436 523.8519,-455.3506 524.8187,-462.2835"/>
</g>
<!-- 11&#45;&gt;12 -->
<g id="edge30" class="edge">
<title>11&#45;&gt;12</title>
<path fill="none" stroke="#c0c0c0" stroke-width="2" d="M204.1639,-505.0439C207.1395,-504.6749 210.0898,-504.3256 213,-504 465.9783,-475.6935 535.3849,-506.2253 790.6979,-468.042"/>
<polygon fill="#c0c0c0" stroke="#c0c0c0" stroke-width="2" points="791.2775,-471.4942 800.6398,-466.5347 790.2281,-464.5733 791.2775,-471.4942"/>
</g>
<!-- 11&#45;&gt;13 -->
<g id="edge38" class="edge">
<title>11&#45;&gt;13</title>
<path fill="none" stroke="#c0c0c0" stroke-width="2" d="M204.1729,-505.1209C207.1459,-504.7294 210.0932,-504.3546 213,-504 403.6671,-480.7415 456.64,-499.7834 649.4021,-468.1222"/>
<polygon fill="#c0c0c0" stroke="#c0c0c0" stroke-width="2" points="649.997,-471.5714 659.2855,-466.4749 648.8461,-464.6666 649.997,-471.5714"/>
</g>
<!-- 11&#45;&gt;14 -->
<g id="edge46" class="edge">
<title>11&#45;&gt;14</title>
<path fill="none" stroke="#c0c0c0" stroke-width="2" d="M204.1586,-504.9956C207.1358,-504.6407 210.0878,-504.3075 213,-504 530.5462,-470.474 616.5786,-510.7279 937.4019,-467.9212"/>
<polygon fill="#c0c0c0" stroke="#c0c0c0" stroke-width="2" points="938.0079,-471.3712 947.4493,-466.5639 937.0707,-464.4342 938.0079,-471.3712"/>
</g>
<!-- 12&#45;&gt;0 -->
<g id="edge4" class="edge">
<title>12&#45;&gt;0</title>
<path fill="none" stroke="#c0c0c0" stroke-width="2" d="M891.1438,-431.8783C923.1067,-407.3584 973,-360.375 973,-306 973,-306 973,-306 973,-162 973,-69.3365 845.839,-35.9146 768.358,-24.1508"/>
<polygon fill="#c0c0c0" stroke="#c0c0c0" stroke-width="2" points="768.635,-20.6546 758.2383,-22.6938 767.6374,-27.5832 768.635,-20.6546"/>
</g>
<!-- 13&#45;&gt;0 -->
<g id="edge5" class="edge">
<title>13&#45;&gt;0</title>
<path fill="none" stroke="#c0c0c0" stroke-width="2" d="M762.5151,-431.8958C824.7475,-403.4116 935,-347.1425 935,-306 935,-306 935,-306 935,-162 935,-82.8171 834.9195,-45.2024 768.2529,-28.93"/>
<polygon fill="#c0c0c0" stroke="#c0c0c0" stroke-width="2" points="768.803,-25.4642 758.2681,-26.59 767.2057,-32.2795 768.803,-25.4642"/>
</g>
<!-- 13&#45;&gt;15 -->
<g id="edge48" class="edge">
<title>13&#45;&gt;15</title>
<path fill="none" stroke="#c0c0c0" stroke-width="2" d="M690.7189,-431.8314C675.3702,-422.6221 656.5502,-411.3301 640.1177,-401.4706"/>
<polygon fill="#c0c0c0" stroke="#c0c0c0" stroke-width="2" points="641.6471,-398.3066 631.2714,-396.1628 638.0456,-404.3091 641.6471,-398.3066"/>
</g>
<!-- 14&#45;&gt;0 -->
<g id="edge6" class="edge">
<title>14&#45;&gt;0</title>
<path fill="none" stroke="#c0c0c0" stroke-width="2" d="M1017.1712,-431.8191C1015.9996,-404.5085 1014,-351.2675 1014,-306 1014,-306 1014,-306 1014,-162 1014,-112.6587 990.1702,-99.1953 949,-72 919.7667,-52.6898 829.2035,-35.8727 768.3377,-26.3351"/>
<polygon fill="#c0c0c0" stroke="#c0c0c0" stroke-width="2" points="768.5068,-22.8198 758.09,-24.7538 767.4393,-29.7379 768.5068,-22.8198"/>
</g>
<!-- 15&#45;&gt;0 -->
<g id="edge7" class="edge">
<title>15&#45;&gt;0</title>
<path fill="none" stroke="#c0c0c0" stroke-width="2" d="M659.834,-362.2037C746.1565,-337.2661 897,-286.2184 897,-234 897,-234 897,-234 897,-162 897,-95.9005 822.748,-55.9262 767.8215,-35.3983"/>
<polygon fill="#c0c0c0" stroke="#c0c0c0" stroke-width="2" points="768.7515,-32.013 758.1571,-31.9096 766.3747,-38.5972 768.7515,-32.013"/>
</g>
<!-- 16 -->
<g id="node17" class="node">
<title>16</title>
<path fill="none" stroke="#d85656" stroke-width="2" d="M563.5,-324C563.5,-324 498.5,-324 498.5,-324 492.5,-324 486.5,-318 486.5,-312 486.5,-312 486.5,-300 486.5,-300 486.5,-294 492.5,-288 498.5,-288 498.5,-288 563.5,-288 563.5,-288 569.5,-288 575.5,-294 575.5,-300 575.5,-300 575.5,-312 575.5,-312 575.5,-318 569.5,-324 563.5,-324"/>
<text text-anchor="middle" x="531" y="-303.5" font-family="sans" font-size="10.00" fill="#000000">count_variants</text>
</g>
<!-- 15&#45;&gt;16 -->
<g id="edge49" class="edge">
<title>15&#45;&gt;16</title>
<path fill="none" stroke="#c0c0c0" stroke-width="2" d="M583.336,-359.8314C575.0268,-351.2848 564.9736,-340.9443 555.9082,-331.6198"/>
<polygon fill="#c0c0c0" stroke="#c0c0c0" stroke-width="2" points="558.3821,-329.1435 548.9018,-324.4133 553.3631,-334.023 558.3821,-329.1435"/>
</g>
<!-- 17 -->
<g id="node18" class="node">
<title>17</title>
<path fill="none" stroke="#56c1d8" stroke-width="2" d="M486.5,-252C486.5,-252 397.5,-252 397.5,-252 391.5,-252 385.5,-246 385.5,-240 385.5,-240 385.5,-228 385.5,-228 385.5,-222 391.5,-216 397.5,-216 397.5,-216 486.5,-216 486.5,-216 492.5,-216 498.5,-222 498.5,-228 498.5,-228 498.5,-240 498.5,-240 498.5,-246 492.5,-252 486.5,-252"/>
<text text-anchor="middle" x="442" y="-231.5" font-family="sans" font-size="10.00" fill="#000000">fit_titrations_hDPP4</text>
</g>
<!-- 15&#45;&gt;17 -->
<g id="edge50" class="edge">
<title>15&#45;&gt;17</title>
<path fill="none" stroke="#c0c0c0" stroke-width="2" d="M542.2051,-363.0575C519.3857,-354.7529 494.5709,-342.285 477,-324 460.6547,-306.9904 451.7038,-281.489 446.9567,-261.9697"/>
<polygon fill="#c0c0c0" stroke="#c0c0c0" stroke-width="2" points="450.3542,-261.1229 444.7861,-252.1092 443.5179,-262.6278 450.3542,-261.1229"/>
</g>
<!-- 18 -->
<g id="node19" class="node">
<title>18</title>
<path fill="none" stroke="#56d86b" stroke-width="2" d="M662.5,-252C662.5,-252 567.5,-252 567.5,-252 561.5,-252 555.5,-246 555.5,-240 555.5,-240 555.5,-228 555.5,-228 555.5,-222 561.5,-216 567.5,-216 567.5,-216 662.5,-216 662.5,-216 668.5,-216 674.5,-222 674.5,-228 674.5,-228 674.5,-240 674.5,-240 674.5,-246 668.5,-252 662.5,-252"/>
<text text-anchor="middle" x="615" y="-231.5" font-family="sans" font-size="10.00" fill="#000000">calculate_expression</text>
</g>
<!-- 15&#45;&gt;18 -->
<g id="edge52" class="edge">
<title>15&#45;&gt;18</title>
<path fill="none" stroke="#c0c0c0" stroke-width="2" d="M602.7731,-359.7623C605.161,-335.201 609.4343,-291.2474 612.2434,-262.3541"/>
<polygon fill="#c0c0c0" stroke="#c0c0c0" stroke-width="2" points="615.7571,-262.3814 613.2413,-252.0896 608.79,-261.704 615.7571,-262.3814"/>
</g>
<!-- 16&#45;&gt;0 -->
<g id="edge8" class="edge">
<title>16&#45;&gt;0</title>
<path fill="none" stroke="#c0c0c0" stroke-width="2" d="M527.3108,-287.7166C523.3164,-269.2775 516.2553,-240.1616 507,-216 482.4935,-152.0237 408.8028,-125.1745 452,-72 476.6667,-41.636 583.4643,-27.7438 651.6859,-21.8651"/>
<polygon fill="#c0c0c0" stroke="#c0c0c0" stroke-width="2" points="652.1938,-25.3351 661.871,-21.022 651.6163,-18.359 652.1938,-25.3351"/>
</g>
<!-- 16&#45;&gt;17 -->
<g id="edge51" class="edge">
<title>16&#45;&gt;17</title>
<path fill="none" stroke="#c0c0c0" stroke-width="2" d="M508.5415,-287.8314C497.5795,-278.9632 484.2301,-268.1637 472.3735,-258.5718"/>
<polygon fill="#c0c0c0" stroke="#c0c0c0" stroke-width="2" points="474.4271,-255.7313 464.4513,-252.1628 470.0245,-261.1734 474.4271,-255.7313"/>
</g>
<!-- 16&#45;&gt;18 -->
<g id="edge53" class="edge">
<title>16&#45;&gt;18</title>
<path fill="none" stroke="#c0c0c0" stroke-width="2" d="M552.1967,-287.8314C562.4434,-279.0485 574.9003,-268.3712 586.0097,-258.8489"/>
<polygon fill="#c0c0c0" stroke="#c0c0c0" stroke-width="2" points="588.4952,-261.3282 593.81,-252.1628 583.9397,-256.0134 588.4952,-261.3282"/>
</g>
<!-- 17&#45;&gt;0 -->
<g id="edge9" class="edge">
<title>17&#45;&gt;0</title>
<path fill="none" stroke="#c0c0c0" stroke-width="2" d="M431.4585,-215.7832C414.0312,-182.9994 384.4011,-113.61 419,-72 447.9839,-37.1428 575.2612,-24.6827 651.5627,-20.3047"/>
<polygon fill="#c0c0c0" stroke="#c0c0c0" stroke-width="2" points="652.1799,-23.7765 661.9753,-19.7391 651.8001,-16.7868 652.1799,-23.7765"/>
</g>
<!-- 19 -->
<g id="node20" class="node">
<title>19</title>
<path fill="none" stroke="#569ad8" stroke-width="2" d="M650,-180C650,-180 580,-180 580,-180 574,-180 568,-174 568,-168 568,-168 568,-156 568,-156 568,-150 574,-144 580,-144 580,-144 650,-144 650,-144 656,-144 662,-150 662,-156 662,-156 662,-168 662,-168 662,-174 656,-180 650,-180"/>
<text text-anchor="middle" x="615" y="-159.5" font-family="sans" font-size="10.00" fill="#000000">collapse_scores</text>
</g>
<!-- 17&#45;&gt;19 -->
<g id="edge54" class="edge">
<title>17&#45;&gt;19</title>
<path fill="none" stroke="#c0c0c0" stroke-width="2" d="M485.6552,-215.8314C508.8958,-206.159 537.6568,-194.1891 562.1523,-183.9944"/>
<polygon fill="#c0c0c0" stroke="#c0c0c0" stroke-width="2" points="563.7712,-187.1117 571.6587,-180.038 561.0815,-180.6491 563.7712,-187.1117"/>
</g>
<!-- 18&#45;&gt;0 -->
<g id="edge10" class="edge">
<title>18&#45;&gt;0</title>
<path fill="none" stroke="#c0c0c0" stroke-width="2" d="M673.3892,-215.8715C722.0409,-197.3191 788.1801,-163.2605 819,-108 826.7934,-94.0263 827.4367,-85.5949 819,-72 807.4161,-53.3336 787.2483,-40.9209 767.3856,-32.7617"/>
<polygon fill="#c0c0c0" stroke="#c0c0c0" stroke-width="2" points="768.5979,-29.4782 758.0068,-29.1973 766.111,-36.0216 768.5979,-29.4782"/>
</g>
<!-- 18&#45;&gt;19 -->
<g id="edge55" class="edge">
<title>18&#45;&gt;19</title>
<path fill="none" stroke="#c0c0c0" stroke-width="2" d="M615,-215.8314C615,-208.131 615,-198.9743 615,-190.4166"/>
<polygon fill="#c0c0c0" stroke="#c0c0c0" stroke-width="2" points="618.5001,-190.4132 615,-180.4133 611.5001,-190.4133 618.5001,-190.4132"/>
</g>
<!-- 19&#45;&gt;0 -->
<g id="edge11" class="edge">
<title>19&#45;&gt;0</title>
<path fill="none" stroke="#c0c0c0" stroke-width="2" d="M662.2852,-154.9044C711.9614,-146.3694 785.1925,-130.3477 802,-108 811.6171,-95.2128 809.9502,-85.885 802,-72 794.0736,-58.1566 781.0663,-47.5156 767.2944,-39.4892"/>
<polygon fill="#c0c0c0" stroke="#c0c0c0" stroke-width="2" points="768.6442,-36.2411 758.1796,-34.585 765.3274,-42.4054 768.6442,-36.2411"/>
</g>
<!-- 20 -->
<g id="node21" class="node">
<title>20</title>
<path fill="none" stroke="#d89c56" stroke-width="2" d="M597,-108C597,-108 473,-108 473,-108 467,-108 461,-102 461,-96 461,-96 461,-84 461,-84 461,-78 467,-72 473,-72 473,-72 597,-72 597,-72 603,-72 609,-78 609,-84 609,-84 609,-96 609,-96 609,-102 603,-108 597,-108"/>
<text text-anchor="middle" x="535" y="-87.5" font-family="sans" font-size="10.00" fill="#000000">interactive_heatmap_delta</text>
</g>
<!-- 19&#45;&gt;20 -->
<g id="edge56" class="edge">
<title>19&#45;&gt;20</title>
<path fill="none" stroke="#c0c0c0" stroke-width="2" d="M594.8126,-143.8314C585.1486,-135.1337 573.4204,-124.5783 562.9184,-115.1265"/>
<polygon fill="#c0c0c0" stroke="#c0c0c0" stroke-width="2" points="564.9553,-112.251 555.1809,-108.1628 560.2725,-117.454 564.9553,-112.251"/>
</g>
<!-- 21 -->
<g id="node22" class="node">
<title>21</title>
<path fill="none" stroke="#88d856" stroke-width="2" d="M780.5,-108C780.5,-108 639.5,-108 639.5,-108 633.5,-108 627.5,-102 627.5,-96 627.5,-96 627.5,-84 627.5,-84 627.5,-78 633.5,-72 639.5,-72 639.5,-72 780.5,-72 780.5,-72 786.5,-72 792.5,-78 792.5,-84 792.5,-84 792.5,-96 792.5,-96 792.5,-102 786.5,-108 780.5,-108"/>
<text text-anchor="middle" x="710" y="-87.5" font-family="sans" font-size="10.00" fill="#000000">interactive_heatmap_absolute</text>
</g>
<!-- 19&#45;&gt;21 -->
<g id="edge57" class="edge">
<title>19&#45;&gt;21</title>
<path fill="none" stroke="#c0c0c0" stroke-width="2" d="M638.9725,-143.8314C650.7861,-134.8779 665.1972,-123.9558 677.9435,-114.2955"/>
<polygon fill="#c0c0c0" stroke="#c0c0c0" stroke-width="2" points="680.1795,-116.9925 686.0352,-108.1628 675.9514,-111.4137 680.1795,-116.9925"/>
</g>
<!-- 20&#45;&gt;0 -->
<g id="edge12" class="edge">
<title>20&#45;&gt;0</title>
<path fill="none" stroke="#c0c0c0" stroke-width="2" d="M579.1599,-71.8314C602.7732,-62.1162 632.0202,-50.0831 656.87,-39.8592"/>
<polygon fill="#c0c0c0" stroke="#c0c0c0" stroke-width="2" points="658.2415,-43.0797 666.1577,-36.038 655.5781,-36.6061 658.2415,-43.0797"/>
</g>
<!-- 21&#45;&gt;0 -->
<g id="edge13" class="edge">
<title>21&#45;&gt;0</title>
<path fill="none" stroke="#c0c0c0" stroke-width="2" d="M710,-71.8314C710,-64.131 710,-54.9743 710,-46.4166"/>
<polygon fill="#c0c0c0" stroke="#c0c0c0" stroke-width="2" points="713.5001,-46.4132 710,-36.4133 706.5001,-46.4133 713.5001,-46.4132"/>
</g>
</g>
</svg>
