<?xml version="1.0" encoding="UTF-8" standalone="no"?>
<!DOCTYPE svg PUBLIC "-//W3C//DTD SVG 1.1//EN"
 "http://www.w3.org/Graphics/SVG/1.1/DTD/svg11.dtd">
<!-- Generated by graphviz version 2.50.0 (20220708.1628)
 -->
<!-- Title: snakemake_dag Pages: 1 -->
<svg width="814pt" height="476pt"
 viewBox="0.00 0.00 814.00 476.00" xmlns="http://www.w3.org/2000/svg" xmlns:xlink="http://www.w3.org/1999/xlink">
<g id="graph0" class="graph" transform="scale(1 1) rotate(0) translate(4 472)">
<title>snakemake_dag</title>
<polygon fill="white" stroke="transparent" points="-4,4 -4,-472 810,-472 810,4 -4,4"/>
<!-- 0 -->
<g id="node1" class="node">
<title>0</title>
<path fill="none" stroke="#d85656" stroke-width="2" d="M391.5,-36C391.5,-36 325.5,-36 325.5,-36 319.5,-36 313.5,-30 313.5,-24 313.5,-24 313.5,-12 313.5,-12 313.5,-6 319.5,0 325.5,0 325.5,0 391.5,0 391.5,0 397.5,0 403.5,-6 403.5,-12 403.5,-12 403.5,-24 403.5,-24 403.5,-30 397.5,-36 391.5,-36"/>
<text text-anchor="middle" x="358.5" y="-15.5" font-family="sans" font-size="10.00">make_summary</text>
</g>
<!-- 1 -->
<g id="node2" class="node">
<title>1</title>
<path fill="none" stroke="#d6d856" stroke-width="2" d="M135.5,-180C135.5,-180 95.5,-180 95.5,-180 89.5,-180 83.5,-174 83.5,-168 83.5,-168 83.5,-156 83.5,-156 83.5,-150 89.5,-144 95.5,-144 95.5,-144 135.5,-144 135.5,-144 141.5,-144 147.5,-150 147.5,-156 147.5,-156 147.5,-168 147.5,-168 147.5,-174 141.5,-180 135.5,-180"/>
<text text-anchor="middle" x="115.5" y="-159.5" font-family="sans" font-size="10.00">make_dag</text>
</g>
<!-- 1&#45;&gt;0 -->
<g id="edge1" class="edge">
<title>1&#45;&gt;0</title>
<path fill="none" stroke="grey" stroke-width="2" d="M104.35,-143.96C93.13,-124.45 79.69,-92.55 96.5,-72 122.07,-40.74 234,-27.49 303.02,-22.2"/>
<polygon fill="grey" stroke="grey" stroke-width="2" points="303.58,-25.67 313.3,-21.45 303.07,-18.69 303.58,-25.67"/>
</g>
<!-- 2 -->
<g id="node3" class="node">
<title>2</title>
<path fill="none" stroke="#d8ac56" stroke-width="2" d="M189.5,-108C189.5,-108 117.5,-108 117.5,-108 111.5,-108 105.5,-102 105.5,-96 105.5,-96 105.5,-84 105.5,-84 105.5,-78 111.5,-72 117.5,-72 117.5,-72 189.5,-72 189.5,-72 195.5,-72 201.5,-78 201.5,-84 201.5,-84 201.5,-96 201.5,-96 201.5,-102 195.5,-108 189.5,-108"/>
<text text-anchor="middle" x="153.5" y="-87.5" font-family="sans" font-size="10.00">save_pinned_env</text>
</g>
<!-- 1&#45;&gt;2 -->
<g id="edge11" class="edge">
<title>1&#45;&gt;2</title>
<path fill="none" stroke="grey" stroke-width="2" d="M124.89,-143.7C129.26,-135.64 134.56,-125.89 139.4,-116.98"/>
<polygon fill="grey" stroke="grey" stroke-width="2" points="142.52,-118.56 144.21,-108.1 136.37,-115.22 142.52,-118.56"/>
</g>
<!-- 2&#45;&gt;0 -->
<g id="edge2" class="edge">
<title>2&#45;&gt;0</title>
<path fill="none" stroke="grey" stroke-width="2" d="M201.56,-72.59C232.13,-62.15 271.79,-48.61 303.6,-37.75"/>
<polygon fill="grey" stroke="grey" stroke-width="2" points="304.87,-41.01 313.2,-34.47 302.6,-34.39 304.87,-41.01"/>
</g>
<!-- 3 -->
<g id="node4" class="node">
<title>3</title>
<path fill="none" stroke="#afd856" stroke-width="2" d="M377.5,-396C377.5,-396 301.5,-396 301.5,-396 295.5,-396 289.5,-390 289.5,-384 289.5,-384 289.5,-372 289.5,-372 289.5,-366 295.5,-360 301.5,-360 301.5,-360 377.5,-360 377.5,-360 383.5,-360 389.5,-366 389.5,-372 389.5,-372 389.5,-384 389.5,-384 389.5,-390 383.5,-396 377.5,-396"/>
<text text-anchor="middle" x="339.5" y="-375.5" font-family="sans" font-size="10.00">process_ccs_MERS</text>
</g>
<!-- 3&#45;&gt;0 -->
<g id="edge3" class="edge">
<title>3&#45;&gt;0</title>
<path fill="none" stroke="grey" stroke-width="2" d="M313.71,-359.94C281.2,-336.16 229.5,-289.73 229.5,-235 229.5,-235 229.5,-235 229.5,-161 229.5,-107.81 279.7,-65.72 317.47,-41.58"/>
<polygon fill="grey" stroke="grey" stroke-width="2" points="319.62,-44.37 326.28,-36.13 315.94,-38.42 319.62,-44.37"/>
</g>
<!-- 9 -->
<g id="node10" class="node">
<title>9</title>
<path fill="none" stroke="#5682d8" stroke-width="2" d="M391.5,-324C391.5,-324 331.5,-324 331.5,-324 325.5,-324 319.5,-318 319.5,-312 319.5,-312 319.5,-300 319.5,-300 319.5,-294 325.5,-288 331.5,-288 331.5,-288 391.5,-288 391.5,-288 397.5,-288 403.5,-294 403.5,-300 403.5,-300 403.5,-312 403.5,-312 403.5,-318 397.5,-324 391.5,-324"/>
<text text-anchor="middle" x="361.5" y="-303.5" font-family="sans" font-size="10.00">count_variants</text>
</g>
<!-- 3&#45;&gt;9 -->
<g id="edge20" class="edge">
<title>3&#45;&gt;9</title>
<path fill="none" stroke="grey" stroke-width="2" d="M344.94,-359.7C347.39,-351.9 350.34,-342.51 353.07,-333.83"/>
<polygon fill="grey" stroke="grey" stroke-width="2" points="356.46,-334.69 356.12,-324.1 349.79,-332.59 356.46,-334.69"/>
</g>
<!-- 10 -->
<g id="node11" class="node">
<title>10</title>
<path fill="none" stroke="#59d856" stroke-width="2" d="M539.5,-252C539.5,-252 455.5,-252 455.5,-252 449.5,-252 443.5,-246 443.5,-240 443.5,-240 443.5,-228 443.5,-228 443.5,-222 449.5,-216 455.5,-216 455.5,-216 539.5,-216 539.5,-216 545.5,-216 551.5,-222 551.5,-228 551.5,-228 551.5,-240 551.5,-240 551.5,-246 545.5,-252 539.5,-252"/>
<text text-anchor="middle" x="497.5" y="-231.5" font-family="sans" font-size="10.00">fit_titrations_hDPP4</text>
</g>
<!-- 3&#45;&gt;10 -->
<g id="edge22" class="edge">
<title>3&#45;&gt;10</title>
<path fill="none" stroke="grey" stroke-width="2" d="M365.36,-359.92C379.72,-350.03 397.64,-336.99 412.5,-324 435.48,-303.91 459.29,-278.53 475.84,-260.02"/>
<polygon fill="grey" stroke="grey" stroke-width="2" points="478.67,-262.09 482.68,-252.29 473.43,-257.45 478.67,-262.09"/>
</g>
<!-- 11 -->
<g id="node12" class="node">
<title>11</title>
<path fill="none" stroke="#56a9d8" stroke-width="2" d="M404.5,-252C404.5,-252 318.5,-252 318.5,-252 312.5,-252 306.5,-246 306.5,-240 306.5,-240 306.5,-228 306.5,-228 306.5,-222 312.5,-216 318.5,-216 318.5,-216 404.5,-216 404.5,-216 410.5,-216 416.5,-222 416.5,-228 416.5,-228 416.5,-240 416.5,-240 416.5,-246 410.5,-252 404.5,-252"/>
<text text-anchor="middle" x="361.5" y="-231.5" font-family="sans" font-size="10.00">calculate_expression</text>
</g>
<!-- 3&#45;&gt;11 -->
<g id="edge25" class="edge">
<title>3&#45;&gt;11</title>
<path fill="none" stroke="grey" stroke-width="2" d="M326.66,-359.69C314.89,-341.57 300.66,-312.42 310.5,-288 314.85,-277.21 322.56,-267.39 330.69,-259.21"/>
<polygon fill="grey" stroke="grey" stroke-width="2" points="333.29,-261.57 338.2,-252.18 328.5,-256.46 333.29,-261.57"/>
</g>
<!-- 4 -->
<g id="node5" class="node">
<title>4</title>
<path fill="none" stroke="#56d8d8" stroke-width="2" d="M794,-468C794,-468 639,-468 639,-468 633,-468 627,-462 627,-456 627,-456 627,-444 627,-444 627,-438 633,-432 639,-432 639,-432 794,-432 794,-432 800,-432 806,-438 806,-444 806,-444 806,-456 806,-456 806,-462 800,-468 794,-468"/>
<text text-anchor="middle" x="716.5" y="-453" font-family="sans" font-size="10.00">get_ccs</text>
<text text-anchor="middle" x="716.5" y="-442" font-family="sans" font-size="10.00">pacbioRun: lib51_53_MERS_230124</text>
</g>
<!-- 4&#45;&gt;3 -->
<g id="edge12" class="edge">
<title>4&#45;&gt;3</title>
<path fill="none" stroke="grey" stroke-width="2" d="M626.72,-433.14C554.83,-420.39 459.88,-403.42 421.5,-396 414.43,-394.63 407.04,-393.16 399.7,-391.67"/>
<polygon fill="grey" stroke="grey" stroke-width="2" points="400.26,-388.21 389.76,-389.64 398.86,-395.07 400.26,-388.21"/>
</g>
<!-- 8 -->
<g id="node9" class="node">
<title>8</title>
<path fill="none" stroke="#d88556" stroke-width="2" d="M535,-396C535,-396 442,-396 442,-396 436,-396 430,-390 430,-384 430,-384 430,-372 430,-372 430,-366 436,-360 442,-360 442,-360 535,-360 535,-360 541,-360 547,-366 547,-372 547,-372 547,-384 547,-384 547,-390 541,-396 535,-396"/>
<text text-anchor="middle" x="488.5" y="-375.5" font-family="sans" font-size="10.00">process_ccs_PDF2180</text>
</g>
<!-- 4&#45;&gt;8 -->
<g id="edge16" class="edge">
<title>4&#45;&gt;8</title>
<path fill="none" stroke="grey" stroke-width="2" d="M661.02,-431.97C628.74,-422.06 587.89,-409.51 554.04,-399.12"/>
<polygon fill="grey" stroke="grey" stroke-width="2" points="554.82,-395.7 544.23,-396.11 552.76,-402.39 554.82,-395.7"/>
</g>
<!-- 5 -->
<g id="node6" class="node">
<title>5</title>
<path fill="none" stroke="#56d8d8" stroke-width="2" d="M167,-468C167,-468 12,-468 12,-468 6,-468 0,-462 0,-456 0,-456 0,-444 0,-444 0,-438 6,-432 12,-432 12,-432 167,-432 167,-432 173,-432 179,-438 179,-444 179,-444 179,-456 179,-456 179,-462 173,-468 167,-468"/>
<text text-anchor="middle" x="89.5" y="-453" font-family="sans" font-size="10.00">get_ccs</text>
<text text-anchor="middle" x="89.5" y="-442" font-family="sans" font-size="10.00">pacbioRun: lib52_54_MERS_230124</text>
</g>
<!-- 5&#45;&gt;3 -->
<g id="edge13" class="edge">
<title>5&#45;&gt;3</title>
<path fill="none" stroke="grey" stroke-width="2" d="M150.34,-431.97C189.64,-420.96 240.56,-406.7 279.67,-395.75"/>
<polygon fill="grey" stroke="grey" stroke-width="2" points="280.66,-399.11 289.34,-393.04 278.77,-392.37 280.66,-399.11"/>
</g>
<!-- 5&#45;&gt;8 -->
<g id="edge17" class="edge">
<title>5&#45;&gt;8</title>
<path fill="none" stroke="grey" stroke-width="2" d="M179.22,-433.43C182.01,-432.94 184.78,-432.47 187.5,-432 281.26,-415.87 304.87,-412.83 398.5,-396 405.49,-394.74 412.79,-393.41 420.07,-392.06"/>
<polygon fill="grey" stroke="grey" stroke-width="2" points="420.76,-395.49 429.95,-390.22 419.48,-388.61 420.76,-395.49"/>
</g>
<!-- 6 -->
<g id="node7" class="node">
<title>6</title>
<path fill="none" stroke="#56d8d8" stroke-width="2" d="M382,-468C382,-468 209,-468 209,-468 203,-468 197,-462 197,-456 197,-456 197,-444 197,-444 197,-438 203,-432 209,-432 209,-432 382,-432 382,-432 388,-432 394,-438 394,-444 394,-444 394,-456 394,-456 394,-462 388,-468 382,-468"/>
<text text-anchor="middle" x="295.5" y="-453" font-family="sans" font-size="10.00">get_ccs</text>
<text text-anchor="middle" x="295.5" y="-442" font-family="sans" font-size="10.00">pacbioRun: lib51_53_PDF2180_230124</text>
</g>
<!-- 6&#45;&gt;3 -->
<g id="edge14" class="edge">
<title>6&#45;&gt;3</title>
<path fill="none" stroke="grey" stroke-width="2" d="M306.38,-431.7C311.49,-423.56 317.7,-413.69 323.34,-404.7"/>
<polygon fill="grey" stroke="grey" stroke-width="2" points="326.39,-406.43 328.75,-396.1 320.46,-402.71 326.39,-406.43"/>
</g>
<!-- 6&#45;&gt;8 -->
<g id="edge18" class="edge">
<title>6&#45;&gt;8</title>
<path fill="none" stroke="grey" stroke-width="2" d="M342.71,-431.88C369.57,-422.14 403.38,-409.87 431.68,-399.61"/>
<polygon fill="grey" stroke="grey" stroke-width="2" points="433.23,-402.77 441.44,-396.07 430.85,-396.19 433.23,-402.77"/>
</g>
<!-- 7 -->
<g id="node8" class="node">
<title>7</title>
<path fill="none" stroke="#56d8d8" stroke-width="2" d="M597,-468C597,-468 424,-468 424,-468 418,-468 412,-462 412,-456 412,-456 412,-444 412,-444 412,-438 418,-432 424,-432 424,-432 597,-432 597,-432 603,-432 609,-438 609,-444 609,-444 609,-456 609,-456 609,-462 603,-468 597,-468"/>
<text text-anchor="middle" x="510.5" y="-453" font-family="sans" font-size="10.00">get_ccs</text>
<text text-anchor="middle" x="510.5" y="-442" font-family="sans" font-size="10.00">pacbioRun: lib52_54_PDF2180_230124</text>
</g>
<!-- 7&#45;&gt;3 -->
<g id="edge15" class="edge">
<title>7&#45;&gt;3</title>
<path fill="none" stroke="grey" stroke-width="2" d="M468.67,-431.88C445.08,-422.22 415.44,-410.09 390.5,-399.88"/>
<polygon fill="grey" stroke="grey" stroke-width="2" points="391.78,-396.62 381.2,-396.07 389.12,-403.1 391.78,-396.62"/>
</g>
<!-- 7&#45;&gt;8 -->
<g id="edge19" class="edge">
<title>7&#45;&gt;8</title>
<path fill="none" stroke="grey" stroke-width="2" d="M505.06,-431.7C502.61,-423.9 499.66,-414.51 496.93,-405.83"/>
<polygon fill="grey" stroke="grey" stroke-width="2" points="500.21,-404.59 493.88,-396.1 493.54,-406.69 500.21,-404.59"/>
</g>
<!-- 8&#45;&gt;0 -->
<g id="edge4" class="edge">
<title>8&#45;&gt;0</title>
<path fill="none" stroke="grey" stroke-width="2" d="M547.19,-371.16C624.71,-359.84 751.5,-327.23 751.5,-235 751.5,-235 751.5,-235 751.5,-161 751.5,-118.16 748.28,-98.34 714.5,-72 668.7,-36.29 501.71,-24.49 413.67,-20.71"/>
<polygon fill="grey" stroke="grey" stroke-width="2" points="413.73,-17.21 403.6,-20.3 413.45,-24.21 413.73,-17.21"/>
</g>
<!-- 8&#45;&gt;9 -->
<g id="edge21" class="edge">
<title>8&#45;&gt;9</title>
<path fill="none" stroke="grey" stroke-width="2" d="M457.43,-359.88C440.67,-350.64 419.79,-339.13 401.8,-329.21"/>
<polygon fill="grey" stroke="grey" stroke-width="2" points="403.13,-325.95 392.69,-324.19 399.76,-332.08 403.13,-325.95"/>
</g>
<!-- 8&#45;&gt;10 -->
<g id="edge23" class="edge">
<title>8&#45;&gt;10</title>
<path fill="none" stroke="grey" stroke-width="2" d="M489.59,-359.87C491.12,-335.67 493.94,-291.21 495.76,-262.39"/>
<polygon fill="grey" stroke="grey" stroke-width="2" points="499.27,-262.39 496.41,-252.19 492.28,-261.95 499.27,-262.39"/>
</g>
<!-- 8&#45;&gt;11 -->
<g id="edge26" class="edge">
<title>8&#45;&gt;11</title>
<path fill="none" stroke="grey" stroke-width="2" d="M474.23,-359.68C459.17,-341.55 434.61,-312.39 412.5,-288 404.01,-278.63 394.46,-268.59 385.94,-259.78"/>
<polygon fill="grey" stroke="grey" stroke-width="2" points="388.25,-257.14 378.77,-252.42 383.23,-262.03 388.25,-257.14"/>
</g>
<!-- 9&#45;&gt;0 -->
<g id="edge5" class="edge">
<title>9&#45;&gt;0</title>
<path fill="none" stroke="grey" stroke-width="2" d="M330.73,-287.91C317.96,-279.02 304.5,-266.88 297.5,-252 280.32,-215.47 274.62,-170.88 316.5,-72 320.8,-61.84 327.61,-52 334.49,-43.61"/>
<polygon fill="grey" stroke="grey" stroke-width="2" points="337.14,-45.9 341.04,-36.05 331.85,-41.32 337.14,-45.9"/>
</g>
<!-- 9&#45;&gt;10 -->
<g id="edge24" class="edge">
<title>9&#45;&gt;10</title>
<path fill="none" stroke="grey" stroke-width="2" d="M394.77,-287.88C412.96,-278.51 435.69,-266.81 455.14,-256.8"/>
<polygon fill="grey" stroke="grey" stroke-width="2" points="456.81,-259.88 464.1,-252.19 453.61,-253.65 456.81,-259.88"/>
</g>
<!-- 9&#45;&gt;11 -->
<g id="edge27" class="edge">
<title>9&#45;&gt;11</title>
<path fill="none" stroke="grey" stroke-width="2" d="M361.5,-287.7C361.5,-279.98 361.5,-270.71 361.5,-262.11"/>
<polygon fill="grey" stroke="grey" stroke-width="2" points="365,-262.1 361.5,-252.1 358,-262.1 365,-262.1"/>
</g>
<!-- 10&#45;&gt;0 -->
<g id="edge6" class="edge">
<title>10&#45;&gt;0</title>
<path fill="none" stroke="grey" stroke-width="2" d="M549.84,-215.96C624.45,-189.01 746.87,-133.28 694.5,-72 659.06,-30.53 499.79,-21.31 413.87,-19.39"/>
<polygon fill="grey" stroke="grey" stroke-width="2" points="413.84,-15.89 403.77,-19.19 413.7,-22.89 413.84,-15.89"/>
</g>
<!-- 12 -->
<g id="node13" class="node">
<title>12</title>
<path fill="none" stroke="#56d882" stroke-width="2" d="M529,-180C529,-180 466,-180 466,-180 460,-180 454,-174 454,-168 454,-168 454,-156 454,-156 454,-150 460,-144 466,-144 466,-144 529,-144 529,-144 535,-144 541,-150 541,-156 541,-156 541,-168 541,-168 541,-174 535,-180 529,-180"/>
<text text-anchor="middle" x="497.5" y="-159.5" font-family="sans" font-size="10.00">collapse_scores</text>
</g>
<!-- 10&#45;&gt;12 -->
<g id="edge28" class="edge">
<title>10&#45;&gt;12</title>
<path fill="none" stroke="grey" stroke-width="2" d="M497.5,-215.7C497.5,-207.98 497.5,-198.71 497.5,-190.11"/>
<polygon fill="grey" stroke="grey" stroke-width="2" points="501,-190.1 497.5,-180.1 494,-190.1 501,-190.1"/>
</g>
<!-- 11&#45;&gt;0 -->
<g id="edge7" class="edge">
<title>11&#45;&gt;0</title>
<path fill="none" stroke="grey" stroke-width="2" d="M351.84,-215.91C336.4,-186.32 309.33,-123.74 324.5,-72 327.3,-62.45 332.41,-52.98 337.83,-44.76"/>
<polygon fill="grey" stroke="grey" stroke-width="2" points="340.85,-46.56 343.75,-36.37 335.12,-42.52 340.85,-46.56"/>
</g>
<!-- 11&#45;&gt;12 -->
<g id="edge29" class="edge">
<title>11&#45;&gt;12</title>
<path fill="none" stroke="grey" stroke-width="2" d="M394.77,-215.88C412.96,-206.51 435.69,-194.81 455.14,-184.8"/>
<polygon fill="grey" stroke="grey" stroke-width="2" points="456.81,-187.88 464.1,-180.19 453.61,-181.65 456.81,-187.88"/>
</g>
<!-- 12&#45;&gt;0 -->
<g id="edge8" class="edge">
<title>12&#45;&gt;0</title>
<path fill="none" stroke="grey" stroke-width="2" d="M503.1,-143.91C508.27,-124.64 513.17,-93.23 498.5,-72 479.46,-44.43 444.09,-31.19 413.66,-24.83"/>
<polygon fill="grey" stroke="grey" stroke-width="2" points="414.04,-21.34 403.57,-22.93 412.75,-28.22 414.04,-21.34"/>
</g>
<!-- 13 -->
<g id="node14" class="node">
<title>13</title>
<path fill="none" stroke="#80d856" stroke-width="2" d="M673,-108C673,-108 558,-108 558,-108 552,-108 546,-102 546,-96 546,-96 546,-84 546,-84 546,-78 552,-72 558,-72 558,-72 673,-72 673,-72 679,-72 685,-78 685,-84 685,-84 685,-96 685,-96 685,-102 679,-108 673,-108"/>
<text text-anchor="middle" x="615.5" y="-87.5" font-family="sans" font-size="10.00">interactive_heatmap_delta</text>
</g>
<!-- 12&#45;&gt;13 -->
<g id="edge30" class="edge">
<title>12&#45;&gt;13</title>
<path fill="none" stroke="grey" stroke-width="2" d="M526.37,-143.88C541.79,-134.72 560.98,-123.34 577.6,-113.48"/>
<polygon fill="grey" stroke="grey" stroke-width="2" points="579.71,-116.3 586.52,-108.19 576.14,-110.28 579.71,-116.3"/>
</g>
<!-- 14 -->
<g id="node15" class="node">
<title>14</title>
<path fill="none" stroke="#56d8a9" stroke-width="2" d="M477,-108C477,-108 346,-108 346,-108 340,-108 334,-102 334,-96 334,-96 334,-84 334,-84 334,-78 340,-72 346,-72 346,-72 477,-72 477,-72 483,-72 489,-78 489,-84 489,-84 489,-96 489,-96 489,-102 483,-108 477,-108"/>
<text text-anchor="middle" x="411.5" y="-87.5" font-family="sans" font-size="10.00">interactive_heatmap_absolute</text>
</g>
<!-- 12&#45;&gt;14 -->
<g id="edge31" class="edge">
<title>12&#45;&gt;14</title>
<path fill="none" stroke="grey" stroke-width="2" d="M476.24,-143.7C465.41,-134.88 452.08,-124.03 440.34,-114.47"/>
<polygon fill="grey" stroke="grey" stroke-width="2" points="442.48,-111.7 432.51,-108.1 438.06,-117.13 442.48,-111.7"/>
</g>
<!-- 13&#45;&gt;0 -->
<g id="edge9" class="edge">
<title>13&#45;&gt;0</title>
<path fill="none" stroke="grey" stroke-width="2" d="M552.96,-71.97C510.27,-60.34 454.26,-45.08 413.32,-33.93"/>
<polygon fill="grey" stroke="grey" stroke-width="2" points="414.08,-30.51 403.51,-31.26 412.24,-37.27 414.08,-30.51"/>
</g>
<!-- 14&#45;&gt;0 -->
<g id="edge10" class="edge">
<title>14&#45;&gt;0</title>
<path fill="none" stroke="grey" stroke-width="2" d="M398.4,-71.7C392.11,-63.39 384.45,-53.28 377.54,-44.14"/>
<polygon fill="grey" stroke="grey" stroke-width="2" points="380.28,-41.96 371.45,-36.1 374.7,-46.19 380.28,-41.96"/>
</g>
</g>
</svg>
