<?xml version="1.0" encoding="UTF-8" standalone="no"?>
<!DOCTYPE svg PUBLIC "-//W3C//DTD SVG 1.1//EN"
 "http://www.w3.org/Graphics/SVG/1.1/DTD/svg11.dtd">
<!-- Generated by graphviz version 2.40.1 (0)
 -->
<!-- Title: snakemake_dag Pages: 1 -->
<svg width="774pt" height="476pt"
 viewBox="0.00 0.00 774.00 476.00" xmlns="http://www.w3.org/2000/svg" xmlns:xlink="http://www.w3.org/1999/xlink">
<g id="graph0" class="graph" transform="scale(1 1) rotate(0) translate(4 472)">
<title>snakemake_dag</title>
<polygon fill="#ffffff" stroke="transparent" points="-4,4 -4,-472 770,-472 770,4 -4,4"/>
<!-- 0 -->
<g id="node1" class="node">
<title>0</title>
<path fill="none" stroke="#59d856" stroke-width="2" d="M359,-36C359,-36 287,-36 287,-36 281,-36 275,-30 275,-24 275,-24 275,-12 275,-12 275,-6 281,0 287,0 287,0 359,0 359,0 365,0 371,-6 371,-12 371,-12 371,-24 371,-24 371,-30 365,-36 359,-36"/>
<text text-anchor="middle" x="323" y="-15.5" font-family="sans" font-size="10.00" fill="#000000">make_summary</text>
</g>
<!-- 1 -->
<g id="node2" class="node">
<title>1</title>
<path fill="none" stroke="#d88556" stroke-width="2" d="M96,-180C96,-180 52,-180 52,-180 46,-180 40,-174 40,-168 40,-168 40,-156 40,-156 40,-150 46,-144 52,-144 52,-144 96,-144 96,-144 102,-144 108,-150 108,-156 108,-156 108,-168 108,-168 108,-174 102,-180 96,-180"/>
<text text-anchor="middle" x="74" y="-159.5" font-family="sans" font-size="10.00" fill="#000000">make_dag</text>
</g>
<!-- 1&#45;&gt;0 -->
<g id="edge1" class="edge">
<title>1&#45;&gt;0</title>
<path fill="none" stroke="#c0c0c0" stroke-width="2" d="M61.5635,-143.7292C49.7914,-123.9431 36.2159,-92.4733 53,-72 79.2503,-39.9798 193.6068,-26.5681 264.8099,-21.2428"/>
<polygon fill="#c0c0c0" stroke="#c0c0c0" stroke-width="2" points="265.2619,-24.7195 274.9866,-20.5145 264.7622,-17.7373 265.2619,-24.7195"/>
</g>
<!-- 2 -->
<g id="node3" class="node">
<title>2</title>
<path fill="none" stroke="#d8ac56" stroke-width="2" d="M151.5,-108C151.5,-108 74.5,-108 74.5,-108 68.5,-108 62.5,-102 62.5,-96 62.5,-96 62.5,-84 62.5,-84 62.5,-78 68.5,-72 74.5,-72 74.5,-72 151.5,-72 151.5,-72 157.5,-72 163.5,-78 163.5,-84 163.5,-84 163.5,-96 163.5,-96 163.5,-102 157.5,-108 151.5,-108"/>
<text text-anchor="middle" x="113" y="-87.5" font-family="sans" font-size="10.00" fill="#000000">save_pinned_env</text>
</g>
<!-- 1&#45;&gt;2 -->
<g id="edge11" class="edge">
<title>1&#45;&gt;2</title>
<path fill="none" stroke="#c0c0c0" stroke-width="2" d="M83.8413,-143.8314C88.1957,-135.7925 93.4098,-126.1666 98.2169,-117.2918"/>
<polygon fill="#c0c0c0" stroke="#c0c0c0" stroke-width="2" points="101.3408,-118.8732 103.0261,-108.4133 95.1857,-115.5392 101.3408,-118.8732"/>
</g>
<!-- 2&#45;&gt;0 -->
<g id="edge2" class="edge">
<title>2&#45;&gt;0</title>
<path fill="none" stroke="#c0c0c0" stroke-width="2" d="M163.5675,-72.6626C194.1438,-62.1793 233.2322,-48.7775 265.0522,-37.8678"/>
<polygon fill="#c0c0c0" stroke="#c0c0c0" stroke-width="2" points="266.3523,-41.1222 274.6766,-34.568 264.082,-34.5005 266.3523,-41.1222"/>
</g>
<!-- 3 -->
<g id="node4" class="node">
<title>3</title>
<path fill="none" stroke="#56d8d8" stroke-width="2" d="M357.5,-396C357.5,-396 274.5,-396 274.5,-396 268.5,-396 262.5,-390 262.5,-384 262.5,-384 262.5,-372 262.5,-372 262.5,-366 268.5,-360 274.5,-360 274.5,-360 357.5,-360 357.5,-360 363.5,-360 369.5,-366 369.5,-372 369.5,-372 369.5,-384 369.5,-384 369.5,-390 363.5,-396 357.5,-396"/>
<text text-anchor="middle" x="316" y="-375.5" font-family="sans" font-size="10.00" fill="#000000">process_ccs_MERS</text>
</g>
<!-- 3&#45;&gt;0 -->
<g id="edge3" class="edge">
<title>3&#45;&gt;0</title>
<path fill="none" stroke="#c0c0c0" stroke-width="2" d="M284.7096,-359.9914C247.9756,-336.2432 192,-290.7455 192,-234 192,-234 192,-234 192,-162 192,-108.6527 241.8032,-66.3462 279.9937,-41.7467"/>
<polygon fill="#c0c0c0" stroke="#c0c0c0" stroke-width="2" points="282.292,-44.4382 288.9233,-36.1752 278.5865,-38.4994 282.292,-44.4382"/>
</g>
<!-- 9 -->
<g id="node10" class="node">
<title>9</title>
<path fill="none" stroke="#d6d856" stroke-width="2" d="M369.5,-324C369.5,-324 304.5,-324 304.5,-324 298.5,-324 292.5,-318 292.5,-312 292.5,-312 292.5,-300 292.5,-300 292.5,-294 298.5,-288 304.5,-288 304.5,-288 369.5,-288 369.5,-288 375.5,-288 381.5,-294 381.5,-300 381.5,-300 381.5,-312 381.5,-312 381.5,-318 375.5,-324 369.5,-324"/>
<text text-anchor="middle" x="337" y="-303.5" font-family="sans" font-size="10.00" fill="#000000">count_variants</text>
</g>
<!-- 3&#45;&gt;9 -->
<g id="edge20" class="edge">
<title>3&#45;&gt;9</title>
<path fill="none" stroke="#c0c0c0" stroke-width="2" d="M321.2992,-359.8314C323.5698,-352.0463 326.2746,-342.7729 328.794,-334.1347"/>
<polygon fill="#c0c0c0" stroke="#c0c0c0" stroke-width="2" points="332.1894,-334.9933 331.6295,-324.4133 325.4694,-333.0332 332.1894,-334.9933"/>
</g>
<!-- 10 -->
<g id="node11" class="node">
<title>10</title>
<path fill="none" stroke="#afd856" stroke-width="2" d="M523.5,-252C523.5,-252 434.5,-252 434.5,-252 428.5,-252 422.5,-246 422.5,-240 422.5,-240 422.5,-228 422.5,-228 422.5,-222 428.5,-216 434.5,-216 434.5,-216 523.5,-216 523.5,-216 529.5,-216 535.5,-222 535.5,-228 535.5,-228 535.5,-240 535.5,-240 535.5,-246 529.5,-252 523.5,-252"/>
<text text-anchor="middle" x="479" y="-231.5" font-family="sans" font-size="10.00" fill="#000000">fit_titrations_hDPP4</text>
</g>
<!-- 3&#45;&gt;10 -->
<g id="edge22" class="edge">
<title>3&#45;&gt;10</title>
<path fill="none" stroke="#c0c0c0" stroke-width="2" d="M343.5808,-359.8392C358.1397,-349.8375 376.038,-336.8688 391,-324 414.4848,-303.8007 438.9425,-278.3769 456.0953,-259.7074"/>
<polygon fill="#c0c0c0" stroke="#c0c0c0" stroke-width="2" points="458.8285,-261.9043 462.9751,-252.1546 453.6535,-257.1905 458.8285,-261.9043"/>
</g>
<!-- 11 -->
<g id="node12" class="node">
<title>11</title>
<path fill="none" stroke="#80d856" stroke-width="2" d="M384.5,-252C384.5,-252 289.5,-252 289.5,-252 283.5,-252 277.5,-246 277.5,-240 277.5,-240 277.5,-228 277.5,-228 277.5,-222 283.5,-216 289.5,-216 289.5,-216 384.5,-216 384.5,-216 390.5,-216 396.5,-222 396.5,-228 396.5,-228 396.5,-240 396.5,-240 396.5,-246 390.5,-252 384.5,-252"/>
<text text-anchor="middle" x="337" y="-231.5" font-family="sans" font-size="10.00" fill="#000000">calculate_expression</text>
</g>
<!-- 3&#45;&gt;11 -->
<g id="edge25" class="edge">
<title>3&#45;&gt;11</title>
<path fill="none" stroke="#c0c0c0" stroke-width="2" d="M301.2597,-359.9018C288.2482,-341.6068 272.8101,-312.6007 283,-288 287.5521,-277.0103 295.546,-267.0911 304.0102,-258.8418"/>
<polygon fill="#c0c0c0" stroke="#c0c0c0" stroke-width="2" points="306.4499,-261.354 311.4948,-252.0373 301.7411,-256.1745 306.4499,-261.354"/>
</g>
<!-- 4 -->
<g id="node5" class="node">
<title>4</title>
<path fill="none" stroke="#d85656" stroke-width="2" d="M754,-468C754,-468 608,-468 608,-468 602,-468 596,-462 596,-456 596,-456 596,-444 596,-444 596,-438 602,-432 608,-432 608,-432 754,-432 754,-432 760,-432 766,-438 766,-444 766,-444 766,-456 766,-456 766,-462 760,-468 754,-468"/>
<text text-anchor="middle" x="681" y="-453" font-family="sans" font-size="10.00" fill="#000000">get_ccs</text>
<text text-anchor="middle" x="681" y="-442" font-family="sans" font-size="10.00" fill="#000000">pacbioRun: lib51_MERS_230124</text>
</g>
<!-- 4&#45;&gt;3 -->
<g id="edge12" class="edge">
<title>4&#45;&gt;3</title>
<path fill="none" stroke="#c0c0c0" stroke-width="2" d="M595.947,-433.7056C592.9277,-433.1296 589.938,-432.5596 587,-432 502.5712,-415.9179 481.1827,-413.3244 397,-396 391.3054,-394.8281 385.393,-393.5783 379.4732,-392.3043"/>
<polygon fill="#c0c0c0" stroke="#c0c0c0" stroke-width="2" points="380.0557,-388.8493 369.5406,-390.1469 378.5699,-395.6898 380.0557,-388.8493"/>
</g>
<!-- 8 -->
<g id="node9" class="node">
<title>8</title>
<path fill="none" stroke="#56a9d8" stroke-width="2" d="M516.5,-396C516.5,-396 417.5,-396 417.5,-396 411.5,-396 405.5,-390 405.5,-384 405.5,-384 405.5,-372 405.5,-372 405.5,-366 411.5,-360 417.5,-360 417.5,-360 516.5,-360 516.5,-360 522.5,-360 528.5,-366 528.5,-372 528.5,-372 528.5,-384 528.5,-384 528.5,-390 522.5,-396 516.5,-396"/>
<text text-anchor="middle" x="467" y="-375.5" font-family="sans" font-size="10.00" fill="#000000">process_ccs_PDF2180</text>
</g>
<!-- 4&#45;&gt;8 -->
<g id="edge16" class="edge">
<title>4&#45;&gt;8</title>
<path fill="none" stroke="#c0c0c0" stroke-width="2" d="M627.275,-431.9243C597.8927,-422.0387 561.3148,-409.7321 530.5242,-399.3726"/>
<polygon fill="#c0c0c0" stroke="#c0c0c0" stroke-width="2" points="531.3412,-395.9548 520.7471,-396.0831 529.1089,-402.5893 531.3412,-395.9548"/>
</g>
<!-- 5 -->
<g id="node6" class="node">
<title>5</title>
<path fill="none" stroke="#d85656" stroke-width="2" d="M158,-468C158,-468 12,-468 12,-468 6,-468 0,-462 0,-456 0,-456 0,-444 0,-444 0,-438 6,-432 12,-432 12,-432 158,-432 158,-432 164,-432 170,-438 170,-444 170,-444 170,-456 170,-456 170,-462 164,-468 158,-468"/>
<text text-anchor="middle" x="85" y="-453" font-family="sans" font-size="10.00" fill="#000000">get_ccs</text>
<text text-anchor="middle" x="85" y="-442" font-family="sans" font-size="10.00" fill="#000000">pacbioRun: lib52_MERS_230124</text>
</g>
<!-- 5&#45;&gt;3 -->
<g id="edge13" class="edge">
<title>5&#45;&gt;3</title>
<path fill="none" stroke="#c0c0c0" stroke-width="2" d="M142.9929,-431.9243C176.3219,-421.536 218.2281,-408.4744 252.4489,-397.8081"/>
<polygon fill="#c0c0c0" stroke="#c0c0c0" stroke-width="2" points="253.8372,-401.0416 262.3427,-394.7244 251.7541,-394.3587 253.8372,-401.0416"/>
</g>
<!-- 5&#45;&gt;8 -->
<g id="edge17" class="edge">
<title>5&#45;&gt;8</title>
<path fill="none" stroke="#c0c0c0" stroke-width="2" d="M170.0464,-433.6707C173.0676,-433.1045 176.0594,-432.5462 179,-432 267.7987,-415.5066 290.3067,-413.0508 379,-396 384.3598,-394.9696 389.8989,-393.8845 395.4681,-392.7789"/>
<polygon fill="#c0c0c0" stroke="#c0c0c0" stroke-width="2" points="396.3736,-396.1672 405.493,-390.7741 395.0008,-389.3031 396.3736,-396.1672"/>
</g>
<!-- 6 -->
<g id="node7" class="node">
<title>6</title>
<path fill="none" stroke="#d85656" stroke-width="2" d="M362,-468C362,-468 200,-468 200,-468 194,-468 188,-462 188,-456 188,-456 188,-444 188,-444 188,-438 194,-432 200,-432 200,-432 362,-432 362,-432 368,-432 374,-438 374,-444 374,-444 374,-456 374,-456 374,-462 368,-468 362,-468"/>
<text text-anchor="middle" x="281" y="-453" font-family="sans" font-size="10.00" fill="#000000">get_ccs</text>
<text text-anchor="middle" x="281" y="-442" font-family="sans" font-size="10.00" fill="#000000">pacbioRun: lib53_PDF2180_230124</text>
</g>
<!-- 6&#45;&gt;3 -->
<g id="edge14" class="edge">
<title>6&#45;&gt;3</title>
<path fill="none" stroke="#c0c0c0" stroke-width="2" d="M289.832,-431.8314C293.6986,-423.8771 298.3206,-414.369 302.5968,-405.5723"/>
<polygon fill="#c0c0c0" stroke="#c0c0c0" stroke-width="2" points="305.8249,-406.9371 307.0491,-396.4133 299.5293,-403.8768 305.8249,-406.9371"/>
</g>
<!-- 6&#45;&gt;8 -->
<g id="edge18" class="edge">
<title>6&#45;&gt;8</title>
<path fill="none" stroke="#c0c0c0" stroke-width="2" d="M327.9357,-431.8314C353.1437,-422.0734 384.3926,-409.977 410.8791,-399.7242"/>
<polygon fill="#c0c0c0" stroke="#c0c0c0" stroke-width="2" points="412.3397,-402.912 420.4019,-396.038 409.8127,-396.384 412.3397,-402.912"/>
</g>
<!-- 7 -->
<g id="node8" class="node">
<title>7</title>
<path fill="none" stroke="#d85656" stroke-width="2" d="M566,-468C566,-468 404,-468 404,-468 398,-468 392,-462 392,-456 392,-456 392,-444 392,-444 392,-438 398,-432 404,-432 404,-432 566,-432 566,-432 572,-432 578,-438 578,-444 578,-444 578,-456 578,-456 578,-462 572,-468 566,-468"/>
<text text-anchor="middle" x="485" y="-453" font-family="sans" font-size="10.00" fill="#000000">get_ccs</text>
<text text-anchor="middle" x="485" y="-442" font-family="sans" font-size="10.00" fill="#000000">pacbioRun: lib54_PDF2180_230124</text>
</g>
<!-- 7&#45;&gt;3 -->
<g id="edge15" class="edge">
<title>7&#45;&gt;3</title>
<path fill="none" stroke="#c0c0c0" stroke-width="2" d="M442.3542,-431.8314C419.651,-422.159 391.5549,-410.1891 367.6258,-399.9944"/>
<polygon fill="#c0c0c0" stroke="#c0c0c0" stroke-width="2" points="368.9109,-396.7376 358.3392,-396.038 366.1672,-403.1775 368.9109,-396.7376"/>
</g>
<!-- 7&#45;&gt;8 -->
<g id="edge19" class="edge">
<title>7&#45;&gt;8</title>
<path fill="none" stroke="#c0c0c0" stroke-width="2" d="M480.4578,-431.8314C478.5116,-424.0463 476.1932,-414.7729 474.0337,-406.1347"/>
<polygon fill="#c0c0c0" stroke="#c0c0c0" stroke-width="2" points="477.4242,-405.2658 471.6033,-396.4133 470.6332,-406.9636 477.4242,-405.2658"/>
</g>
<!-- 8&#45;&gt;0 -->
<g id="edge4" class="edge">
<title>8&#45;&gt;0</title>
<path fill="none" stroke="#c0c0c0" stroke-width="2" d="M528.7963,-371.549C607.1017,-359.5639 732,-326.0239 732,-234 732,-234 732,-234 732,-162 732,-118.7517 729.1008,-98.6 695,-72 647.2624,-34.7627 473.3081,-23.1366 381.1737,-19.5577"/>
<polygon fill="#c0c0c0" stroke="#c0c0c0" stroke-width="2" points="381.2903,-16.0597 371.1679,-19.1882 381.0319,-23.0549 381.2903,-16.0597"/>
</g>
<!-- 8&#45;&gt;9 -->
<g id="edge21" class="edge">
<title>8&#45;&gt;9</title>
<path fill="none" stroke="#c0c0c0" stroke-width="2" d="M434.1955,-359.8314C417.4138,-350.5368 396.8015,-339.1208 378.8837,-329.1971"/>
<polygon fill="#c0c0c0" stroke="#c0c0c0" stroke-width="2" points="380.2377,-325.9461 369.794,-324.1628 376.8462,-332.0696 380.2377,-325.9461"/>
</g>
<!-- 8&#45;&gt;10 -->
<g id="edge23" class="edge">
<title>8&#45;&gt;10</title>
<path fill="none" stroke="#c0c0c0" stroke-width="2" d="M468.5198,-359.7623C470.5666,-335.201 474.2294,-291.2474 476.6372,-262.3541"/>
<polygon fill="#c0c0c0" stroke="#c0c0c0" stroke-width="2" points="480.1499,-262.3458 477.4925,-252.0896 473.1741,-261.7644 480.1499,-262.3458"/>
</g>
<!-- 8&#45;&gt;11 -->
<g id="edge26" class="edge">
<title>8&#45;&gt;11</title>
<path fill="none" stroke="#c0c0c0" stroke-width="2" d="M452.2951,-359.6864C437.2954,-341.2238 413.1439,-312.09 391,-288 382.1678,-278.3915 372.1436,-268.1881 363.1501,-259.268"/>
<polygon fill="#c0c0c0" stroke="#c0c0c0" stroke-width="2" points="365.4687,-256.639 355.8868,-252.1181 360.558,-261.6276 365.4687,-256.639"/>
</g>
<!-- 9&#45;&gt;0 -->
<g id="edge5" class="edge">
<title>9&#45;&gt;0</title>
<path fill="none" stroke="#c0c0c0" stroke-width="2" d="M302.0585,-287.7767C288.8493,-278.9077 275.2623,-266.9055 268,-252 252.2354,-219.6441 236.457,-184.9819 281,-72 284.9205,-62.0558 291.2754,-52.4294 297.8685,-44.1264"/>
<polygon fill="#c0c0c0" stroke="#c0c0c0" stroke-width="2" points="300.694,-46.2049 304.4597,-36.3019 295.3403,-41.6951 300.694,-46.2049"/>
</g>
<!-- 9&#45;&gt;10 -->
<g id="edge24" class="edge">
<title>9&#45;&gt;10</title>
<path fill="none" stroke="#c0c0c0" stroke-width="2" d="M372.8326,-287.8314C391.4157,-278.4089 414.2989,-266.8062 434.0565,-256.7883"/>
<polygon fill="#c0c0c0" stroke="#c0c0c0" stroke-width="2" points="435.8427,-259.8069 443.1789,-252.1628 432.677,-253.5635 435.8427,-259.8069"/>
</g>
<!-- 9&#45;&gt;11 -->
<g id="edge27" class="edge">
<title>9&#45;&gt;11</title>
<path fill="none" stroke="#c0c0c0" stroke-width="2" d="M337,-287.8314C337,-280.131 337,-270.9743 337,-262.4166"/>
<polygon fill="#c0c0c0" stroke="#c0c0c0" stroke-width="2" points="340.5001,-262.4132 337,-252.4133 333.5001,-262.4133 340.5001,-262.4132"/>
</g>
<!-- 10&#45;&gt;0 -->
<g id="edge6" class="edge">
<title>10&#45;&gt;0</title>
<path fill="none" stroke="#c0c0c0" stroke-width="2" d="M533.3206,-215.932C607.8439,-188.3561 726.9697,-132.5503 675,-72 656.1329,-50.0178 476.2233,-31.2791 381.1863,-22.8169"/>
<polygon fill="#c0c0c0" stroke="#c0c0c0" stroke-width="2" points="381.416,-19.3236 371.1476,-21.9331 380.8021,-26.2967 381.416,-19.3236"/>
</g>
<!-- 12 -->
<g id="node13" class="node">
<title>12</title>
<path fill="none" stroke="#56d8a9" stroke-width="2" d="M514,-180C514,-180 444,-180 444,-180 438,-180 432,-174 432,-168 432,-168 432,-156 432,-156 432,-150 438,-144 444,-144 444,-144 514,-144 514,-144 520,-144 526,-150 526,-156 526,-156 526,-168 526,-168 526,-174 520,-180 514,-180"/>
<text text-anchor="middle" x="479" y="-159.5" font-family="sans" font-size="10.00" fill="#000000">collapse_scores</text>
</g>
<!-- 10&#45;&gt;12 -->
<g id="edge28" class="edge">
<title>10&#45;&gt;12</title>
<path fill="none" stroke="#c0c0c0" stroke-width="2" d="M479,-215.8314C479,-208.131 479,-198.9743 479,-190.4166"/>
<polygon fill="#c0c0c0" stroke="#c0c0c0" stroke-width="2" points="482.5001,-190.4132 479,-180.4133 475.5001,-190.4133 482.5001,-190.4132"/>
</g>
<!-- 11&#45;&gt;0 -->
<g id="edge7" class="edge">
<title>11&#45;&gt;0</title>
<path fill="none" stroke="#c0c0c0" stroke-width="2" d="M327.263,-215.8791C315.0244,-191.9758 294.6888,-148.2215 287,-108 283.9958,-92.2846 282.3635,-87.3135 287,-72 289.9564,-62.2355 295.3252,-52.6229 301.03,-44.2762"/>
<polygon fill="#c0c0c0" stroke="#c0c0c0" stroke-width="2" points="303.9414,-46.2239 307.0095,-36.0831 298.2871,-42.0973 303.9414,-46.2239"/>
</g>
<!-- 11&#45;&gt;12 -->
<g id="edge29" class="edge">
<title>11&#45;&gt;12</title>
<path fill="none" stroke="#c0c0c0" stroke-width="2" d="M372.8326,-215.8314C391.4157,-206.4089 414.2989,-194.8062 434.0565,-184.7883"/>
<polygon fill="#c0c0c0" stroke="#c0c0c0" stroke-width="2" points="435.8427,-187.8069 443.1789,-180.1628 432.677,-181.5635 435.8427,-187.8069"/>
</g>
<!-- 12&#45;&gt;0 -->
<g id="edge8" class="edge">
<title>12&#45;&gt;0</title>
<path fill="none" stroke="#c0c0c0" stroke-width="2" d="M482.6613,-143.7505C485.5296,-123.9831 486.7627,-92.5296 471,-72 459.5428,-57.078 417.6619,-42.5999 381.3631,-32.3976"/>
<polygon fill="#c0c0c0" stroke="#c0c0c0" stroke-width="2" points="381.8727,-28.9081 371.303,-29.6366 380.02,-35.6585 381.8727,-28.9081"/>
</g>
<!-- 13 -->
<g id="node14" class="node">
<title>13</title>
<path fill="none" stroke="#56d882" stroke-width="2" d="M654,-108C654,-108 530,-108 530,-108 524,-108 518,-102 518,-96 518,-96 518,-84 518,-84 518,-78 524,-72 530,-72 530,-72 654,-72 654,-72 660,-72 666,-78 666,-84 666,-84 666,-96 666,-96 666,-102 660,-108 654,-108"/>
<text text-anchor="middle" x="592" y="-87.5" font-family="sans" font-size="10.00" fill="#000000">interactive_heatmap_delta</text>
</g>
<!-- 12&#45;&gt;13 -->
<g id="edge30" class="edge">
<title>12&#45;&gt;13</title>
<path fill="none" stroke="#c0c0c0" stroke-width="2" d="M507.5147,-143.8314C521.8342,-134.7074 539.3624,-123.539 554.7338,-113.7449"/>
<polygon fill="#c0c0c0" stroke="#c0c0c0" stroke-width="2" points="556.9417,-116.4882 563.4945,-108.1628 553.1801,-110.5847 556.9417,-116.4882"/>
</g>
<!-- 14 -->
<g id="node15" class="node">
<title>14</title>
<path fill="none" stroke="#5682d8" stroke-width="2" d="M449.5,-108C449.5,-108 308.5,-108 308.5,-108 302.5,-108 296.5,-102 296.5,-96 296.5,-96 296.5,-84 296.5,-84 296.5,-78 302.5,-72 308.5,-72 308.5,-72 449.5,-72 449.5,-72 455.5,-72 461.5,-78 461.5,-84 461.5,-84 461.5,-96 461.5,-96 461.5,-102 455.5,-108 449.5,-108"/>
<text text-anchor="middle" x="379" y="-87.5" font-family="sans" font-size="10.00" fill="#000000">interactive_heatmap_absolute</text>
</g>
<!-- 12&#45;&gt;14 -->
<g id="edge31" class="edge">
<title>12&#45;&gt;14</title>
<path fill="none" stroke="#c0c0c0" stroke-width="2" d="M453.7658,-143.8314C441.212,-134.7927 425.8717,-123.7476 412.3609,-114.0198"/>
<polygon fill="#c0c0c0" stroke="#c0c0c0" stroke-width="2" points="414.3866,-111.1655 404.2261,-108.1628 410.2964,-116.8463 414.3866,-111.1655"/>
</g>
<!-- 13&#45;&gt;0 -->
<g id="edge9" class="edge">
<title>13&#45;&gt;0</title>
<path fill="none" stroke="#c0c0c0" stroke-width="2" d="M524.4672,-71.9243C480.2346,-60.0851 423.0287,-44.7735 380.8828,-33.4928"/>
<polygon fill="#c0c0c0" stroke="#c0c0c0" stroke-width="2" points="381.6161,-30.0659 371.0512,-30.8613 379.8062,-36.8279 381.6161,-30.0659"/>
</g>
<!-- 14&#45;&gt;0 -->
<g id="edge10" class="edge">
<title>14&#45;&gt;0</title>
<path fill="none" stroke="#c0c0c0" stroke-width="2" d="M364.8688,-71.8314C358.4189,-63.5386 350.6555,-53.557 343.5748,-44.4533"/>
<polygon fill="#c0c0c0" stroke="#c0c0c0" stroke-width="2" points="346.2236,-42.158 337.3214,-36.4133 340.6981,-46.4556 346.2236,-42.158"/>
</g>
</g>
</svg>
