<?xml version="1.0" encoding="UTF-8" standalone="no"?>
<!DOCTYPE svg PUBLIC "-//W3C//DTD SVG 1.1//EN"
 "http://www.w3.org/Graphics/SVG/1.1/DTD/svg11.dtd">
<!-- Generated by graphviz version 2.40.1 (0)
 -->
<!-- Title: snakemake_dag Pages: 1 -->
<svg width="887pt" height="548pt"
 viewBox="0.00 0.00 886.50 548.00" xmlns="http://www.w3.org/2000/svg" xmlns:xlink="http://www.w3.org/1999/xlink">
<g id="graph0" class="graph" transform="scale(1 1) rotate(0) translate(4 544)">
<title>snakemake_dag</title>
<polygon fill="#ffffff" stroke="transparent" points="-4,4 -4,-544 882.5,-544 882.5,4 -4,4"/>
<!-- 0 -->
<g id="node1" class="node">
<title>0</title>
<path fill="none" stroke="#56d86b" stroke-width="2" d="M390.5,-36C390.5,-36 318.5,-36 318.5,-36 312.5,-36 306.5,-30 306.5,-24 306.5,-24 306.5,-12 306.5,-12 306.5,-6 312.5,0 318.5,0 318.5,0 390.5,0 390.5,0 396.5,0 402.5,-6 402.5,-12 402.5,-12 402.5,-24 402.5,-24 402.5,-30 396.5,-36 390.5,-36"/>
<text text-anchor="middle" x="354.5" y="-15.5" font-family="sans" font-size="10.00" fill="#000000">make_summary</text>
</g>
<!-- 1 -->
<g id="node2" class="node">
<title>1</title>
<path fill="none" stroke="#d87d56" stroke-width="2" d="M100.5,-180C100.5,-180 56.5,-180 56.5,-180 50.5,-180 44.5,-174 44.5,-168 44.5,-168 44.5,-156 44.5,-156 44.5,-150 50.5,-144 56.5,-144 56.5,-144 100.5,-144 100.5,-144 106.5,-144 112.5,-150 112.5,-156 112.5,-156 112.5,-168 112.5,-168 112.5,-174 106.5,-180 100.5,-180"/>
<text text-anchor="middle" x="78.5" y="-159.5" font-family="sans" font-size="10.00" fill="#000000">make_dag</text>
</g>
<!-- 1&#45;&gt;0 -->
<g id="edge1" class="edge">
<title>1&#45;&gt;0</title>
<path fill="none" stroke="#c0c0c0" stroke-width="2" d="M88.7913,-143.9361C101.4131,-123.422 124.7187,-90.4178 153.5,-72 196.6592,-44.3814 253.6794,-30.7911 295.9612,-24.1621"/>
<polygon fill="#c0c0c0" stroke="#c0c0c0" stroke-width="2" points="296.7238,-27.5874 306.1033,-22.6604 295.6984,-20.6629 296.7238,-27.5874"/>
</g>
<!-- 2 -->
<g id="node3" class="node">
<title>2</title>
<path fill="none" stroke="#56d892" stroke-width="2" d="M89,-108C89,-108 12,-108 12,-108 6,-108 0,-102 0,-96 0,-96 0,-84 0,-84 0,-78 6,-72 12,-72 12,-72 89,-72 89,-72 95,-72 101,-78 101,-84 101,-84 101,-96 101,-96 101,-102 95,-108 89,-108"/>
<text text-anchor="middle" x="50.5" y="-87.5" font-family="sans" font-size="10.00" fill="#000000">save_pinned_env</text>
</g>
<!-- 1&#45;&gt;2 -->
<g id="edge12" class="edge">
<title>1&#45;&gt;2</title>
<path fill="none" stroke="#c0c0c0" stroke-width="2" d="M71.4344,-143.8314C68.374,-135.9617 64.7221,-126.5712 61.3318,-117.8533"/>
<polygon fill="#c0c0c0" stroke="#c0c0c0" stroke-width="2" points="64.5473,-116.4647 57.6607,-108.4133 58.0232,-119.0019 64.5473,-116.4647"/>
</g>
<!-- 2&#45;&gt;0 -->
<g id="edge2" class="edge">
<title>2&#45;&gt;0</title>
<path fill="none" stroke="#c0c0c0" stroke-width="2" d="M101.1799,-75.7129C106.0119,-74.4269 110.8439,-73.17 115.5,-72 176.9342,-56.5629 247.7632,-40.8139 296.2718,-30.339"/>
<polygon fill="#c0c0c0" stroke="#c0c0c0" stroke-width="2" points="297.2335,-33.7122 306.2728,-28.1858 295.7601,-26.869 297.2335,-33.7122"/>
</g>
<!-- 3 -->
<g id="node4" class="node">
<title>3</title>
<path fill="none" stroke="#d85656" stroke-width="2" d="M443,-468C443,-468 360,-468 360,-468 354,-468 348,-462 348,-456 348,-456 348,-444 348,-444 348,-438 354,-432 360,-432 360,-432 443,-432 443,-432 449,-432 455,-438 455,-444 455,-444 455,-456 455,-456 455,-462 449,-468 443,-468"/>
<text text-anchor="middle" x="401.5" y="-447.5" font-family="sans" font-size="10.00" fill="#000000">process_ccs_MERS</text>
</g>
<!-- 3&#45;&gt;0 -->
<g id="edge3" class="edge">
<title>3&#45;&gt;0</title>
<path fill="none" stroke="#c0c0c0" stroke-width="2" d="M347.8157,-441.3219C278.7309,-426.7411 167.5,-390.1924 167.5,-306 167.5,-306 167.5,-306 167.5,-162 167.5,-95.9005 241.752,-55.9262 296.6785,-35.3983"/>
<polygon fill="#c0c0c0" stroke="#c0c0c0" stroke-width="2" points="298.1253,-38.5972 306.3429,-31.9096 295.7485,-32.013 298.1253,-38.5972"/>
</g>
<!-- 9 -->
<g id="node10" class="node">
<title>9</title>
<path fill="none" stroke="#567bd8" stroke-width="2" d="M546,-396C546,-396 453,-396 453,-396 447,-396 441,-390 441,-384 441,-384 441,-372 441,-372 441,-366 447,-360 453,-360 453,-360 546,-360 546,-360 552,-360 558,-366 558,-372 558,-372 558,-384 558,-384 558,-390 552,-396 546,-396"/>
<text text-anchor="middle" x="499.5" y="-375.5" font-family="sans" font-size="10.00" fill="#000000">merge_libs_to_pools</text>
</g>
<!-- 3&#45;&gt;9 -->
<g id="edge21" class="edge">
<title>3&#45;&gt;9</title>
<path fill="none" stroke="#c0c0c0" stroke-width="2" d="M426.2295,-431.8314C438.4162,-422.8779 453.2823,-411.9558 466.4312,-402.2955"/>
<polygon fill="#c0c0c0" stroke="#c0c0c0" stroke-width="2" points="468.7918,-404.9042 474.7784,-396.1628 464.6473,-399.263 468.7918,-404.9042"/>
</g>
<!-- 4 -->
<g id="node5" class="node">
<title>4</title>
<path fill="none" stroke="#b6d856" stroke-width="2" d="M270.5,-540C270.5,-540 124.5,-540 124.5,-540 118.5,-540 112.5,-534 112.5,-528 112.5,-528 112.5,-516 112.5,-516 112.5,-510 118.5,-504 124.5,-504 124.5,-504 270.5,-504 270.5,-504 276.5,-504 282.5,-510 282.5,-516 282.5,-516 282.5,-528 282.5,-528 282.5,-534 276.5,-540 270.5,-540"/>
<text text-anchor="middle" x="197.5" y="-525" font-family="sans" font-size="10.00" fill="#000000">get_ccs</text>
<text text-anchor="middle" x="197.5" y="-514" font-family="sans" font-size="10.00" fill="#000000">pacbioRun: lib51_MERS_230124</text>
</g>
<!-- 4&#45;&gt;3 -->
<g id="edge13" class="edge">
<title>4&#45;&gt;3</title>
<path fill="none" stroke="#c0c0c0" stroke-width="2" d="M248.7145,-503.9243C276.6025,-494.0815 311.2906,-481.8386 340.5627,-471.5073"/>
<polygon fill="#c0c0c0" stroke="#c0c0c0" stroke-width="2" points="341.9994,-474.7119 350.2644,-468.0831 339.6696,-468.1109 341.9994,-474.7119"/>
</g>
<!-- 8 -->
<g id="node9" class="node">
<title>8</title>
<path fill="none" stroke="#d8a456" stroke-width="2" d="M615,-468C615,-468 516,-468 516,-468 510,-468 504,-462 504,-456 504,-456 504,-444 504,-444 504,-438 510,-432 516,-432 516,-432 615,-432 615,-432 621,-432 627,-438 627,-444 627,-444 627,-456 627,-456 627,-462 621,-468 615,-468"/>
<text text-anchor="middle" x="565.5" y="-447.5" font-family="sans" font-size="10.00" fill="#000000">process_ccs_PDF2180</text>
</g>
<!-- 4&#45;&gt;8 -->
<g id="edge17" class="edge">
<title>4&#45;&gt;8</title>
<path fill="none" stroke="#c0c0c0" stroke-width="2" d="M282.8516,-505.3008C346.9112,-492.7674 433.6197,-475.8027 494.041,-463.9811"/>
<polygon fill="#c0c0c0" stroke="#c0c0c0" stroke-width="2" points="494.7373,-467.4113 503.8792,-462.0563 493.3932,-460.5416 494.7373,-467.4113"/>
</g>
<!-- 5 -->
<g id="node6" class="node">
<title>5</title>
<path fill="none" stroke="#b6d856" stroke-width="2" d="M458.5,-540C458.5,-540 312.5,-540 312.5,-540 306.5,-540 300.5,-534 300.5,-528 300.5,-528 300.5,-516 300.5,-516 300.5,-510 306.5,-504 312.5,-504 312.5,-504 458.5,-504 458.5,-504 464.5,-504 470.5,-510 470.5,-516 470.5,-516 470.5,-528 470.5,-528 470.5,-534 464.5,-540 458.5,-540"/>
<text text-anchor="middle" x="385.5" y="-525" font-family="sans" font-size="10.00" fill="#000000">get_ccs</text>
<text text-anchor="middle" x="385.5" y="-514" font-family="sans" font-size="10.00" fill="#000000">pacbioRun: lib52_MERS_230124</text>
</g>
<!-- 5&#45;&gt;3 -->
<g id="edge14" class="edge">
<title>5&#45;&gt;3</title>
<path fill="none" stroke="#c0c0c0" stroke-width="2" d="M389.5375,-503.8314C391.2487,-496.131 393.2835,-486.9743 395.1852,-478.4166"/>
<polygon fill="#c0c0c0" stroke="#c0c0c0" stroke-width="2" points="398.6554,-478.9344 397.4082,-468.4133 391.8221,-477.4159 398.6554,-478.9344"/>
</g>
<!-- 5&#45;&gt;8 -->
<g id="edge18" class="edge">
<title>5&#45;&gt;8</title>
<path fill="none" stroke="#c0c0c0" stroke-width="2" d="M430.9216,-503.8314C455.2095,-494.1162 485.2922,-482.0831 510.852,-471.8592"/>
<polygon fill="#c0c0c0" stroke="#c0c0c0" stroke-width="2" points="512.4201,-475.0016 520.405,-468.038 509.8204,-468.5023 512.4201,-475.0016"/>
</g>
<!-- 6 -->
<g id="node7" class="node">
<title>6</title>
<path fill="none" stroke="#b6d856" stroke-width="2" d="M662.5,-540C662.5,-540 500.5,-540 500.5,-540 494.5,-540 488.5,-534 488.5,-528 488.5,-528 488.5,-516 488.5,-516 488.5,-510 494.5,-504 500.5,-504 500.5,-504 662.5,-504 662.5,-504 668.5,-504 674.5,-510 674.5,-516 674.5,-516 674.5,-528 674.5,-528 674.5,-534 668.5,-540 662.5,-540"/>
<text text-anchor="middle" x="581.5" y="-525" font-family="sans" font-size="10.00" fill="#000000">get_ccs</text>
<text text-anchor="middle" x="581.5" y="-514" font-family="sans" font-size="10.00" fill="#000000">pacbioRun: lib53_PDF2180_230124</text>
</g>
<!-- 6&#45;&gt;3 -->
<g id="edge15" class="edge">
<title>6&#45;&gt;3</title>
<path fill="none" stroke="#c0c0c0" stroke-width="2" d="M536.0784,-503.8314C511.7905,-494.1162 481.7078,-482.0831 456.148,-471.8592"/>
<polygon fill="#c0c0c0" stroke="#c0c0c0" stroke-width="2" points="457.1796,-468.5023 446.595,-468.038 454.5799,-475.0016 457.1796,-468.5023"/>
</g>
<!-- 6&#45;&gt;8 -->
<g id="edge19" class="edge">
<title>6&#45;&gt;8</title>
<path fill="none" stroke="#c0c0c0" stroke-width="2" d="M577.4625,-503.8314C575.7513,-496.131 573.7165,-486.9743 571.8148,-478.4166"/>
<polygon fill="#c0c0c0" stroke="#c0c0c0" stroke-width="2" points="575.1779,-477.4159 569.5918,-468.4133 568.3446,-478.9344 575.1779,-477.4159"/>
</g>
<!-- 7 -->
<g id="node8" class="node">
<title>7</title>
<path fill="none" stroke="#b6d856" stroke-width="2" d="M866.5,-540C866.5,-540 704.5,-540 704.5,-540 698.5,-540 692.5,-534 692.5,-528 692.5,-528 692.5,-516 692.5,-516 692.5,-510 698.5,-504 704.5,-504 704.5,-504 866.5,-504 866.5,-504 872.5,-504 878.5,-510 878.5,-516 878.5,-516 878.5,-528 878.5,-528 878.5,-534 872.5,-540 866.5,-540"/>
<text text-anchor="middle" x="785.5" y="-525" font-family="sans" font-size="10.00" fill="#000000">get_ccs</text>
<text text-anchor="middle" x="785.5" y="-514" font-family="sans" font-size="10.00" fill="#000000">pacbioRun: lib54_PDF2180_230124</text>
</g>
<!-- 7&#45;&gt;3 -->
<g id="edge16" class="edge">
<title>7&#45;&gt;3</title>
<path fill="none" stroke="#c0c0c0" stroke-width="2" d="M692.4226,-504.7931C635.5326,-494.245 561.2975,-480.4257 495.5,-468 485.7036,-466.15 475.3357,-464.1784 465.2023,-462.2438"/>
<polygon fill="#c0c0c0" stroke="#c0c0c0" stroke-width="2" points="465.6562,-458.7673 455.1769,-460.3275 464.3419,-465.6428 465.6562,-458.7673"/>
</g>
<!-- 7&#45;&gt;8 -->
<g id="edge20" class="edge">
<title>7&#45;&gt;8</title>
<path fill="none" stroke="#c0c0c0" stroke-width="2" d="M730.2687,-503.9243C699.9319,-493.9959 662.1335,-481.6255 630.3945,-471.2382"/>
<polygon fill="#c0c0c0" stroke="#c0c0c0" stroke-width="2" points="631.3467,-467.8672 620.754,-468.0831 629.1694,-474.52 631.3467,-467.8672"/>
</g>
<!-- 8&#45;&gt;0 -->
<g id="edge4" class="edge">
<title>8&#45;&gt;0</title>
<path fill="none" stroke="#c0c0c0" stroke-width="2" d="M621.4664,-431.8455C674.3058,-410.7755 745.5,-370.4314 745.5,-306 745.5,-306 745.5,-306 745.5,-162 745.5,-116.8741 735.1582,-98.3158 698.5,-72 653.7862,-39.9013 498.6286,-26.1448 412.7729,-20.8773"/>
<polygon fill="#c0c0c0" stroke="#c0c0c0" stroke-width="2" points="412.8483,-17.3757 402.6583,-20.2764 412.4331,-24.3634 412.8483,-17.3757"/>
</g>
<!-- 8&#45;&gt;9 -->
<g id="edge22" class="edge">
<title>8&#45;&gt;9</title>
<path fill="none" stroke="#c0c0c0" stroke-width="2" d="M548.8454,-431.8314C541.0886,-423.3694 531.7198,-413.1489 523.239,-403.8971"/>
<polygon fill="#c0c0c0" stroke="#c0c0c0" stroke-width="2" points="525.7162,-401.4198 516.3788,-396.4133 520.5561,-406.1499 525.7162,-401.4198"/>
</g>
<!-- 9&#45;&gt;0 -->
<g id="edge5" class="edge">
<title>9&#45;&gt;0</title>
<path fill="none" stroke="#c0c0c0" stroke-width="2" d="M558.2704,-364.2368C619.7784,-345.9284 707.5,-307.0179 707.5,-234 707.5,-234 707.5,-234 707.5,-162 707.5,-118.5807 703.5187,-98.9808 669.5,-72 630.704,-41.2302 492.883,-27.1169 412.9789,-21.3912"/>
<polygon fill="#c0c0c0" stroke="#c0c0c0" stroke-width="2" points="412.799,-17.8704 402.5807,-20.67 412.3145,-24.8536 412.799,-17.8704"/>
</g>
<!-- 10 -->
<g id="node11" class="node">
<title>10</title>
<path fill="none" stroke="#d8cb56" stroke-width="2" d="M434,-324C434,-324 369,-324 369,-324 363,-324 357,-318 357,-312 357,-312 357,-300 357,-300 357,-294 363,-288 369,-288 369,-288 434,-288 434,-288 440,-288 446,-294 446,-300 446,-300 446,-312 446,-312 446,-318 440,-324 434,-324"/>
<text text-anchor="middle" x="401.5" y="-303.5" font-family="sans" font-size="10.00" fill="#000000">count_variants</text>
</g>
<!-- 9&#45;&gt;10 -->
<g id="edge23" class="edge">
<title>9&#45;&gt;10</title>
<path fill="none" stroke="#c0c0c0" stroke-width="2" d="M474.7705,-359.8314C462.5838,-350.8779 447.7177,-339.9558 434.5688,-330.2955"/>
<polygon fill="#c0c0c0" stroke="#c0c0c0" stroke-width="2" points="436.3527,-327.263 426.2216,-324.1628 432.2082,-332.9042 436.3527,-327.263"/>
</g>
<!-- 11 -->
<g id="node12" class="node">
<title>11</title>
<path fill="none" stroke="#68d856" stroke-width="2" d="M443,-252C443,-252 354,-252 354,-252 348,-252 342,-246 342,-240 342,-240 342,-228 342,-228 342,-222 348,-216 354,-216 354,-216 443,-216 443,-216 449,-216 455,-222 455,-228 455,-228 455,-240 455,-240 455,-246 449,-252 443,-252"/>
<text text-anchor="middle" x="398.5" y="-231.5" font-family="sans" font-size="10.00" fill="#000000">fit_titrations_hDPP4</text>
</g>
<!-- 9&#45;&gt;11 -->
<g id="edge24" class="edge">
<title>9&#45;&gt;11</title>
<path fill="none" stroke="#c0c0c0" stroke-width="2" d="M492.8065,-359.6926C485.3697,-340.7163 472.1806,-310.7073 455.5,-288 447.8711,-277.6149 438.1042,-267.5363 428.8183,-258.9539"/>
<polygon fill="#c0c0c0" stroke="#c0c0c0" stroke-width="2" points="430.9737,-256.1858 421.1889,-252.1227 426.3043,-261.4008 430.9737,-256.1858"/>
</g>
<!-- 12 -->
<g id="node13" class="node">
<title>12</title>
<path fill="none" stroke="#8fd856" stroke-width="2" d="M580,-252C580,-252 485,-252 485,-252 479,-252 473,-246 473,-240 473,-240 473,-228 473,-228 473,-222 479,-216 485,-216 485,-216 580,-216 580,-216 586,-216 592,-222 592,-228 592,-228 592,-240 592,-240 592,-246 586,-252 580,-252"/>
<text text-anchor="middle" x="532.5" y="-231.5" font-family="sans" font-size="10.00" fill="#000000">calculate_expression</text>
</g>
<!-- 9&#45;&gt;12 -->
<g id="edge26" class="edge">
<title>9&#45;&gt;12</title>
<path fill="none" stroke="#c0c0c0" stroke-width="2" d="M503.6795,-359.7623C509.3329,-335.0928 519.4696,-290.8598 526.0895,-261.9731"/>
<polygon fill="#c0c0c0" stroke="#c0c0c0" stroke-width="2" points="529.5322,-262.6188 528.3545,-252.0896 522.7091,-261.0551 529.5322,-262.6188"/>
</g>
<!-- 10&#45;&gt;0 -->
<g id="edge6" class="edge">
<title>10&#45;&gt;0</title>
<path fill="none" stroke="#c0c0c0" stroke-width="2" d="M374.7685,-287.9015C361.31,-278.1143 345.2006,-265.322 332.5,-252 282.1292,-199.1647 266.9598,-179.7469 253.5,-108 250.5498,-92.2743 245.2751,-85.7241 253.5,-72 263.2885,-55.6669 279.8874,-43.997 296.8315,-35.7871"/>
<polygon fill="#c0c0c0" stroke="#c0c0c0" stroke-width="2" points="298.5431,-38.8556 306.2394,-31.5743 295.6823,-32.4669 298.5431,-38.8556"/>
</g>
<!-- 10&#45;&gt;11 -->
<g id="edge25" class="edge">
<title>10&#45;&gt;11</title>
<path fill="none" stroke="#c0c0c0" stroke-width="2" d="M400.743,-287.8314C400.4221,-280.131 400.0406,-270.9743 399.684,-262.4166"/>
<polygon fill="#c0c0c0" stroke="#c0c0c0" stroke-width="2" points="403.1806,-262.2589 399.2672,-252.4133 396.1867,-262.5503 403.1806,-262.2589"/>
</g>
<!-- 10&#45;&gt;12 -->
<g id="edge27" class="edge">
<title>10&#45;&gt;12</title>
<path fill="none" stroke="#c0c0c0" stroke-width="2" d="M434.5568,-287.8314C451.4677,-278.5368 472.2385,-267.1208 490.2941,-257.1971"/>
<polygon fill="#c0c0c0" stroke="#c0c0c0" stroke-width="2" points="492.376,-260.0468 499.4537,-252.1628 489.0043,-253.9122 492.376,-260.0468"/>
</g>
<!-- 11&#45;&gt;0 -->
<g id="edge7" class="edge">
<title>11&#45;&gt;0</title>
<path fill="none" stroke="#c0c0c0" stroke-width="2" d="M366.9192,-215.8129C333.8039,-194.7117 283.6915,-156.5218 262.5,-108 256.0962,-93.3374 254.5498,-85.885 262.5,-72 270.4264,-58.1566 283.4337,-47.5156 297.2056,-39.4892"/>
<polygon fill="#c0c0c0" stroke="#c0c0c0" stroke-width="2" points="299.1726,-42.4054 306.3204,-34.585 295.8558,-36.2411 299.1726,-42.4054"/>
</g>
<!-- 13 -->
<g id="node14" class="node">
<title>13</title>
<path fill="none" stroke="#56d0d8" stroke-width="2" d="M500.5,-180C500.5,-180 430.5,-180 430.5,-180 424.5,-180 418.5,-174 418.5,-168 418.5,-168 418.5,-156 418.5,-156 418.5,-150 424.5,-144 430.5,-144 430.5,-144 500.5,-144 500.5,-144 506.5,-144 512.5,-150 512.5,-156 512.5,-156 512.5,-168 512.5,-168 512.5,-174 506.5,-180 500.5,-180"/>
<text text-anchor="middle" x="465.5" y="-159.5" font-family="sans" font-size="10.00" fill="#000000">collapse_scores</text>
</g>
<!-- 11&#45;&gt;13 -->
<g id="edge28" class="edge">
<title>11&#45;&gt;13</title>
<path fill="none" stroke="#c0c0c0" stroke-width="2" d="M415.4069,-215.8314C423.2813,-207.3694 432.792,-197.1489 441.4013,-187.8971"/>
<polygon fill="#c0c0c0" stroke="#c0c0c0" stroke-width="2" points="444.1153,-190.1183 448.3654,-180.4133 438.9908,-185.3497 444.1153,-190.1183"/>
</g>
<!-- 12&#45;&gt;0 -->
<g id="edge8" class="edge">
<title>12&#45;&gt;0</title>
<path fill="none" stroke="#c0c0c0" stroke-width="2" d="M562.6791,-215.9276C610.0033,-185.3763 692.1765,-121.9675 650.5,-72 620.8404,-36.44 490.297,-24.2344 412.8267,-20.0905"/>
<polygon fill="#c0c0c0" stroke="#c0c0c0" stroke-width="2" points="412.8909,-16.5894 402.7269,-19.5797 412.5373,-23.5804 412.8909,-16.5894"/>
</g>
<!-- 12&#45;&gt;13 -->
<g id="edge29" class="edge">
<title>12&#45;&gt;13</title>
<path fill="none" stroke="#c0c0c0" stroke-width="2" d="M515.5931,-215.8314C507.7187,-207.3694 498.208,-197.1489 489.5987,-187.8971"/>
<polygon fill="#c0c0c0" stroke="#c0c0c0" stroke-width="2" points="492.0092,-185.3497 482.6346,-180.4133 486.8847,-190.1183 492.0092,-185.3497"/>
</g>
<!-- 13&#45;&gt;0 -->
<g id="edge9" class="edge">
<title>13&#45;&gt;0</title>
<path fill="none" stroke="#c0c0c0" stroke-width="2" d="M465.8314,-143.7186C465.2968,-124.2121 461.8032,-93.2537 446.5,-72 437.3565,-59.3011 424.2268,-49.1024 410.7383,-41.1368"/>
<polygon fill="#c0c0c0" stroke="#c0c0c0" stroke-width="2" points="412.3048,-38.0034 401.8609,-36.2209 408.9137,-44.1272 412.3048,-38.0034"/>
</g>
<!-- 14 -->
<g id="node15" class="node">
<title>14</title>
<path fill="none" stroke="#56a9d8" stroke-width="2" d="M629.5,-108C629.5,-108 505.5,-108 505.5,-108 499.5,-108 493.5,-102 493.5,-96 493.5,-96 493.5,-84 493.5,-84 493.5,-78 499.5,-72 505.5,-72 505.5,-72 629.5,-72 629.5,-72 635.5,-72 641.5,-78 641.5,-84 641.5,-84 641.5,-96 641.5,-96 641.5,-102 635.5,-108 629.5,-108"/>
<text text-anchor="middle" x="567.5" y="-87.5" font-family="sans" font-size="10.00" fill="#000000">interactive_heatmap_delta</text>
</g>
<!-- 13&#45;&gt;14 -->
<g id="edge30" class="edge">
<title>13&#45;&gt;14</title>
<path fill="none" stroke="#c0c0c0" stroke-width="2" d="M491.2389,-143.8314C504.0437,-134.7927 519.6909,-123.7476 533.4719,-114.0198"/>
<polygon fill="#c0c0c0" stroke="#c0c0c0" stroke-width="2" points="535.618,-116.7891 541.7693,-108.1628 531.5812,-111.0703 535.618,-116.7891"/>
</g>
<!-- 15 -->
<g id="node16" class="node">
<title>15</title>
<path fill="none" stroke="#56d8b9" stroke-width="2" d="M425,-108C425,-108 284,-108 284,-108 278,-108 272,-102 272,-96 272,-96 272,-84 272,-84 272,-78 278,-72 284,-72 284,-72 425,-72 425,-72 431,-72 437,-78 437,-84 437,-84 437,-96 437,-96 437,-102 431,-108 425,-108"/>
<text text-anchor="middle" x="354.5" y="-87.5" font-family="sans" font-size="10.00" fill="#000000">interactive_heatmap_absolute</text>
</g>
<!-- 13&#45;&gt;15 -->
<g id="edge31" class="edge">
<title>13&#45;&gt;15</title>
<path fill="none" stroke="#c0c0c0" stroke-width="2" d="M437.49,-143.8314C423.4239,-134.7074 406.206,-123.539 391.1067,-113.7449"/>
<polygon fill="#c0c0c0" stroke="#c0c0c0" stroke-width="2" points="392.7953,-110.6684 382.501,-108.1628 388.986,-116.5412 392.7953,-110.6684"/>
</g>
<!-- 14&#45;&gt;0 -->
<g id="edge10" class="edge">
<title>14&#45;&gt;0</title>
<path fill="none" stroke="#c0c0c0" stroke-width="2" d="M514.026,-71.9243C482.9793,-61.4296 443.8608,-48.2065 412.1316,-37.4811"/>
<polygon fill="#c0c0c0" stroke="#c0c0c0" stroke-width="2" points="413.1331,-34.1252 402.5389,-34.2385 410.8915,-40.7565 413.1331,-34.1252"/>
</g>
<!-- 15&#45;&gt;0 -->
<g id="edge11" class="edge">
<title>15&#45;&gt;0</title>
<path fill="none" stroke="#c0c0c0" stroke-width="2" d="M354.5,-71.8314C354.5,-64.131 354.5,-54.9743 354.5,-46.4166"/>
<polygon fill="#c0c0c0" stroke="#c0c0c0" stroke-width="2" points="358.0001,-46.4132 354.5,-36.4133 351.0001,-46.4133 358.0001,-46.4132"/>
</g>
</g>
</svg>
