<?xml version="1.0" encoding="UTF-8" standalone="no"?>
<!DOCTYPE svg PUBLIC "-//W3C//DTD SVG 1.1//EN"
 "http://www.w3.org/Graphics/SVG/1.1/DTD/svg11.dtd">
<!-- Generated by graphviz version 2.50.0 (20211209.0339)
 -->
<!-- Title: snakemake_dag Pages: 1 -->
<svg width="883pt" height="476pt"
 viewBox="0.00 0.00 883.00 476.00" xmlns="http://www.w3.org/2000/svg" xmlns:xlink="http://www.w3.org/1999/xlink">
<g id="graph0" class="graph" transform="scale(1 1) rotate(0) translate(4 472)">
<title>snakemake_dag</title>
<polygon fill="white" stroke="transparent" points="-4,4 -4,-472 879,-472 879,4 -4,4"/>
<!-- 0 -->
<g id="node1" class="node">
<title>0</title>
<path fill="none" stroke="#5682d8" stroke-width="2" d="M446,-36C446,-36 375,-36 375,-36 369,-36 363,-30 363,-24 363,-24 363,-12 363,-12 363,-6 369,0 375,0 375,0 446,0 446,0 452,0 458,-6 458,-12 458,-12 458,-24 458,-24 458,-30 452,-36 446,-36"/>
<text text-anchor="middle" x="410.5" y="-15.5" font-family="sans" font-size="10.00">make_summary</text>
</g>
<!-- 1 -->
<g id="node2" class="node">
<title>1</title>
<path fill="none" stroke="#d8b456" stroke-width="2" d="M55,-108C55,-108 12,-108 12,-108 6,-108 0,-102 0,-96 0,-96 0,-84 0,-84 0,-78 6,-72 12,-72 12,-72 55,-72 55,-72 61,-72 67,-78 67,-84 67,-84 67,-96 67,-96 67,-102 61,-108 55,-108"/>
<text text-anchor="middle" x="33.5" y="-87.5" font-family="sans" font-size="10.00">make_dag</text>
</g>
<!-- 1&#45;&gt;0 -->
<g id="edge1" class="edge">
<title>1&#45;&gt;0</title>
<path fill="none" stroke="grey" stroke-width="2" d="M67.09,-76.24C71.89,-74.67 76.79,-73.2 81.5,-72 175.01,-48.12 286.36,-32.85 352.59,-25.12"/>
<polygon fill="grey" stroke="grey" stroke-width="2" points="353.29,-28.56 362.82,-23.94 352.49,-21.61 353.29,-28.56"/>
</g>
<!-- 2 -->
<g id="node3" class="node">
<title>2</title>
<path fill="none" stroke="#56d89a" stroke-width="2" d="M428.5,-396C428.5,-396 344.5,-396 344.5,-396 338.5,-396 332.5,-390 332.5,-384 332.5,-384 332.5,-372 332.5,-372 332.5,-366 338.5,-360 344.5,-360 344.5,-360 428.5,-360 428.5,-360 434.5,-360 440.5,-366 440.5,-372 440.5,-372 440.5,-384 440.5,-384 440.5,-390 434.5,-396 428.5,-396"/>
<text text-anchor="middle" x="386.5" y="-375.5" font-family="sans" font-size="10.00">process_ccs_MERS</text>
</g>
<!-- 2&#45;&gt;0 -->
<g id="edge2" class="edge">
<title>2&#45;&gt;0</title>
<path fill="none" stroke="grey" stroke-width="2" d="M332.45,-374.35C248.29,-366.99 95.5,-339.28 95.5,-235 95.5,-235 95.5,-235 95.5,-161 95.5,-117.45 102.23,-98.88 136.5,-72 169.43,-46.17 282.69,-31.07 352.87,-23.98"/>
<polygon fill="grey" stroke="grey" stroke-width="2" points="353.29,-27.45 362.9,-22.99 352.6,-20.48 353.29,-27.45"/>
</g>
<!-- 8 -->
<g id="node9" class="node">
<title>8</title>
<path fill="none" stroke="#56d86b" stroke-width="2" d="M545,-324C545,-324 480,-324 480,-324 474,-324 468,-318 468,-312 468,-312 468,-300 468,-300 468,-294 474,-288 480,-288 480,-288 545,-288 545,-288 551,-288 557,-294 557,-300 557,-300 557,-312 557,-312 557,-318 551,-324 545,-324"/>
<text text-anchor="middle" x="512.5" y="-303.5" font-family="sans" font-size="10.00">count_variants</text>
</g>
<!-- 2&#45;&gt;8 -->
<g id="edge18" class="edge">
<title>2&#45;&gt;8</title>
<path fill="none" stroke="grey" stroke-width="2" d="M417.32,-359.88C433.95,-350.64 454.66,-339.13 472.52,-329.21"/>
<polygon fill="grey" stroke="grey" stroke-width="2" points="474.52,-332.11 481.56,-324.19 471.12,-325.99 474.52,-332.11"/>
</g>
<!-- 9 -->
<g id="node10" class="node">
<title>9</title>
<path fill="none" stroke="#70d856" stroke-width="2" d="M557,-252C557,-252 468,-252 468,-252 462,-252 456,-246 456,-240 456,-240 456,-228 456,-228 456,-222 462,-216 468,-216 468,-216 557,-216 557,-216 563,-216 569,-222 569,-228 569,-228 569,-240 569,-240 569,-246 563,-252 557,-252"/>
<text text-anchor="middle" x="512.5" y="-231.5" font-family="sans" font-size="10.00">fit_titrations_hDPP4</text>
</g>
<!-- 2&#45;&gt;9 -->
<g id="edge20" class="edge">
<title>2&#45;&gt;9</title>
<path fill="none" stroke="grey" stroke-width="2" d="M399.74,-359.85C414.01,-341.62 437.63,-312.14 459.5,-288 468.24,-278.36 478.24,-268.16 487.18,-259.31"/>
<polygon fill="grey" stroke="grey" stroke-width="2" points="489.7,-261.74 494.39,-252.24 484.8,-256.75 489.7,-261.74"/>
</g>
<!-- 10 -->
<g id="node11" class="node">
<title>10</title>
<path fill="none" stroke="#56d8c9" stroke-width="2" d="M426,-252C426,-252 331,-252 331,-252 325,-252 319,-246 319,-240 319,-240 319,-228 319,-228 319,-222 325,-216 331,-216 331,-216 426,-216 426,-216 432,-216 438,-222 438,-228 438,-228 438,-240 438,-240 438,-246 432,-252 426,-252"/>
<text text-anchor="middle" x="378.5" y="-231.5" font-family="sans" font-size="10.00">calculate_expression</text>
</g>
<!-- 2&#45;&gt;10 -->
<g id="edge23" class="edge">
<title>2&#45;&gt;10</title>
<path fill="none" stroke="grey" stroke-width="2" d="M385.54,-359.87C384.17,-335.67 381.67,-291.21 380.04,-262.39"/>
<polygon fill="grey" stroke="grey" stroke-width="2" points="383.53,-261.98 379.47,-252.19 376.54,-262.37 383.53,-261.98"/>
</g>
<!-- 3 -->
<g id="node4" class="node">
<title>3</title>
<path fill="none" stroke="#d88556" stroke-width="2" d="M863,-468C863,-468 698,-468 698,-468 692,-468 686,-462 686,-456 686,-456 686,-444 686,-444 686,-438 692,-432 698,-432 698,-432 863,-432 863,-432 869,-432 875,-438 875,-444 875,-444 875,-456 875,-456 875,-462 869,-468 863,-468"/>
<text text-anchor="middle" x="780.5" y="-453" font-family="sans" font-size="10.00">get_ccs</text>
<text text-anchor="middle" x="780.5" y="-442" font-family="sans" font-size="10.00">pacbioRun: lib51_53_MERS_230124</text>
</g>
<!-- 3&#45;&gt;2 -->
<g id="edge10" class="edge">
<title>3&#45;&gt;2</title>
<path fill="none" stroke="grey" stroke-width="2" d="M685.93,-433.38C683.09,-432.92 680.27,-432.45 677.5,-432 579.29,-415.9 554.04,-415.76 456.5,-396 454.57,-395.61 452.61,-395.2 450.64,-394.78"/>
<polygon fill="grey" stroke="grey" stroke-width="2" points="451.19,-391.32 440.67,-392.59 449.69,-398.16 451.19,-391.32"/>
</g>
<!-- 7 -->
<g id="node8" class="node">
<title>7</title>
<path fill="none" stroke="#d85656" stroke-width="2" d="M577.5,-396C577.5,-396 477.5,-396 477.5,-396 471.5,-396 465.5,-390 465.5,-384 465.5,-384 465.5,-372 465.5,-372 465.5,-366 471.5,-360 477.5,-360 477.5,-360 577.5,-360 577.5,-360 583.5,-360 589.5,-366 589.5,-372 589.5,-372 589.5,-384 589.5,-384 589.5,-390 583.5,-396 577.5,-396"/>
<text text-anchor="middle" x="527.5" y="-375.5" font-family="sans" font-size="10.00">process_ccs_PDF2180</text>
</g>
<!-- 3&#45;&gt;7 -->
<g id="edge14" class="edge">
<title>3&#45;&gt;7</title>
<path fill="none" stroke="grey" stroke-width="2" d="M718.93,-431.97C682.81,-421.97 637.01,-409.3 599.26,-398.85"/>
<polygon fill="grey" stroke="grey" stroke-width="2" points="599.91,-395.4 589.34,-396.11 598.05,-402.15 599.91,-395.4"/>
</g>
<!-- 4 -->
<g id="node5" class="node">
<title>4</title>
<path fill="none" stroke="#d88556" stroke-width="2" d="M210,-468C210,-468 45,-468 45,-468 39,-468 33,-462 33,-456 33,-456 33,-444 33,-444 33,-438 39,-432 45,-432 45,-432 210,-432 210,-432 216,-432 222,-438 222,-444 222,-444 222,-456 222,-456 222,-462 216,-468 210,-468"/>
<text text-anchor="middle" x="127.5" y="-453" font-family="sans" font-size="10.00">get_ccs</text>
<text text-anchor="middle" x="127.5" y="-442" font-family="sans" font-size="10.00">pacbioRun: lib52_54_MERS_230124</text>
</g>
<!-- 4&#45;&gt;2 -->
<g id="edge11" class="edge">
<title>4&#45;&gt;2</title>
<path fill="none" stroke="grey" stroke-width="2" d="M190.53,-431.97C230.64,-421.12 282.43,-407.13 322.7,-396.24"/>
<polygon fill="grey" stroke="grey" stroke-width="2" points="323.67,-399.61 332.41,-393.62 321.84,-392.85 323.67,-399.61"/>
</g>
<!-- 4&#45;&gt;7 -->
<g id="edge15" class="edge">
<title>4&#45;&gt;7</title>
<path fill="none" stroke="grey" stroke-width="2" d="M222.07,-433.39C224.91,-432.92 227.73,-432.46 230.5,-432 327.83,-415.97 352.61,-414.51 449.5,-396 451.44,-395.63 453.41,-395.25 455.39,-394.86"/>
<polygon fill="grey" stroke="grey" stroke-width="2" points="456.29,-398.25 465.4,-392.84 454.91,-391.38 456.29,-398.25"/>
</g>
<!-- 5 -->
<g id="node6" class="node">
<title>5</title>
<path fill="none" stroke="#d88556" stroke-width="2" d="M433,-468C433,-468 252,-468 252,-468 246,-468 240,-462 240,-456 240,-456 240,-444 240,-444 240,-438 246,-432 252,-432 252,-432 433,-432 433,-432 439,-432 445,-438 445,-444 445,-444 445,-456 445,-456 445,-462 439,-468 433,-468"/>
<text text-anchor="middle" x="342.5" y="-453" font-family="sans" font-size="10.00">get_ccs</text>
<text text-anchor="middle" x="342.5" y="-442" font-family="sans" font-size="10.00">pacbioRun: lib51_53_PDF2180_230124</text>
</g>
<!-- 5&#45;&gt;2 -->
<g id="edge12" class="edge">
<title>5&#45;&gt;2</title>
<path fill="none" stroke="grey" stroke-width="2" d="M353.38,-431.7C358.49,-423.56 364.7,-413.69 370.34,-404.7"/>
<polygon fill="grey" stroke="grey" stroke-width="2" points="373.39,-406.43 375.75,-396.1 367.46,-402.71 373.39,-406.43"/>
</g>
<!-- 5&#45;&gt;7 -->
<g id="edge16" class="edge">
<title>5&#45;&gt;7</title>
<path fill="none" stroke="grey" stroke-width="2" d="M387.76,-431.88C413.5,-422.14 445.91,-409.87 473.04,-399.61"/>
<polygon fill="grey" stroke="grey" stroke-width="2" points="474.28,-402.88 482.39,-396.07 471.8,-396.33 474.28,-402.88"/>
</g>
<!-- 6 -->
<g id="node7" class="node">
<title>6</title>
<path fill="none" stroke="#d88556" stroke-width="2" d="M656,-468C656,-468 475,-468 475,-468 469,-468 463,-462 463,-456 463,-456 463,-444 463,-444 463,-438 469,-432 475,-432 475,-432 656,-432 656,-432 662,-432 668,-438 668,-444 668,-444 668,-456 668,-456 668,-462 662,-468 656,-468"/>
<text text-anchor="middle" x="565.5" y="-453" font-family="sans" font-size="10.00">get_ccs</text>
<text text-anchor="middle" x="565.5" y="-442" font-family="sans" font-size="10.00">pacbioRun: lib52_54_PDF2180_230124</text>
</g>
<!-- 6&#45;&gt;2 -->
<g id="edge13" class="edge">
<title>6&#45;&gt;2</title>
<path fill="none" stroke="grey" stroke-width="2" d="M521.71,-431.88C496.92,-422.18 465.72,-409.98 439.54,-399.74"/>
<polygon fill="grey" stroke="grey" stroke-width="2" points="440.73,-396.45 430.15,-396.07 438.18,-402.97 440.73,-396.45"/>
</g>
<!-- 6&#45;&gt;7 -->
<g id="edge17" class="edge">
<title>6&#45;&gt;7</title>
<path fill="none" stroke="grey" stroke-width="2" d="M556.11,-431.7C551.74,-423.64 546.44,-413.89 541.6,-404.98"/>
<polygon fill="grey" stroke="grey" stroke-width="2" points="544.63,-403.22 536.79,-396.1 538.48,-406.56 544.63,-403.22"/>
</g>
<!-- 7&#45;&gt;0 -->
<g id="edge3" class="edge">
<title>7&#45;&gt;0</title>
<path fill="none" stroke="grey" stroke-width="2" d="M552.82,-359.83C584.74,-335.92 635.5,-289.36 635.5,-235 635.5,-235 635.5,-235 635.5,-161 635.5,-81.92 534.86,-45.1 468.2,-29.39"/>
<polygon fill="grey" stroke="grey" stroke-width="2" points="468.74,-25.92 458.22,-27.13 467.2,-32.75 468.74,-25.92"/>
</g>
<!-- 7&#45;&gt;8 -->
<g id="edge19" class="edge">
<title>7&#45;&gt;8</title>
<path fill="none" stroke="grey" stroke-width="2" d="M523.79,-359.7C522.14,-351.98 520.15,-342.71 518.31,-334.11"/>
<polygon fill="grey" stroke="grey" stroke-width="2" points="521.68,-333.15 516.17,-324.1 514.84,-334.62 521.68,-333.15"/>
</g>
<!-- 7&#45;&gt;9 -->
<g id="edge21" class="edge">
<title>7&#45;&gt;9</title>
<path fill="none" stroke="grey" stroke-width="2" d="M544.39,-359.99C552.79,-350.31 562.08,-337.46 566.5,-324 571.49,-308.8 572.69,-302.75 566.5,-288 561.86,-276.95 553.67,-267.04 545.04,-258.86"/>
<polygon fill="grey" stroke="grey" stroke-width="2" points="547.24,-256.14 537.43,-252.14 542.61,-261.38 547.24,-256.14"/>
</g>
<!-- 7&#45;&gt;10 -->
<g id="edge24" class="edge">
<title>7&#45;&gt;10</title>
<path fill="none" stroke="grey" stroke-width="2" d="M503.41,-359.79C490.02,-349.86 473.33,-336.82 459.5,-324 437.7,-303.81 415.13,-278.58 399.36,-260.15"/>
<polygon fill="grey" stroke="grey" stroke-width="2" points="401.76,-257.57 392.63,-252.2 396.42,-262.09 401.76,-257.57"/>
</g>
<!-- 8&#45;&gt;0 -->
<g id="edge4" class="edge">
<title>8&#45;&gt;0</title>
<path fill="none" stroke="grey" stroke-width="2" d="M544.55,-287.88C557.62,-279.05 571.32,-266.97 578.5,-252 603.23,-200.42 585.81,-124.51 539.5,-72 521.05,-51.08 493.08,-38.25 467.9,-30.48"/>
<polygon fill="grey" stroke="grey" stroke-width="2" points="468.62,-27.04 458.04,-27.64 466.68,-33.77 468.62,-27.04"/>
</g>
<!-- 8&#45;&gt;9 -->
<g id="edge22" class="edge">
<title>8&#45;&gt;9</title>
<path fill="none" stroke="grey" stroke-width="2" d="M512.5,-287.7C512.5,-279.98 512.5,-270.71 512.5,-262.11"/>
<polygon fill="grey" stroke="grey" stroke-width="2" points="516,-262.1 512.5,-252.1 509,-262.1 516,-262.1"/>
</g>
<!-- 8&#45;&gt;10 -->
<g id="edge25" class="edge">
<title>8&#45;&gt;10</title>
<path fill="none" stroke="grey" stroke-width="2" d="M479.72,-287.88C461.87,-278.55 439.6,-266.92 420.5,-256.94"/>
<polygon fill="grey" stroke="grey" stroke-width="2" points="421.89,-253.72 411.41,-252.19 418.65,-259.92 421.89,-253.72"/>
</g>
<!-- 9&#45;&gt;0 -->
<g id="edge5" class="edge">
<title>9&#45;&gt;0</title>
<path fill="none" stroke="grey" stroke-width="2" d="M519.11,-215.89C530,-184.63 547.84,-117.3 519.5,-72 507.84,-53.37 487.55,-41.12 467.61,-33.14"/>
<polygon fill="grey" stroke="grey" stroke-width="2" points="468.79,-29.85 458.2,-29.66 466.37,-36.41 468.79,-29.85"/>
</g>
<!-- 11 -->
<g id="node12" class="node">
<title>11</title>
<path fill="none" stroke="#ced856" stroke-width="2" d="M445.5,-180C445.5,-180 375.5,-180 375.5,-180 369.5,-180 363.5,-174 363.5,-168 363.5,-168 363.5,-156 363.5,-156 363.5,-150 369.5,-144 375.5,-144 375.5,-144 445.5,-144 445.5,-144 451.5,-144 457.5,-150 457.5,-156 457.5,-156 457.5,-168 457.5,-168 457.5,-174 451.5,-180 445.5,-180"/>
<text text-anchor="middle" x="410.5" y="-159.5" font-family="sans" font-size="10.00">collapse_scores</text>
</g>
<!-- 9&#45;&gt;11 -->
<g id="edge26" class="edge">
<title>9&#45;&gt;11</title>
<path fill="none" stroke="grey" stroke-width="2" d="M487.55,-215.88C474.46,-206.89 458.24,-195.76 444.06,-186.03"/>
<polygon fill="grey" stroke="grey" stroke-width="2" points="445.77,-182.96 435.55,-180.19 441.81,-188.73 445.77,-182.96"/>
</g>
<!-- 10&#45;&gt;0 -->
<g id="edge6" class="edge">
<title>10&#45;&gt;0</title>
<path fill="none" stroke="grey" stroke-width="2" d="M318.88,-217.45C234.69,-192.66 97.09,-139.95 152.5,-72 177.27,-41.62 284.58,-28.16 352.77,-22.58"/>
<polygon fill="grey" stroke="grey" stroke-width="2" points="353.25,-26.06 362.94,-21.79 352.7,-19.08 353.25,-26.06"/>
</g>
<!-- 10&#45;&gt;11 -->
<g id="edge27" class="edge">
<title>10&#45;&gt;11</title>
<path fill="none" stroke="grey" stroke-width="2" d="M386.41,-215.7C390.05,-207.73 394.45,-198.1 398.49,-189.26"/>
<polygon fill="grey" stroke="grey" stroke-width="2" points="401.71,-190.65 402.68,-180.1 395.34,-187.74 401.71,-190.65"/>
</g>
<!-- 11&#45;&gt;0 -->
<g id="edge7" class="edge">
<title>11&#45;&gt;0</title>
<path fill="none" stroke="grey" stroke-width="2" d="M457.69,-145.39C474.94,-137.14 492.63,-125.08 502.5,-108 510.51,-94.15 510.51,-85.85 502.5,-72 494.48,-58.12 481.29,-47.56 467.38,-39.66"/>
<polygon fill="grey" stroke="grey" stroke-width="2" points="468.66,-36.38 458.17,-34.84 465.41,-42.58 468.66,-36.38"/>
</g>
<!-- 12 -->
<g id="node13" class="node">
<title>12</title>
<path fill="none" stroke="#9fd856" stroke-width="2" d="M297.5,-108C297.5,-108 173.5,-108 173.5,-108 167.5,-108 161.5,-102 161.5,-96 161.5,-96 161.5,-84 161.5,-84 161.5,-78 167.5,-72 173.5,-72 173.5,-72 297.5,-72 297.5,-72 303.5,-72 309.5,-78 309.5,-84 309.5,-84 309.5,-96 309.5,-96 309.5,-102 303.5,-108 297.5,-108"/>
<text text-anchor="middle" x="235.5" y="-87.5" font-family="sans" font-size="10.00">interactive_heatmap_delta</text>
</g>
<!-- 11&#45;&gt;12 -->
<g id="edge28" class="edge">
<title>11&#45;&gt;12</title>
<path fill="none" stroke="grey" stroke-width="2" d="M367.69,-143.88C343.55,-134.22 313.22,-122.09 287.69,-111.88"/>
<polygon fill="grey" stroke="grey" stroke-width="2" points="288.76,-108.53 278.17,-108.07 286.16,-115.03 288.76,-108.53"/>
</g>
<!-- 13 -->
<g id="node14" class="node">
<title>13</title>
<path fill="none" stroke="#56b1d8" stroke-width="2" d="M481,-108C481,-108 340,-108 340,-108 334,-108 328,-102 328,-96 328,-96 328,-84 328,-84 328,-78 334,-72 340,-72 340,-72 481,-72 481,-72 487,-72 493,-78 493,-84 493,-84 493,-96 493,-96 493,-102 487,-108 481,-108"/>
<text text-anchor="middle" x="410.5" y="-87.5" font-family="sans" font-size="10.00">interactive_heatmap_absolute</text>
</g>
<!-- 11&#45;&gt;13 -->
<g id="edge29" class="edge">
<title>11&#45;&gt;13</title>
<path fill="none" stroke="grey" stroke-width="2" d="M410.5,-143.7C410.5,-135.98 410.5,-126.71 410.5,-118.11"/>
<polygon fill="grey" stroke="grey" stroke-width="2" points="414,-118.1 410.5,-108.1 407,-118.1 414,-118.1"/>
</g>
<!-- 12&#45;&gt;0 -->
<g id="edge8" class="edge">
<title>12&#45;&gt;0</title>
<path fill="none" stroke="grey" stroke-width="2" d="M278.31,-71.88C302.45,-62.22 332.78,-50.09 358.31,-39.88"/>
<polygon fill="grey" stroke="grey" stroke-width="2" points="359.84,-43.03 367.83,-36.07 357.24,-36.53 359.84,-43.03"/>
</g>
<!-- 13&#45;&gt;0 -->
<g id="edge9" class="edge">
<title>13&#45;&gt;0</title>
<path fill="none" stroke="grey" stroke-width="2" d="M410.5,-71.7C410.5,-63.98 410.5,-54.71 410.5,-46.11"/>
<polygon fill="grey" stroke="grey" stroke-width="2" points="414,-46.1 410.5,-36.1 407,-46.1 414,-46.1"/>
</g>
</g>
</svg>
