<?xml version="1.0" encoding="UTF-8" standalone="no"?>
<!DOCTYPE svg PUBLIC "-//W3C//DTD SVG 1.1//EN"
 "http://www.w3.org/Graphics/SVG/1.1/DTD/svg11.dtd">
<!-- Generated by graphviz version 2.50.0 (20211209.0339)
 -->
<!-- Title: snakemake_dag Pages: 1 -->
<svg width="782pt" height="476pt"
 viewBox="0.00 0.00 782.00 476.00" xmlns="http://www.w3.org/2000/svg" xmlns:xlink="http://www.w3.org/1999/xlink">
<g id="graph0" class="graph" transform="scale(1 1) rotate(0) translate(4 472)">
<title>snakemake_dag</title>
<polygon fill="white" stroke="transparent" points="-4,4 -4,-472 778,-472 778,4 -4,4"/>
<!-- 0 -->
<g id="node1" class="node">
<title>0</title>
<path fill="none" stroke="#56b1d8" stroke-width="2" d="M379.5,-36C379.5,-36 308.5,-36 308.5,-36 302.5,-36 296.5,-30 296.5,-24 296.5,-24 296.5,-12 296.5,-12 296.5,-6 302.5,0 308.5,0 308.5,0 379.5,0 379.5,0 385.5,0 391.5,-6 391.5,-12 391.5,-12 391.5,-24 391.5,-24 391.5,-30 385.5,-36 379.5,-36"/>
<text text-anchor="middle" x="344" y="-15.5" font-family="sans" font-size="10.00">make_summary</text>
</g>
<!-- 1 -->
<g id="node2" class="node">
<title>1</title>
<path fill="none" stroke="#56d86b" stroke-width="2" d="M58.5,-108C58.5,-108 15.5,-108 15.5,-108 9.5,-108 3.5,-102 3.5,-96 3.5,-96 3.5,-84 3.5,-84 3.5,-78 9.5,-72 15.5,-72 15.5,-72 58.5,-72 58.5,-72 64.5,-72 70.5,-78 70.5,-84 70.5,-84 70.5,-96 70.5,-96 70.5,-102 64.5,-108 58.5,-108"/>
<text text-anchor="middle" x="37" y="-87.5" font-family="sans" font-size="10.00">make_dag</text>
</g>
<!-- 1&#45;&gt;0 -->
<g id="edge1" class="edge">
<title>1&#45;&gt;0</title>
<path fill="none" stroke="grey" stroke-width="2" d="M70.64,-76.43C75.43,-74.83 80.32,-73.3 85,-72 153.34,-53 233.55,-37.63 286.4,-28.43"/>
<polygon fill="grey" stroke="grey" stroke-width="2" points="287.01,-31.87 296.27,-26.72 285.82,-24.97 287.01,-31.87"/>
</g>
<!-- 2 -->
<g id="node3" class="node">
<title>2</title>
<path fill="none" stroke="#5682d8" stroke-width="2" d="M362,-396C362,-396 278,-396 278,-396 272,-396 266,-390 266,-384 266,-384 266,-372 266,-372 266,-366 272,-360 278,-360 278,-360 362,-360 362,-360 368,-360 374,-366 374,-372 374,-372 374,-384 374,-384 374,-390 368,-396 362,-396"/>
<text text-anchor="middle" x="320" y="-375.5" font-family="sans" font-size="10.00">process_ccs_MERS</text>
</g>
<!-- 2&#45;&gt;0 -->
<g id="edge2" class="edge">
<title>2&#45;&gt;0</title>
<path fill="none" stroke="grey" stroke-width="2" d="M265.94,-366.92C200.51,-351.22 99,-314.13 99,-235 99,-235 99,-235 99,-161 99,-117.07 108.08,-99.92 142,-72 182.77,-38.44 242.54,-25.91 286.49,-21.35"/>
<polygon fill="grey" stroke="grey" stroke-width="2" points="286.82,-24.83 296.46,-20.42 286.17,-17.86 286.82,-24.83"/>
</g>
<!-- 8 -->
<g id="node9" class="node">
<title>8</title>
<path fill="none" stroke="#d88556" stroke-width="2" d="M478.5,-324C478.5,-324 413.5,-324 413.5,-324 407.5,-324 401.5,-318 401.5,-312 401.5,-312 401.5,-300 401.5,-300 401.5,-294 407.5,-288 413.5,-288 413.5,-288 478.5,-288 478.5,-288 484.5,-288 490.5,-294 490.5,-300 490.5,-300 490.5,-312 490.5,-312 490.5,-318 484.5,-324 478.5,-324"/>
<text text-anchor="middle" x="446" y="-303.5" font-family="sans" font-size="10.00">count_variants</text>
</g>
<!-- 2&#45;&gt;8 -->
<g id="edge18" class="edge">
<title>2&#45;&gt;8</title>
<path fill="none" stroke="grey" stroke-width="2" d="M350.82,-359.88C367.45,-350.64 388.16,-339.13 406.02,-329.21"/>
<polygon fill="grey" stroke="grey" stroke-width="2" points="408.02,-332.11 415.06,-324.19 404.62,-325.99 408.02,-332.11"/>
</g>
<!-- 9 -->
<g id="node10" class="node">
<title>9</title>
<path fill="none" stroke="#70d856" stroke-width="2" d="M476,-252C476,-252 424,-252 424,-252 418,-252 412,-246 412,-240 412,-240 412,-228 412,-228 412,-222 418,-216 424,-216 424,-216 476,-216 476,-216 482,-216 488,-222 488,-228 488,-228 488,-240 488,-240 488,-246 482,-252 476,-252"/>
<text text-anchor="middle" x="450" y="-231.5" font-family="sans" font-size="10.00">fit_titrations</text>
</g>
<!-- 2&#45;&gt;9 -->
<g id="edge20" class="edge">
<title>2&#45;&gt;9</title>
<path fill="none" stroke="grey" stroke-width="2" d="M333.07,-359.7C347.2,-341.33 370.69,-311.74 393,-288 402.35,-278.05 413.19,-267.71 422.89,-258.82"/>
<polygon fill="grey" stroke="grey" stroke-width="2" points="425.32,-261.35 430.38,-252.05 420.62,-256.16 425.32,-261.35"/>
</g>
<!-- 10 -->
<g id="node11" class="node">
<title>10</title>
<path fill="none" stroke="#ced856" stroke-width="2" d="M381.5,-252C381.5,-252 286.5,-252 286.5,-252 280.5,-252 274.5,-246 274.5,-240 274.5,-240 274.5,-228 274.5,-228 274.5,-222 280.5,-216 286.5,-216 286.5,-216 381.5,-216 381.5,-216 387.5,-216 393.5,-222 393.5,-228 393.5,-228 393.5,-240 393.5,-240 393.5,-246 387.5,-252 381.5,-252"/>
<text text-anchor="middle" x="334" y="-231.5" font-family="sans" font-size="10.00">calculate_expression</text>
</g>
<!-- 2&#45;&gt;10 -->
<g id="edge23" class="edge">
<title>2&#45;&gt;10</title>
<path fill="none" stroke="grey" stroke-width="2" d="M319.03,-359.86C318.29,-341.88 317.86,-312.83 321,-288 322.07,-279.54 324,-270.48 326.04,-262.28"/>
<polygon fill="grey" stroke="grey" stroke-width="2" points="329.46,-263.04 328.64,-252.48 322.7,-261.25 329.46,-263.04"/>
</g>
<!-- 3 -->
<g id="node4" class="node">
<title>3</title>
<path fill="none" stroke="#d85656" stroke-width="2" d="M762,-468C762,-468 614,-468 614,-468 608,-468 602,-462 602,-456 602,-456 602,-444 602,-444 602,-438 608,-432 614,-432 614,-432 762,-432 762,-432 768,-432 774,-438 774,-444 774,-444 774,-456 774,-456 774,-462 768,-468 762,-468"/>
<text text-anchor="middle" x="688" y="-453" font-family="sans" font-size="10.00">get_ccs</text>
<text text-anchor="middle" x="688" y="-442" font-family="sans" font-size="10.00">pacbioRun: lib51_MERS_221209</text>
</g>
<!-- 3&#45;&gt;2 -->
<g id="edge10" class="edge">
<title>3&#45;&gt;2</title>
<path fill="none" stroke="grey" stroke-width="2" d="M601.79,-433.57C598.82,-433.04 595.89,-432.51 593,-432 502.79,-415.93 479.68,-414.82 390,-396 388.07,-395.6 386.12,-395.18 384.14,-394.75"/>
<polygon fill="grey" stroke="grey" stroke-width="2" points="384.71,-391.29 374.19,-392.52 383.18,-398.12 384.71,-391.29"/>
</g>
<!-- 7 -->
<g id="node8" class="node">
<title>7</title>
<path fill="none" stroke="#56d8c9" stroke-width="2" d="M511,-396C511,-396 411,-396 411,-396 405,-396 399,-390 399,-384 399,-384 399,-372 399,-372 399,-366 405,-360 411,-360 411,-360 511,-360 511,-360 517,-360 523,-366 523,-372 523,-372 523,-384 523,-384 523,-390 517,-396 511,-396"/>
<text text-anchor="middle" x="461" y="-375.5" font-family="sans" font-size="10.00">process_ccs_PDF2180</text>
</g>
<!-- 3&#45;&gt;7 -->
<g id="edge14" class="edge">
<title>3&#45;&gt;7</title>
<path fill="none" stroke="grey" stroke-width="2" d="M632.76,-431.97C600.63,-422.06 559.95,-409.51 526.25,-399.12"/>
<polygon fill="grey" stroke="grey" stroke-width="2" points="527.08,-395.71 516.49,-396.11 525.01,-402.4 527.08,-395.71"/>
</g>
<!-- 4 -->
<g id="node5" class="node">
<title>4</title>
<path fill="none" stroke="#d85656" stroke-width="2" d="M160,-468C160,-468 12,-468 12,-468 6,-468 0,-462 0,-456 0,-456 0,-444 0,-444 0,-438 6,-432 12,-432 12,-432 160,-432 160,-432 166,-432 172,-438 172,-444 172,-444 172,-456 172,-456 172,-462 166,-468 160,-468"/>
<text text-anchor="middle" x="86" y="-453" font-family="sans" font-size="10.00">get_ccs</text>
<text text-anchor="middle" x="86" y="-442" font-family="sans" font-size="10.00">pacbioRun: lib52_MERS_221209</text>
</g>
<!-- 4&#45;&gt;2 -->
<g id="edge11" class="edge">
<title>4&#45;&gt;2</title>
<path fill="none" stroke="grey" stroke-width="2" d="M142.94,-431.97C177.07,-421.76 220.56,-408.75 255.89,-398.18"/>
<polygon fill="grey" stroke="grey" stroke-width="2" points="257.05,-401.49 265.62,-395.27 255.04,-394.78 257.05,-401.49"/>
</g>
<!-- 4&#45;&gt;7 -->
<g id="edge15" class="edge">
<title>4&#45;&gt;7</title>
<path fill="none" stroke="grey" stroke-width="2" d="M172.21,-433.57C175.18,-433.04 178.11,-432.52 181,-432 270.77,-415.97 293.54,-413.71 383,-396 384.94,-395.62 386.9,-395.22 388.88,-394.82"/>
<polygon fill="grey" stroke="grey" stroke-width="2" points="389.8,-398.21 398.88,-392.76 388.38,-391.35 389.8,-398.21"/>
</g>
<!-- 5 -->
<g id="node6" class="node">
<title>5</title>
<path fill="none" stroke="#d85656" stroke-width="2" d="M366,-468C366,-468 202,-468 202,-468 196,-468 190,-462 190,-456 190,-456 190,-444 190,-444 190,-438 196,-432 202,-432 202,-432 366,-432 366,-432 372,-432 378,-438 378,-444 378,-444 378,-456 378,-456 378,-462 372,-468 366,-468"/>
<text text-anchor="middle" x="284" y="-453" font-family="sans" font-size="10.00">get_ccs</text>
<text text-anchor="middle" x="284" y="-442" font-family="sans" font-size="10.00">pacbioRun: lib53_PDF2180_221209</text>
</g>
<!-- 5&#45;&gt;2 -->
<g id="edge12" class="edge">
<title>5&#45;&gt;2</title>
<path fill="none" stroke="grey" stroke-width="2" d="M292.9,-431.7C297,-423.73 301.95,-414.1 306.49,-405.26"/>
<polygon fill="grey" stroke="grey" stroke-width="2" points="309.74,-406.6 311.2,-396.1 303.52,-403.4 309.74,-406.6"/>
</g>
<!-- 5&#45;&gt;7 -->
<g id="edge16" class="edge">
<title>5&#45;&gt;7</title>
<path fill="none" stroke="grey" stroke-width="2" d="M327.3,-431.88C351.71,-422.22 382.4,-410.09 408.21,-399.88"/>
<polygon fill="grey" stroke="grey" stroke-width="2" points="409.83,-403 417.84,-396.07 407.26,-396.49 409.83,-403"/>
</g>
<!-- 6 -->
<g id="node7" class="node">
<title>6</title>
<path fill="none" stroke="#d85656" stroke-width="2" d="M572,-468C572,-468 408,-468 408,-468 402,-468 396,-462 396,-456 396,-456 396,-444 396,-444 396,-438 402,-432 408,-432 408,-432 572,-432 572,-432 578,-432 584,-438 584,-444 584,-444 584,-456 584,-456 584,-462 578,-468 572,-468"/>
<text text-anchor="middle" x="490" y="-453" font-family="sans" font-size="10.00">get_ccs</text>
<text text-anchor="middle" x="490" y="-442" font-family="sans" font-size="10.00">pacbioRun: lib54_PDF2180_221209</text>
</g>
<!-- 6&#45;&gt;2 -->
<g id="edge13" class="edge">
<title>6&#45;&gt;2</title>
<path fill="none" stroke="grey" stroke-width="2" d="M448.41,-431.88C424.97,-422.22 395.5,-410.09 370.7,-399.88"/>
<polygon fill="grey" stroke="grey" stroke-width="2" points="372.03,-396.64 361.45,-396.07 369.37,-403.11 372.03,-396.64"/>
</g>
<!-- 6&#45;&gt;7 -->
<g id="edge17" class="edge">
<title>6&#45;&gt;7</title>
<path fill="none" stroke="grey" stroke-width="2" d="M482.83,-431.7C479.57,-423.81 475.63,-414.3 472,-405.55"/>
<polygon fill="grey" stroke="grey" stroke-width="2" points="475.15,-404 468.09,-396.1 468.68,-406.68 475.15,-404"/>
</g>
<!-- 7&#45;&gt;0 -->
<g id="edge3" class="edge">
<title>7&#45;&gt;0</title>
<path fill="none" stroke="grey" stroke-width="2" d="M482.78,-359.83C511.11,-335.39 557,-287.67 557,-235 557,-235 557,-235 557,-161 557,-86.01 464.48,-48.19 401.39,-31.11"/>
<polygon fill="grey" stroke="grey" stroke-width="2" points="402.1,-27.68 391.54,-28.55 400.33,-34.45 402.1,-27.68"/>
</g>
<!-- 7&#45;&gt;8 -->
<g id="edge19" class="edge">
<title>7&#45;&gt;8</title>
<path fill="none" stroke="grey" stroke-width="2" d="M457.29,-359.7C455.64,-351.98 453.65,-342.71 451.81,-334.11"/>
<polygon fill="grey" stroke="grey" stroke-width="2" points="455.18,-333.15 449.67,-324.1 448.34,-334.62 455.18,-333.15"/>
</g>
<!-- 7&#45;&gt;9 -->
<g id="edge21" class="edge">
<title>7&#45;&gt;9</title>
<path fill="none" stroke="grey" stroke-width="2" d="M477.89,-359.99C486.29,-350.31 495.58,-337.46 500,-324 504.99,-308.8 505.91,-302.87 500,-288 495.71,-277.2 488.06,-267.32 480.01,-259.1"/>
<polygon fill="grey" stroke="grey" stroke-width="2" points="482.25,-256.4 472.6,-252.04 477.42,-261.47 482.25,-256.4"/>
</g>
<!-- 7&#45;&gt;10 -->
<g id="edge24" class="edge">
<title>7&#45;&gt;10</title>
<path fill="none" stroke="grey" stroke-width="2" d="M435.14,-359.89C421.7,-350.27 405.51,-337.51 393,-324 375.22,-304.8 359.11,-279.72 348.23,-261.07"/>
<polygon fill="grey" stroke="grey" stroke-width="2" points="351.18,-259.18 343.19,-252.24 345.11,-262.65 351.18,-259.18"/>
</g>
<!-- 8&#45;&gt;0 -->
<g id="edge4" class="edge">
<title>8&#45;&gt;0</title>
<path fill="none" stroke="grey" stroke-width="2" d="M469.3,-287.82C479.9,-278.54 491.32,-266.09 497,-252 518.39,-198.92 497.32,-115.54 461,-72 445.7,-53.65 422.71,-41.38 401.15,-33.31"/>
<polygon fill="grey" stroke="grey" stroke-width="2" points="402.29,-30 391.7,-30 399.98,-36.61 402.29,-30"/>
</g>
<!-- 8&#45;&gt;9 -->
<g id="edge22" class="edge">
<title>8&#45;&gt;9</title>
<path fill="none" stroke="grey" stroke-width="2" d="M446.99,-287.7C447.43,-279.98 447.96,-270.71 448.45,-262.11"/>
<polygon fill="grey" stroke="grey" stroke-width="2" points="451.95,-262.29 449.02,-252.1 444.96,-261.89 451.95,-262.29"/>
</g>
<!-- 8&#45;&gt;10 -->
<g id="edge25" class="edge">
<title>8&#45;&gt;10</title>
<path fill="none" stroke="grey" stroke-width="2" d="M418.6,-287.88C404.09,-278.81 386.08,-267.55 370.41,-257.76"/>
<polygon fill="grey" stroke="grey" stroke-width="2" points="371.84,-254.52 361.5,-252.19 368.13,-260.46 371.84,-254.52"/>
</g>
<!-- 9&#45;&gt;0 -->
<g id="edge5" class="edge">
<title>9&#45;&gt;0</title>
<path fill="none" stroke="grey" stroke-width="2" d="M453.93,-215.87C460.09,-184.57 468.6,-117.2 440,-72 430.72,-57.34 415.89,-46.4 400.63,-38.39"/>
<polygon fill="grey" stroke="grey" stroke-width="2" points="402.16,-35.25 391.63,-34.01 399.09,-41.54 402.16,-35.25"/>
</g>
<!-- 11 -->
<g id="node12" class="node">
<title>11</title>
<path fill="none" stroke="#9fd856" stroke-width="2" d="M379,-180C379,-180 309,-180 309,-180 303,-180 297,-174 297,-168 297,-168 297,-156 297,-156 297,-150 303,-144 309,-144 309,-144 379,-144 379,-144 385,-144 391,-150 391,-156 391,-156 391,-168 391,-168 391,-174 385,-180 379,-180"/>
<text text-anchor="middle" x="344" y="-159.5" font-family="sans" font-size="10.00">collapse_scores</text>
</g>
<!-- 9&#45;&gt;11 -->
<g id="edge26" class="edge">
<title>9&#45;&gt;11</title>
<path fill="none" stroke="grey" stroke-width="2" d="M424.07,-215.88C410.34,-206.81 393.29,-195.55 378.46,-185.76"/>
<polygon fill="grey" stroke="grey" stroke-width="2" points="380.3,-182.78 370.03,-180.19 376.45,-188.62 380.3,-182.78"/>
</g>
<!-- 10&#45;&gt;0 -->
<g id="edge6" class="edge">
<title>10&#45;&gt;0</title>
<path fill="none" stroke="grey" stroke-width="2" d="M287.33,-215.91C220.41,-188.79 110.04,-132.71 156,-72 171.85,-51.07 237.3,-36.07 286.55,-27.48"/>
<polygon fill="grey" stroke="grey" stroke-width="2" points="287.2,-30.92 296.48,-25.8 286.03,-24.02 287.2,-30.92"/>
</g>
<!-- 10&#45;&gt;11 -->
<g id="edge27" class="edge">
<title>10&#45;&gt;11</title>
<path fill="none" stroke="grey" stroke-width="2" d="M336.47,-215.7C337.57,-207.98 338.9,-198.71 340.13,-190.11"/>
<polygon fill="grey" stroke="grey" stroke-width="2" points="343.61,-190.5 341.56,-180.1 336.68,-189.51 343.61,-190.5"/>
</g>
<!-- 11&#45;&gt;0 -->
<g id="edge7" class="edge">
<title>11&#45;&gt;0</title>
<path fill="none" stroke="grey" stroke-width="2" d="M385.18,-144C400.21,-135.54 415.57,-123.71 424,-108 431.57,-93.9 431.57,-86.1 424,-72 417.21,-59.36 405.94,-49.23 393.97,-41.35"/>
<polygon fill="grey" stroke="grey" stroke-width="2" points="395.55,-38.21 385.18,-36 391.91,-44.19 395.55,-38.21"/>
</g>
<!-- 12 -->
<g id="node13" class="node">
<title>12</title>
<path fill="none" stroke="#d8b456" stroke-width="2" d="M243,-108C243,-108 177,-108 177,-108 171,-108 165,-102 165,-96 165,-96 165,-84 165,-84 165,-78 171,-72 177,-72 177,-72 243,-72 243,-72 249,-72 255,-78 255,-84 255,-84 255,-96 255,-96 255,-102 249,-108 243,-108"/>
<text text-anchor="middle" x="210" y="-87.5" font-family="sans" font-size="10.00">epistatic_shifts</text>
</g>
<!-- 11&#45;&gt;12 -->
<g id="edge28" class="edge">
<title>11&#45;&gt;12</title>
<path fill="none" stroke="grey" stroke-width="2" d="M311.22,-143.88C293.37,-134.55 271.1,-122.92 252,-112.94"/>
<polygon fill="grey" stroke="grey" stroke-width="2" points="253.39,-109.72 242.91,-108.19 250.15,-115.92 253.39,-109.72"/>
</g>
<!-- 13 -->
<g id="node14" class="node">
<title>13</title>
<path fill="none" stroke="#56d89a" stroke-width="2" d="M403,-108C403,-108 285,-108 285,-108 279,-108 273,-102 273,-96 273,-96 273,-84 273,-84 273,-78 279,-72 285,-72 285,-72 403,-72 403,-72 409,-72 415,-78 415,-84 415,-84 415,-96 415,-96 415,-102 409,-108 403,-108"/>
<text text-anchor="middle" x="344" y="-87.5" font-family="sans" font-size="10.00">interactive_heatmap_plot</text>
</g>
<!-- 11&#45;&gt;13 -->
<g id="edge29" class="edge">
<title>11&#45;&gt;13</title>
<path fill="none" stroke="grey" stroke-width="2" d="M344,-143.7C344,-135.98 344,-126.71 344,-118.11"/>
<polygon fill="grey" stroke="grey" stroke-width="2" points="347.5,-118.1 344,-108.1 340.5,-118.1 347.5,-118.1"/>
</g>
<!-- 12&#45;&gt;0 -->
<g id="edge8" class="edge">
<title>12&#45;&gt;0</title>
<path fill="none" stroke="grey" stroke-width="2" d="M242.78,-71.88C260.63,-62.55 282.9,-50.92 302,-40.94"/>
<polygon fill="grey" stroke="grey" stroke-width="2" points="303.85,-43.92 311.09,-36.19 300.61,-37.72 303.85,-43.92"/>
</g>
<!-- 13&#45;&gt;0 -->
<g id="edge9" class="edge">
<title>13&#45;&gt;0</title>
<path fill="none" stroke="grey" stroke-width="2" d="M344,-71.7C344,-63.98 344,-54.71 344,-46.11"/>
<polygon fill="grey" stroke="grey" stroke-width="2" points="347.5,-46.1 344,-36.1 340.5,-46.1 347.5,-46.1"/>
</g>
</g>
</svg>
