<?xml version="1.0" encoding="UTF-8" standalone="no"?>
<!DOCTYPE svg PUBLIC "-//W3C//DTD SVG 1.1//EN"
 "http://www.w3.org/Graphics/SVG/1.1/DTD/svg11.dtd">
<!-- Generated by graphviz version 2.50.0 (0)
 -->
<!-- Title: snakemake_dag Pages: 1 -->
<svg width="850pt" height="476pt"
 viewBox="0.00 0.00 850.00 476.00" xmlns="http://www.w3.org/2000/svg" xmlns:xlink="http://www.w3.org/1999/xlink">
<g id="graph0" class="graph" transform="scale(1 1) rotate(0) translate(4 472)">
<title>snakemake_dag</title>
<polygon fill="white" stroke="transparent" points="-4,4 -4,-472 846,-472 846,4 -4,4"/>
<!-- 0 -->
<g id="node1" class="node">
<title>0</title>
<path fill="none" stroke="#d85656" stroke-width="2" d="M425,-36C425,-36 354,-36 354,-36 348,-36 342,-30 342,-24 342,-24 342,-12 342,-12 342,-6 348,0 354,0 354,0 425,0 425,0 431,0 437,-6 437,-12 437,-12 437,-24 437,-24 437,-30 431,-36 425,-36"/>
<text text-anchor="middle" x="389.5" y="-15.5" font-family="sans" font-size="10.00">make_summary</text>
</g>
<!-- 1 -->
<g id="node2" class="node">
<title>1</title>
<path fill="none" stroke="#56b1d8" stroke-width="2" d="M104,-108C104,-108 61,-108 61,-108 55,-108 49,-102 49,-96 49,-96 49,-84 49,-84 49,-78 55,-72 61,-72 61,-72 104,-72 104,-72 110,-72 116,-78 116,-84 116,-84 116,-96 116,-96 116,-102 110,-108 104,-108"/>
<text text-anchor="middle" x="82.5" y="-87.5" font-family="sans" font-size="10.00">make_dag</text>
</g>
<!-- 1&#45;&gt;0 -->
<g id="edge1" class="edge">
<title>1&#45;&gt;0</title>
<path fill="none" stroke="grey" stroke-width="2" d="M116.14,-76.43C120.93,-74.83 125.82,-73.3 130.5,-72 198.84,-53 279.05,-37.63 331.9,-28.43"/>
<polygon fill="grey" stroke="grey" stroke-width="2" points="332.51,-31.87 341.77,-26.72 331.32,-24.97 332.51,-31.87"/>
</g>
<!-- 2 -->
<g id="node3" class="node">
<title>2</title>
<path fill="none" stroke="#56d86b" stroke-width="2" d="M395.5,-396C395.5,-396 311.5,-396 311.5,-396 305.5,-396 299.5,-390 299.5,-384 299.5,-384 299.5,-372 299.5,-372 299.5,-366 305.5,-360 311.5,-360 311.5,-360 395.5,-360 395.5,-360 401.5,-360 407.5,-366 407.5,-372 407.5,-372 407.5,-384 407.5,-384 407.5,-390 401.5,-396 395.5,-396"/>
<text text-anchor="middle" x="353.5" y="-375.5" font-family="sans" font-size="10.00">process_ccs_MERS</text>
</g>
<!-- 2&#45;&gt;0 -->
<g id="edge2" class="edge">
<title>2&#45;&gt;0</title>
<path fill="none" stroke="grey" stroke-width="2" d="M299.41,-365.17C237.48,-348.06 144.5,-309.9 144.5,-235 144.5,-235 144.5,-235 144.5,-161 144.5,-117.07 153.58,-99.92 187.5,-72 228.27,-38.44 288.04,-25.91 331.99,-21.35"/>
<polygon fill="grey" stroke="grey" stroke-width="2" points="332.32,-24.83 341.96,-20.42 331.67,-17.86 332.32,-24.83"/>
</g>
<!-- 8 -->
<g id="node9" class="node">
<title>8</title>
<path fill="none" stroke="#d88556" stroke-width="2" d="M512,-324C512,-324 447,-324 447,-324 441,-324 435,-318 435,-312 435,-312 435,-300 435,-300 435,-294 441,-288 447,-288 447,-288 512,-288 512,-288 518,-288 524,-294 524,-300 524,-300 524,-312 524,-312 524,-318 518,-324 512,-324"/>
<text text-anchor="middle" x="479.5" y="-303.5" font-family="sans" font-size="10.00">count_variants</text>
</g>
<!-- 2&#45;&gt;8 -->
<g id="edge18" class="edge">
<title>2&#45;&gt;8</title>
<path fill="none" stroke="grey" stroke-width="2" d="M384.32,-359.88C400.95,-350.64 421.66,-339.13 439.52,-329.21"/>
<polygon fill="grey" stroke="grey" stroke-width="2" points="441.52,-332.11 448.56,-324.19 438.12,-325.99 441.52,-332.11"/>
</g>
<!-- 9 -->
<g id="node10" class="node">
<title>9</title>
<path fill="none" stroke="#56d89a" stroke-width="2" d="M524,-252C524,-252 435,-252 435,-252 429,-252 423,-246 423,-240 423,-240 423,-228 423,-228 423,-222 429,-216 435,-216 435,-216 524,-216 524,-216 530,-216 536,-222 536,-228 536,-228 536,-240 536,-240 536,-246 530,-252 524,-252"/>
<text text-anchor="middle" x="479.5" y="-231.5" font-family="sans" font-size="10.00">fit_titrations_hDPP4</text>
</g>
<!-- 2&#45;&gt;9 -->
<g id="edge20" class="edge">
<title>2&#45;&gt;9</title>
<path fill="none" stroke="grey" stroke-width="2" d="M366.74,-359.85C381.01,-341.62 404.63,-312.14 426.5,-288 435.24,-278.36 445.24,-268.16 454.18,-259.31"/>
<polygon fill="grey" stroke="grey" stroke-width="2" points="456.7,-261.74 461.39,-252.24 451.8,-256.75 456.7,-261.74"/>
</g>
<!-- 10 -->
<g id="node11" class="node">
<title>10</title>
<path fill="none" stroke="#9fd856" stroke-width="2" d="M393,-252C393,-252 298,-252 298,-252 292,-252 286,-246 286,-240 286,-240 286,-228 286,-228 286,-222 292,-216 298,-216 298,-216 393,-216 393,-216 399,-216 405,-222 405,-228 405,-228 405,-240 405,-240 405,-246 399,-252 393,-252"/>
<text text-anchor="middle" x="345.5" y="-231.5" font-family="sans" font-size="10.00">calculate_expression</text>
</g>
<!-- 2&#45;&gt;10 -->
<g id="edge23" class="edge">
<title>2&#45;&gt;10</title>
<path fill="none" stroke="grey" stroke-width="2" d="M352.54,-359.87C351.17,-335.67 348.67,-291.21 347.04,-262.39"/>
<polygon fill="grey" stroke="grey" stroke-width="2" points="350.53,-261.98 346.47,-252.19 343.54,-262.37 350.53,-261.98"/>
</g>
<!-- 3 -->
<g id="node4" class="node">
<title>3</title>
<path fill="none" stroke="#d8b456" stroke-width="2" d="M830,-468C830,-468 665,-468 665,-468 659,-468 653,-462 653,-456 653,-456 653,-444 653,-444 653,-438 659,-432 665,-432 665,-432 830,-432 830,-432 836,-432 842,-438 842,-444 842,-444 842,-456 842,-456 842,-462 836,-468 830,-468"/>
<text text-anchor="middle" x="747.5" y="-453" font-family="sans" font-size="10.00">get_ccs</text>
<text text-anchor="middle" x="747.5" y="-442" font-family="sans" font-size="10.00">pacbioRun: lib51_53_MERS_221209</text>
</g>
<!-- 3&#45;&gt;2 -->
<g id="edge10" class="edge">
<title>3&#45;&gt;2</title>
<path fill="none" stroke="grey" stroke-width="2" d="M652.93,-433.38C650.09,-432.92 647.27,-432.45 644.5,-432 546.29,-415.9 521.04,-415.76 423.5,-396 421.57,-395.61 419.61,-395.2 417.64,-394.78"/>
<polygon fill="grey" stroke="grey" stroke-width="2" points="418.19,-391.32 407.67,-392.59 416.69,-398.16 418.19,-391.32"/>
</g>
<!-- 7 -->
<g id="node8" class="node">
<title>7</title>
<path fill="none" stroke="#70d856" stroke-width="2" d="M544.5,-396C544.5,-396 444.5,-396 444.5,-396 438.5,-396 432.5,-390 432.5,-384 432.5,-384 432.5,-372 432.5,-372 432.5,-366 438.5,-360 444.5,-360 444.5,-360 544.5,-360 544.5,-360 550.5,-360 556.5,-366 556.5,-372 556.5,-372 556.5,-384 556.5,-384 556.5,-390 550.5,-396 544.5,-396"/>
<text text-anchor="middle" x="494.5" y="-375.5" font-family="sans" font-size="10.00">process_ccs_PDF2180</text>
</g>
<!-- 3&#45;&gt;7 -->
<g id="edge14" class="edge">
<title>3&#45;&gt;7</title>
<path fill="none" stroke="grey" stroke-width="2" d="M685.93,-431.97C649.81,-421.97 604.01,-409.3 566.26,-398.85"/>
<polygon fill="grey" stroke="grey" stroke-width="2" points="566.91,-395.4 556.34,-396.11 565.05,-402.15 566.91,-395.4"/>
</g>
<!-- 4 -->
<g id="node5" class="node">
<title>4</title>
<path fill="none" stroke="#d8b456" stroke-width="2" d="M177,-468C177,-468 12,-468 12,-468 6,-468 0,-462 0,-456 0,-456 0,-444 0,-444 0,-438 6,-432 12,-432 12,-432 177,-432 177,-432 183,-432 189,-438 189,-444 189,-444 189,-456 189,-456 189,-462 183,-468 177,-468"/>
<text text-anchor="middle" x="94.5" y="-453" font-family="sans" font-size="10.00">get_ccs</text>
<text text-anchor="middle" x="94.5" y="-442" font-family="sans" font-size="10.00">pacbioRun: lib52_54_MERS_221209</text>
</g>
<!-- 4&#45;&gt;2 -->
<g id="edge11" class="edge">
<title>4&#45;&gt;2</title>
<path fill="none" stroke="grey" stroke-width="2" d="M157.53,-431.97C197.64,-421.12 249.43,-407.13 289.7,-396.24"/>
<polygon fill="grey" stroke="grey" stroke-width="2" points="290.67,-399.61 299.41,-393.62 288.84,-392.85 290.67,-399.61"/>
</g>
<!-- 4&#45;&gt;7 -->
<g id="edge15" class="edge">
<title>4&#45;&gt;7</title>
<path fill="none" stroke="grey" stroke-width="2" d="M189.07,-433.39C191.91,-432.92 194.73,-432.46 197.5,-432 294.83,-415.97 319.61,-414.51 416.5,-396 418.44,-395.63 420.41,-395.25 422.39,-394.86"/>
<polygon fill="grey" stroke="grey" stroke-width="2" points="423.29,-398.25 432.4,-392.84 421.91,-391.38 423.29,-398.25"/>
</g>
<!-- 5 -->
<g id="node6" class="node">
<title>5</title>
<path fill="none" stroke="#d8b456" stroke-width="2" d="M400,-468C400,-468 219,-468 219,-468 213,-468 207,-462 207,-456 207,-456 207,-444 207,-444 207,-438 213,-432 219,-432 219,-432 400,-432 400,-432 406,-432 412,-438 412,-444 412,-444 412,-456 412,-456 412,-462 406,-468 400,-468"/>
<text text-anchor="middle" x="309.5" y="-453" font-family="sans" font-size="10.00">get_ccs</text>
<text text-anchor="middle" x="309.5" y="-442" font-family="sans" font-size="10.00">pacbioRun: lib51_53_PDF2180_221209</text>
</g>
<!-- 5&#45;&gt;2 -->
<g id="edge12" class="edge">
<title>5&#45;&gt;2</title>
<path fill="none" stroke="grey" stroke-width="2" d="M320.38,-431.7C325.49,-423.56 331.7,-413.69 337.34,-404.7"/>
<polygon fill="grey" stroke="grey" stroke-width="2" points="340.39,-406.43 342.75,-396.1 334.46,-402.71 340.39,-406.43"/>
</g>
<!-- 5&#45;&gt;7 -->
<g id="edge16" class="edge">
<title>5&#45;&gt;7</title>
<path fill="none" stroke="grey" stroke-width="2" d="M354.76,-431.88C380.5,-422.14 412.91,-409.87 440.04,-399.61"/>
<polygon fill="grey" stroke="grey" stroke-width="2" points="441.28,-402.88 449.39,-396.07 438.8,-396.33 441.28,-402.88"/>
</g>
<!-- 6 -->
<g id="node7" class="node">
<title>6</title>
<path fill="none" stroke="#d8b456" stroke-width="2" d="M623,-468C623,-468 442,-468 442,-468 436,-468 430,-462 430,-456 430,-456 430,-444 430,-444 430,-438 436,-432 442,-432 442,-432 623,-432 623,-432 629,-432 635,-438 635,-444 635,-444 635,-456 635,-456 635,-462 629,-468 623,-468"/>
<text text-anchor="middle" x="532.5" y="-453" font-family="sans" font-size="10.00">get_ccs</text>
<text text-anchor="middle" x="532.5" y="-442" font-family="sans" font-size="10.00">pacbioRun: lib52_54_PDF2180_221209</text>
</g>
<!-- 6&#45;&gt;2 -->
<g id="edge13" class="edge">
<title>6&#45;&gt;2</title>
<path fill="none" stroke="grey" stroke-width="2" d="M488.71,-431.88C463.92,-422.18 432.72,-409.98 406.54,-399.74"/>
<polygon fill="grey" stroke="grey" stroke-width="2" points="407.73,-396.45 397.15,-396.07 405.18,-402.97 407.73,-396.45"/>
</g>
<!-- 6&#45;&gt;7 -->
<g id="edge17" class="edge">
<title>6&#45;&gt;7</title>
<path fill="none" stroke="grey" stroke-width="2" d="M523.11,-431.7C518.74,-423.64 513.44,-413.89 508.6,-404.98"/>
<polygon fill="grey" stroke="grey" stroke-width="2" points="511.63,-403.22 503.79,-396.1 505.48,-406.56 511.63,-403.22"/>
</g>
<!-- 7&#45;&gt;0 -->
<g id="edge3" class="edge">
<title>7&#45;&gt;0</title>
<path fill="none" stroke="grey" stroke-width="2" d="M519.82,-359.83C551.74,-335.92 602.5,-289.36 602.5,-235 602.5,-235 602.5,-235 602.5,-161 602.5,-86.01 509.98,-48.19 446.89,-31.11"/>
<polygon fill="grey" stroke="grey" stroke-width="2" points="447.6,-27.68 437.04,-28.55 445.83,-34.45 447.6,-27.68"/>
</g>
<!-- 7&#45;&gt;8 -->
<g id="edge19" class="edge">
<title>7&#45;&gt;8</title>
<path fill="none" stroke="grey" stroke-width="2" d="M490.79,-359.7C489.14,-351.98 487.15,-342.71 485.31,-334.11"/>
<polygon fill="grey" stroke="grey" stroke-width="2" points="488.68,-333.15 483.17,-324.1 481.84,-334.62 488.68,-333.15"/>
</g>
<!-- 7&#45;&gt;9 -->
<g id="edge21" class="edge">
<title>7&#45;&gt;9</title>
<path fill="none" stroke="grey" stroke-width="2" d="M511.39,-359.99C519.79,-350.31 529.08,-337.46 533.5,-324 538.49,-308.8 539.69,-302.75 533.5,-288 528.86,-276.95 520.67,-267.04 512.04,-258.86"/>
<polygon fill="grey" stroke="grey" stroke-width="2" points="514.24,-256.14 504.43,-252.14 509.61,-261.38 514.24,-256.14"/>
</g>
<!-- 7&#45;&gt;10 -->
<g id="edge24" class="edge">
<title>7&#45;&gt;10</title>
<path fill="none" stroke="grey" stroke-width="2" d="M470.41,-359.79C457.02,-349.86 440.33,-336.82 426.5,-324 404.7,-303.81 382.13,-278.58 366.36,-260.15"/>
<polygon fill="grey" stroke="grey" stroke-width="2" points="368.76,-257.57 359.63,-252.2 363.42,-262.09 368.76,-257.57"/>
</g>
<!-- 8&#45;&gt;0 -->
<g id="edge4" class="edge">
<title>8&#45;&gt;0</title>
<path fill="none" stroke="grey" stroke-width="2" d="M511.55,-287.88C524.62,-279.05 538.32,-266.97 545.5,-252 570.28,-200.31 550.77,-125.03 505.5,-72 490.29,-54.18 467.84,-42.04 446.73,-33.93"/>
<polygon fill="grey" stroke="grey" stroke-width="2" points="447.75,-30.57 437.16,-30.47 445.38,-37.16 447.75,-30.57"/>
</g>
<!-- 8&#45;&gt;9 -->
<g id="edge22" class="edge">
<title>8&#45;&gt;9</title>
<path fill="none" stroke="grey" stroke-width="2" d="M479.5,-287.7C479.5,-279.98 479.5,-270.71 479.5,-262.11"/>
<polygon fill="grey" stroke="grey" stroke-width="2" points="483,-262.1 479.5,-252.1 476,-262.1 483,-262.1"/>
</g>
<!-- 8&#45;&gt;10 -->
<g id="edge25" class="edge">
<title>8&#45;&gt;10</title>
<path fill="none" stroke="grey" stroke-width="2" d="M446.72,-287.88C428.87,-278.55 406.6,-266.92 387.5,-256.94"/>
<polygon fill="grey" stroke="grey" stroke-width="2" points="388.89,-253.72 378.41,-252.19 385.65,-259.92 388.89,-253.72"/>
</g>
<!-- 9&#45;&gt;0 -->
<g id="edge5" class="edge">
<title>9&#45;&gt;0</title>
<path fill="none" stroke="grey" stroke-width="2" d="M485.88,-215.54C496.12,-184.28 512.51,-117.77 485.5,-72 476.6,-56.92 461.71,-45.84 446.28,-37.83"/>
<polygon fill="grey" stroke="grey" stroke-width="2" points="447.7,-34.63 437.17,-33.46 444.67,-40.94 447.7,-34.63"/>
</g>
<!-- 11 -->
<g id="node12" class="node">
<title>11</title>
<path fill="none" stroke="#5682d8" stroke-width="2" d="M424.5,-180C424.5,-180 354.5,-180 354.5,-180 348.5,-180 342.5,-174 342.5,-168 342.5,-168 342.5,-156 342.5,-156 342.5,-150 348.5,-144 354.5,-144 354.5,-144 424.5,-144 424.5,-144 430.5,-144 436.5,-150 436.5,-156 436.5,-156 436.5,-168 436.5,-168 436.5,-174 430.5,-180 424.5,-180"/>
<text text-anchor="middle" x="389.5" y="-159.5" font-family="sans" font-size="10.00">collapse_scores</text>
</g>
<!-- 9&#45;&gt;11 -->
<g id="edge26" class="edge">
<title>9&#45;&gt;11</title>
<path fill="none" stroke="grey" stroke-width="2" d="M457.25,-215.7C445.92,-206.88 431.97,-196.03 419.68,-186.47"/>
<polygon fill="grey" stroke="grey" stroke-width="2" points="421.53,-183.48 411.49,-180.1 417.24,-189.01 421.53,-183.48"/>
</g>
<!-- 10&#45;&gt;0 -->
<g id="edge6" class="edge">
<title>10&#45;&gt;0</title>
<path fill="none" stroke="grey" stroke-width="2" d="M309.64,-215.94C254.49,-187.4 159.4,-127.61 201.5,-72 217.35,-51.07 282.8,-36.07 332.05,-27.48"/>
<polygon fill="grey" stroke="grey" stroke-width="2" points="332.7,-30.92 341.98,-25.8 331.53,-24.02 332.7,-30.92"/>
</g>
<!-- 10&#45;&gt;11 -->
<g id="edge27" class="edge">
<title>10&#45;&gt;11</title>
<path fill="none" stroke="grey" stroke-width="2" d="M356.38,-215.7C361.49,-207.56 367.7,-197.69 373.34,-188.7"/>
<polygon fill="grey" stroke="grey" stroke-width="2" points="376.39,-190.43 378.75,-180.1 370.46,-186.71 376.39,-190.43"/>
</g>
<!-- 11&#45;&gt;0 -->
<g id="edge7" class="edge">
<title>11&#45;&gt;0</title>
<path fill="none" stroke="grey" stroke-width="2" d="M430.68,-144C445.71,-135.54 461.07,-123.71 469.5,-108 477.07,-93.9 477.07,-86.1 469.5,-72 462.71,-59.36 451.44,-49.23 439.47,-41.35"/>
<polygon fill="grey" stroke="grey" stroke-width="2" points="441.05,-38.21 430.68,-36 437.41,-44.19 441.05,-38.21"/>
</g>
<!-- 12 -->
<g id="node13" class="node">
<title>12</title>
<path fill="none" stroke="#ced856" stroke-width="2" d="M288.5,-108C288.5,-108 222.5,-108 222.5,-108 216.5,-108 210.5,-102 210.5,-96 210.5,-96 210.5,-84 210.5,-84 210.5,-78 216.5,-72 222.5,-72 222.5,-72 288.5,-72 288.5,-72 294.5,-72 300.5,-78 300.5,-84 300.5,-84 300.5,-96 300.5,-96 300.5,-102 294.5,-108 288.5,-108"/>
<text text-anchor="middle" x="255.5" y="-87.5" font-family="sans" font-size="10.00">epistatic_shifts</text>
</g>
<!-- 11&#45;&gt;12 -->
<g id="edge28" class="edge">
<title>11&#45;&gt;12</title>
<path fill="none" stroke="grey" stroke-width="2" d="M356.72,-143.88C338.87,-134.55 316.6,-122.92 297.5,-112.94"/>
<polygon fill="grey" stroke="grey" stroke-width="2" points="298.89,-109.72 288.41,-108.19 295.65,-115.92 298.89,-109.72"/>
</g>
<!-- 13 -->
<g id="node14" class="node">
<title>13</title>
<path fill="none" stroke="#56d8c9" stroke-width="2" d="M448.5,-108C448.5,-108 330.5,-108 330.5,-108 324.5,-108 318.5,-102 318.5,-96 318.5,-96 318.5,-84 318.5,-84 318.5,-78 324.5,-72 330.5,-72 330.5,-72 448.5,-72 448.5,-72 454.5,-72 460.5,-78 460.5,-84 460.5,-84 460.5,-96 460.5,-96 460.5,-102 454.5,-108 448.5,-108"/>
<text text-anchor="middle" x="389.5" y="-87.5" font-family="sans" font-size="10.00">interactive_heatmap_plot</text>
</g>
<!-- 11&#45;&gt;13 -->
<g id="edge29" class="edge">
<title>11&#45;&gt;13</title>
<path fill="none" stroke="grey" stroke-width="2" d="M389.5,-143.7C389.5,-135.98 389.5,-126.71 389.5,-118.11"/>
<polygon fill="grey" stroke="grey" stroke-width="2" points="393,-118.1 389.5,-108.1 386,-118.1 393,-118.1"/>
</g>
<!-- 12&#45;&gt;0 -->
<g id="edge8" class="edge">
<title>12&#45;&gt;0</title>
<path fill="none" stroke="grey" stroke-width="2" d="M288.28,-71.88C306.13,-62.55 328.4,-50.92 347.5,-40.94"/>
<polygon fill="grey" stroke="grey" stroke-width="2" points="349.35,-43.92 356.59,-36.19 346.11,-37.72 349.35,-43.92"/>
</g>
<!-- 13&#45;&gt;0 -->
<g id="edge9" class="edge">
<title>13&#45;&gt;0</title>
<path fill="none" stroke="grey" stroke-width="2" d="M389.5,-71.7C389.5,-63.98 389.5,-54.71 389.5,-46.11"/>
<polygon fill="grey" stroke="grey" stroke-width="2" points="393,-46.1 389.5,-36.1 386,-46.1 393,-46.1"/>
</g>
</g>
</svg>
