<?xml version="1.0" encoding="UTF-8" standalone="no"?>
<!DOCTYPE svg PUBLIC "-//W3C//DTD SVG 1.1//EN"
 "http://www.w3.org/Graphics/SVG/1.1/DTD/svg11.dtd">
<!-- Generated by graphviz version 2.40.1 (0)
 -->
<!-- Title: snakemake_dag Pages: 1 -->
<svg width="1193pt" height="548pt"
 viewBox="0.00 0.00 1192.50 548.00" xmlns="http://www.w3.org/2000/svg" xmlns:xlink="http://www.w3.org/1999/xlink">
<g id="graph0" class="graph" transform="scale(1 1) rotate(0) translate(4 544)">
<title>snakemake_dag</title>
<polygon fill="#ffffff" stroke="transparent" points="-4,4 -4,-544 1188.5,-544 1188.5,4 -4,4"/>
<!-- 0 -->
<g id="node1" class="node">
<title>0</title>
<path fill="none" stroke="#56a2d8" stroke-width="2" d="M375,-36C375,-36 303,-36 303,-36 297,-36 291,-30 291,-24 291,-24 291,-12 291,-12 291,-6 297,0 303,0 303,0 375,0 375,0 381,0 387,-6 387,-12 387,-12 387,-24 387,-24 387,-30 381,-36 375,-36"/>
<text text-anchor="middle" x="339" y="-15.5" font-family="sans" font-size="10.00" fill="#000000">make_summary</text>
</g>
<!-- 1 -->
<g id="node2" class="node">
<title>1</title>
<path fill="none" stroke="#567bd8" stroke-width="2" d="M78,-180C78,-180 34,-180 34,-180 28,-180 22,-174 22,-168 22,-168 22,-156 22,-156 22,-150 28,-144 34,-144 34,-144 78,-144 78,-144 84,-144 90,-150 90,-156 90,-156 90,-168 90,-168 90,-174 84,-180 78,-180"/>
<text text-anchor="middle" x="56" y="-159.5" font-family="sans" font-size="10.00" fill="#000000">make_dag</text>
</g>
<!-- 1&#45;&gt;0 -->
<g id="edge1" class="edge">
<title>1&#45;&gt;0</title>
<path fill="none" stroke="#c0c0c0" stroke-width="2" d="M43.4801,-143.66C31.6349,-123.8134 17.9958,-92.2908 35,-72 65.6852,-35.3838 201.0195,-23.5783 280.397,-19.7849"/>
<polygon fill="#c0c0c0" stroke="#c0c0c0" stroke-width="2" points="280.9028,-23.2658 290.7358,-19.3209 280.5889,-16.2729 280.9028,-23.2658"/>
</g>
<!-- 2 -->
<g id="node3" class="node">
<title>2</title>
<path fill="none" stroke="#d8a456" stroke-width="2" d="M133.5,-108C133.5,-108 56.5,-108 56.5,-108 50.5,-108 44.5,-102 44.5,-96 44.5,-96 44.5,-84 44.5,-84 44.5,-78 50.5,-72 56.5,-72 56.5,-72 133.5,-72 133.5,-72 139.5,-72 145.5,-78 145.5,-84 145.5,-84 145.5,-96 145.5,-96 145.5,-102 139.5,-108 133.5,-108"/>
<text text-anchor="middle" x="95" y="-87.5" font-family="sans" font-size="10.00" fill="#000000">save_pinned_env</text>
</g>
<!-- 1&#45;&gt;2 -->
<g id="edge13" class="edge">
<title>1&#45;&gt;2</title>
<path fill="none" stroke="#c0c0c0" stroke-width="2" d="M65.8413,-143.8314C70.1957,-135.7925 75.4098,-126.1666 80.2169,-117.2918"/>
<polygon fill="#c0c0c0" stroke="#c0c0c0" stroke-width="2" points="83.3408,-118.8732 85.0261,-108.4133 77.1857,-115.5392 83.3408,-118.8732"/>
</g>
<!-- 2&#45;&gt;0 -->
<g id="edge2" class="edge">
<title>2&#45;&gt;0</title>
<path fill="none" stroke="#c0c0c0" stroke-width="2" d="M145.557,-75.0816C185.1007,-63.4129 240.1061,-47.1818 281.3573,-35.0093"/>
<polygon fill="#c0c0c0" stroke="#c0c0c0" stroke-width="2" points="282.3976,-38.3516 290.9982,-32.1645 280.4165,-31.6378 282.3976,-38.3516"/>
</g>
<!-- 3 -->
<g id="node4" class="node">
<title>3</title>
<path fill="none" stroke="#9fd856" stroke-width="2" d="M473.5,-468C473.5,-468 390.5,-468 390.5,-468 384.5,-468 378.5,-462 378.5,-456 378.5,-456 378.5,-444 378.5,-444 378.5,-438 384.5,-432 390.5,-432 390.5,-432 473.5,-432 473.5,-432 479.5,-432 485.5,-438 485.5,-444 485.5,-444 485.5,-456 485.5,-456 485.5,-462 479.5,-468 473.5,-468"/>
<text text-anchor="middle" x="432" y="-447.5" font-family="sans" font-size="10.00" fill="#000000">process_ccs_MERS</text>
</g>
<!-- 3&#45;&gt;0 -->
<g id="edge3" class="edge">
<title>3&#45;&gt;0</title>
<path fill="none" stroke="#c0c0c0" stroke-width="2" d="M378.2288,-444.0217C302.6164,-432.2938 174,-398.7178 174,-306 174,-306 174,-306 174,-162 174,-116.8741 188.2711,-103.0671 221,-72 237.9331,-55.9267 260.493,-44.0178 281.3496,-35.5355"/>
<polygon fill="#c0c0c0" stroke="#c0c0c0" stroke-width="2" points="282.7277,-38.7551 290.7861,-31.8768 280.1971,-32.2285 282.7277,-38.7551"/>
</g>
<!-- 12 -->
<g id="node13" class="node">
<title>12</title>
<path fill="none" stroke="#56d8c9" stroke-width="2" d="M478.5,-396C478.5,-396 385.5,-396 385.5,-396 379.5,-396 373.5,-390 373.5,-384 373.5,-384 373.5,-372 373.5,-372 373.5,-366 379.5,-360 385.5,-360 385.5,-360 478.5,-360 478.5,-360 484.5,-360 490.5,-366 490.5,-372 490.5,-372 490.5,-384 490.5,-384 490.5,-390 484.5,-396 478.5,-396"/>
<text text-anchor="middle" x="432" y="-375.5" font-family="sans" font-size="10.00" fill="#000000">merge_libs_to_pools</text>
</g>
<!-- 3&#45;&gt;12 -->
<g id="edge32" class="edge">
<title>3&#45;&gt;12</title>
<path fill="none" stroke="#c0c0c0" stroke-width="2" d="M432,-431.8314C432,-424.131 432,-414.9743 432,-406.4166"/>
<polygon fill="#c0c0c0" stroke="#c0c0c0" stroke-width="2" points="435.5001,-406.4132 432,-396.4133 428.5001,-406.4133 435.5001,-406.4132"/>
</g>
<!-- 4 -->
<g id="node5" class="node">
<title>4</title>
<path fill="none" stroke="#78d856" stroke-width="2" d="M158,-540C158,-540 12,-540 12,-540 6,-540 0,-534 0,-528 0,-528 0,-516 0,-516 0,-510 6,-504 12,-504 12,-504 158,-504 158,-504 164,-504 170,-510 170,-516 170,-516 170,-528 170,-528 170,-534 164,-540 158,-540"/>
<text text-anchor="middle" x="85" y="-525" font-family="sans" font-size="10.00" fill="#000000">get_ccs</text>
<text text-anchor="middle" x="85" y="-514" font-family="sans" font-size="10.00" fill="#000000">pacbioRun: lib51_MERS_230124</text>
</g>
<!-- 4&#45;&gt;3 -->
<g id="edge14" class="edge">
<title>4&#45;&gt;3</title>
<path fill="none" stroke="#c0c0c0" stroke-width="2" d="M170.3302,-504.2946C231.5379,-491.5944 312.6849,-474.757 368.2916,-463.219"/>
<polygon fill="#c0c0c0" stroke="#c0c0c0" stroke-width="2" points="369.2865,-466.5872 378.3668,-461.1285 367.8642,-459.7332 369.2865,-466.5872"/>
</g>
<!-- 10 -->
<g id="node11" class="node">
<title>10</title>
<path fill="none" stroke="#d85656" stroke-width="2" d="M761,-468C761,-468 657,-468 657,-468 651,-468 645,-462 645,-456 645,-456 645,-444 645,-444 645,-438 651,-432 657,-432 657,-432 761,-432 761,-432 767,-432 773,-438 773,-444 773,-444 773,-456 773,-456 773,-462 767,-468 761,-468"/>
<text text-anchor="middle" x="709" y="-447.5" font-family="sans" font-size="10.00" fill="#000000">process_ccs_MERS_rpk</text>
</g>
<!-- 4&#45;&gt;10 -->
<g id="edge20" class="edge">
<title>4&#45;&gt;10</title>
<path fill="none" stroke="#c0c0c0" stroke-width="2" d="M170.2386,-505.2523C173.1913,-504.8079 176.1183,-504.3885 179,-504 380.475,-476.8413 434.2573,-500.1273 635,-468 635.102,-467.9837 635.2041,-467.9673 635.3062,-467.9508"/>
<polygon fill="#c0c0c0" stroke="#c0c0c0" stroke-width="2" points="635.7156,-471.4329 644.952,-466.2426 634.4949,-464.5401 635.7156,-471.4329"/>
</g>
<!-- 11 -->
<g id="node12" class="node">
<title>11</title>
<path fill="none" stroke="#c6d856" stroke-width="2" d="M614.5,-468C614.5,-468 515.5,-468 515.5,-468 509.5,-468 503.5,-462 503.5,-456 503.5,-456 503.5,-444 503.5,-444 503.5,-438 509.5,-432 515.5,-432 515.5,-432 614.5,-432 614.5,-432 620.5,-432 626.5,-438 626.5,-444 626.5,-444 626.5,-456 626.5,-456 626.5,-462 620.5,-468 614.5,-468"/>
<text text-anchor="middle" x="565" y="-447.5" font-family="sans" font-size="10.00" fill="#000000">process_ccs_PDF2180</text>
</g>
<!-- 4&#45;&gt;11 -->
<g id="edge26" class="edge">
<title>4&#45;&gt;11</title>
<path fill="none" stroke="#c0c0c0" stroke-width="2" d="M170.0048,-505.4248C173.0378,-504.9283 176.0434,-504.4514 179,-504 315.0326,-483.2325 353.5967,-492.8905 492.942,-468.0501"/>
<polygon fill="#c0c0c0" stroke="#c0c0c0" stroke-width="2" points="493.9355,-471.4272 503.1517,-466.2011 492.688,-464.5393 493.9355,-471.4272"/>
</g>
<!-- 5 -->
<g id="node6" class="node">
<title>5</title>
<path fill="none" stroke="#78d856" stroke-width="2" d="M346,-540C346,-540 200,-540 200,-540 194,-540 188,-534 188,-528 188,-528 188,-516 188,-516 188,-510 194,-504 200,-504 200,-504 346,-504 346,-504 352,-504 358,-510 358,-516 358,-516 358,-528 358,-528 358,-534 352,-540 346,-540"/>
<text text-anchor="middle" x="273" y="-525" font-family="sans" font-size="10.00" fill="#000000">get_ccs</text>
<text text-anchor="middle" x="273" y="-514" font-family="sans" font-size="10.00" fill="#000000">pacbioRun: lib52_MERS_230124</text>
</g>
<!-- 5&#45;&gt;3 -->
<g id="edge15" class="edge">
<title>5&#45;&gt;3</title>
<path fill="none" stroke="#c0c0c0" stroke-width="2" d="M313.1224,-503.8314C334.2932,-494.2446 360.4483,-482.4008 382.8303,-472.2655"/>
<polygon fill="#c0c0c0" stroke="#c0c0c0" stroke-width="2" points="384.5003,-475.3515 392.1661,-468.038 381.6128,-468.9748 384.5003,-475.3515"/>
</g>
<!-- 5&#45;&gt;10 -->
<g id="edge21" class="edge">
<title>5&#45;&gt;10</title>
<path fill="none" stroke="#c0c0c0" stroke-width="2" d="M358.0167,-505.5004C361.0464,-504.9825 364.048,-504.4805 367,-504 485.6197,-484.6912 516.8935,-490.2332 635,-468 635.1015,-467.9809 635.2031,-467.9617 635.3047,-467.9425"/>
<polygon fill="#c0c0c0" stroke="#c0c0c0" stroke-width="2" points="635.7925,-471.4143 644.9141,-466.0248 634.4225,-464.5496 635.7925,-471.4143"/>
</g>
<!-- 5&#45;&gt;11 -->
<g id="edge27" class="edge">
<title>5&#45;&gt;11</title>
<path fill="none" stroke="#c0c0c0" stroke-width="2" d="M347.4628,-503.9751C387.9099,-494.1442 439.0492,-481.6504 493.5776,-468.0955"/>
<polygon fill="#c0c0c0" stroke="#c0c0c0" stroke-width="2" points="494.5757,-471.4539 503.4346,-465.6427 492.8853,-464.6611 494.5757,-471.4539"/>
</g>
<!-- 6 -->
<g id="node7" class="node">
<title>6</title>
<path fill="none" stroke="#78d856" stroke-width="2" d="M550,-540C550,-540 388,-540 388,-540 382,-540 376,-534 376,-528 376,-528 376,-516 376,-516 376,-510 382,-504 388,-504 388,-504 550,-504 550,-504 556,-504 562,-510 562,-516 562,-516 562,-528 562,-528 562,-534 556,-540 550,-540"/>
<text text-anchor="middle" x="469" y="-525" font-family="sans" font-size="10.00" fill="#000000">get_ccs</text>
<text text-anchor="middle" x="469" y="-514" font-family="sans" font-size="10.00" fill="#000000">pacbioRun: lib53_PDF2180_230124</text>
</g>
<!-- 6&#45;&gt;3 -->
<g id="edge16" class="edge">
<title>6&#45;&gt;3</title>
<path fill="none" stroke="#c0c0c0" stroke-width="2" d="M459.6633,-503.8314C455.5757,-495.8771 450.6896,-486.369 446.1691,-477.5723"/>
<polygon fill="#c0c0c0" stroke="#c0c0c0" stroke-width="2" points="449.1461,-475.7078 441.4624,-468.4133 442.9201,-478.9074 449.1461,-475.7078"/>
</g>
<!-- 6&#45;&gt;10 -->
<g id="edge22" class="edge">
<title>6&#45;&gt;10</title>
<path fill="none" stroke="#c0c0c0" stroke-width="2" d="M529.2523,-503.9243C562.6323,-493.9103 604.2932,-481.412 639.0999,-470.97"/>
<polygon fill="#c0c0c0" stroke="#c0c0c0" stroke-width="2" points="640.1503,-474.3091 648.7229,-468.0831 638.1389,-467.6043 640.1503,-474.3091"/>
</g>
<!-- 6&#45;&gt;11 -->
<g id="edge28" class="edge">
<title>6&#45;&gt;11</title>
<path fill="none" stroke="#c0c0c0" stroke-width="2" d="M493.2249,-503.8314C505.1628,-494.8779 519.7256,-483.9558 532.606,-474.2955"/>
<polygon fill="#c0c0c0" stroke="#c0c0c0" stroke-width="2" points="534.8829,-476.9629 540.7829,-468.1628 530.6829,-471.3629 534.8829,-476.9629"/>
</g>
<!-- 7 -->
<g id="node8" class="node">
<title>7</title>
<path fill="none" stroke="#78d856" stroke-width="2" d="M754,-540C754,-540 592,-540 592,-540 586,-540 580,-534 580,-528 580,-528 580,-516 580,-516 580,-510 586,-504 592,-504 592,-504 754,-504 754,-504 760,-504 766,-510 766,-516 766,-516 766,-528 766,-528 766,-534 760,-540 754,-540"/>
<text text-anchor="middle" x="673" y="-525" font-family="sans" font-size="10.00" fill="#000000">get_ccs</text>
<text text-anchor="middle" x="673" y="-514" font-family="sans" font-size="10.00" fill="#000000">pacbioRun: lib54_PDF2180_230124</text>
</g>
<!-- 7&#45;&gt;3 -->
<g id="edge17" class="edge">
<title>7&#45;&gt;3</title>
<path fill="none" stroke="#c0c0c0" stroke-width="2" d="M612.4966,-503.9243C576.8109,-493.263 531.7001,-479.7859 495.504,-468.9721"/>
<polygon fill="#c0c0c0" stroke="#c0c0c0" stroke-width="2" points="496.1299,-465.5064 485.5465,-465.9973 494.1261,-472.2134 496.1299,-465.5064"/>
</g>
<!-- 7&#45;&gt;10 -->
<g id="edge23" class="edge">
<title>7&#45;&gt;10</title>
<path fill="none" stroke="#c0c0c0" stroke-width="2" d="M682.0843,-503.8314C686.0615,-495.8771 690.8155,-486.369 695.2139,-477.5723"/>
<polygon fill="#c0c0c0" stroke="#c0c0c0" stroke-width="2" points="698.4517,-478.9228 699.7934,-468.4133 692.1907,-475.7923 698.4517,-478.9228"/>
</g>
<!-- 7&#45;&gt;11 -->
<g id="edge29" class="edge">
<title>7&#45;&gt;11</title>
<path fill="none" stroke="#c0c0c0" stroke-width="2" d="M645.747,-503.8314C632.0611,-494.7074 615.3085,-483.539 600.6173,-473.7449"/>
<polygon fill="#c0c0c0" stroke="#c0c0c0" stroke-width="2" points="602.5062,-470.7977 592.2442,-468.1628 598.6233,-476.6221 602.5062,-470.7977"/>
</g>
<!-- 8 -->
<g id="node9" class="node">
<title>8</title>
<path fill="none" stroke="#78d856" stroke-width="2" d="M963.5,-540C963.5,-540 796.5,-540 796.5,-540 790.5,-540 784.5,-534 784.5,-528 784.5,-528 784.5,-516 784.5,-516 784.5,-510 790.5,-504 796.5,-504 796.5,-504 963.5,-504 963.5,-504 969.5,-504 975.5,-510 975.5,-516 975.5,-516 975.5,-528 975.5,-528 975.5,-534 969.5,-540 963.5,-540"/>
<text text-anchor="middle" x="880" y="-525" font-family="sans" font-size="10.00" fill="#000000">get_ccs</text>
<text text-anchor="middle" x="880" y="-514" font-family="sans" font-size="10.00" fill="#000000">pacbioRun: lib84_MERS_rpk_240206</text>
</g>
<!-- 8&#45;&gt;3 -->
<g id="edge18" class="edge">
<title>8&#45;&gt;3</title>
<path fill="none" stroke="#c0c0c0" stroke-width="2" d="M784.4583,-505.4448C781.2691,-504.9486 778.1095,-504.4655 775,-504 653.6397,-485.832 619.0186,-493.2269 495.4799,-468.1522"/>
<polygon fill="#c0c0c0" stroke="#c0c0c0" stroke-width="2" points="496.1409,-464.7149 485.6404,-466.1253 494.7285,-471.571 496.1409,-464.7149"/>
</g>
<!-- 8&#45;&gt;10 -->
<g id="edge24" class="edge">
<title>8&#45;&gt;10</title>
<path fill="none" stroke="#c0c0c0" stroke-width="2" d="M836.8495,-503.8314C813.8776,-494.159 785.4491,-482.1891 761.2368,-471.9944"/>
<polygon fill="#c0c0c0" stroke="#c0c0c0" stroke-width="2" points="762.4148,-468.6929 751.8402,-468.038 759.6984,-475.1443 762.4148,-468.6929"/>
</g>
<!-- 8&#45;&gt;11 -->
<g id="edge30" class="edge">
<title>8&#45;&gt;11</title>
<path fill="none" stroke="#c0c0c0" stroke-width="2" d="M795.4453,-503.951C750.8952,-494.2836 695.1173,-481.9331 636.381,-468.0567"/>
<polygon fill="#c0c0c0" stroke="#c0c0c0" stroke-width="2" points="637.083,-464.6262 626.5454,-465.7252 635.4684,-471.4374 637.083,-464.6262"/>
</g>
<!-- 9 -->
<g id="node10" class="node">
<title>9</title>
<path fill="none" stroke="#78d856" stroke-width="2" d="M1172.5,-540C1172.5,-540 1005.5,-540 1005.5,-540 999.5,-540 993.5,-534 993.5,-528 993.5,-528 993.5,-516 993.5,-516 993.5,-510 999.5,-504 1005.5,-504 1005.5,-504 1172.5,-504 1172.5,-504 1178.5,-504 1184.5,-510 1184.5,-516 1184.5,-516 1184.5,-528 1184.5,-528 1184.5,-534 1178.5,-540 1172.5,-540"/>
<text text-anchor="middle" x="1089" y="-525" font-family="sans" font-size="10.00" fill="#000000">get_ccs</text>
<text text-anchor="middle" x="1089" y="-514" font-family="sans" font-size="10.00" fill="#000000">pacbioRun: lib85_MERS_rpk_240206</text>
</g>
<!-- 9&#45;&gt;3 -->
<g id="edge19" class="edge">
<title>9&#45;&gt;3</title>
<path fill="none" stroke="#c0c0c0" stroke-width="2" d="M993.2826,-505.0696C990.4935,-504.6931 987.7281,-504.3353 985,-504 771.1132,-477.7139 711.1622,-505.8375 495.6531,-468.0949"/>
<polygon fill="#c0c0c0" stroke="#c0c0c0" stroke-width="2" points="496.0635,-464.613 485.6051,-466.3075 494.8375,-471.5048 496.0635,-464.613"/>
</g>
<!-- 9&#45;&gt;10 -->
<g id="edge25" class="edge">
<title>9&#45;&gt;10</title>
<path fill="none" stroke="#c0c0c0" stroke-width="2" d="M993.6004,-503.9243C928.4466,-491.5794 843.3672,-475.459 783.2574,-464.0698"/>
<polygon fill="#c0c0c0" stroke="#c0c0c0" stroke-width="2" points="783.5613,-460.5652 773.0845,-462.1423 782.2581,-467.4428 783.5613,-460.5652"/>
</g>
<!-- 9&#45;&gt;11 -->
<g id="edge31" class="edge">
<title>9&#45;&gt;11</title>
<path fill="none" stroke="#c0c0c0" stroke-width="2" d="M993.2686,-505.1768C990.4836,-504.769 987.7228,-504.3756 985,-504 833.6966,-483.1279 791.2668,-494.732 636.6991,-467.9737"/>
<polygon fill="#c0c0c0" stroke="#c0c0c0" stroke-width="2" points="637.2958,-464.525 626.841,-466.2418 636.0845,-471.4194 637.2958,-464.525"/>
</g>
<!-- 10&#45;&gt;0 -->
<g id="edge4" class="edge">
<title>10&#45;&gt;0</title>
<path fill="none" stroke="#c0c0c0" stroke-width="2" d="M727.3802,-431.8287C751.2785,-406.1728 790,-356.7701 790,-306 790,-306 790,-306 790,-162 790,-115.5795 775.6572,-97.6999 737,-72 682.5136,-35.7765 494.0371,-23.6427 397.2941,-19.7458"/>
<polygon fill="#c0c0c0" stroke="#c0c0c0" stroke-width="2" points="397.2229,-16.2406 387.0952,-19.3519 396.9527,-23.2353 397.2229,-16.2406"/>
</g>
<!-- 11&#45;&gt;0 -->
<g id="edge5" class="edge">
<title>11&#45;&gt;0</title>
<path fill="none" stroke="#c0c0c0" stroke-width="2" d="M624.4249,-431.9989C679.1812,-411.296 752,-371.4584 752,-306 752,-306 752,-306 752,-162 752,-117.0781 742.5036,-98.1814 706,-72 657.6881,-37.3493 488.1618,-24.5916 397.3978,-20.1714"/>
<polygon fill="#c0c0c0" stroke="#c0c0c0" stroke-width="2" points="397.4191,-16.6686 387.2662,-19.6967 397.0914,-23.661 397.4191,-16.6686"/>
</g>
<!-- 11&#45;&gt;12 -->
<g id="edge33" class="edge">
<title>11&#45;&gt;12</title>
<path fill="none" stroke="#c0c0c0" stroke-width="2" d="M531.4385,-431.8314C514.1119,-422.4516 492.7942,-410.9112 474.3464,-400.9244"/>
<polygon fill="#c0c0c0" stroke="#c0c0c0" stroke-width="2" points="476.0111,-397.8457 465.5508,-396.1628 472.6786,-404.0015 476.0111,-397.8457"/>
</g>
<!-- 12&#45;&gt;0 -->
<g id="edge6" class="edge">
<title>12&#45;&gt;0</title>
<path fill="none" stroke="#c0c0c0" stroke-width="2" d="M490.7732,-373.7439C573.4193,-364.1998 714,-333.3619 714,-234 714,-234 714,-234 714,-162 714,-118.7517 710.9101,-98.8426 677,-72 634.689,-38.5074 482.2942,-25.3583 397.3073,-20.5447"/>
<polygon fill="#c0c0c0" stroke="#c0c0c0" stroke-width="2" points="397.465,-17.0482 387.2892,-19.9982 397.0836,-24.0378 397.465,-17.0482"/>
</g>
<!-- 13 -->
<g id="node14" class="node">
<title>13</title>
<path fill="none" stroke="#d8c356" stroke-width="2" d="M384.5,-324C384.5,-324 319.5,-324 319.5,-324 313.5,-324 307.5,-318 307.5,-312 307.5,-312 307.5,-300 307.5,-300 307.5,-294 313.5,-288 319.5,-288 319.5,-288 384.5,-288 384.5,-288 390.5,-288 396.5,-294 396.5,-300 396.5,-300 396.5,-312 396.5,-312 396.5,-318 390.5,-324 384.5,-324"/>
<text text-anchor="middle" x="352" y="-303.5" font-family="sans" font-size="10.00" fill="#000000">count_variants</text>
</g>
<!-- 12&#45;&gt;13 -->
<g id="edge34" class="edge">
<title>12&#45;&gt;13</title>
<path fill="none" stroke="#c0c0c0" stroke-width="2" d="M411.8126,-359.8314C402.1486,-351.1337 390.4204,-340.5783 379.9184,-331.1265"/>
<polygon fill="#c0c0c0" stroke="#c0c0c0" stroke-width="2" points="381.9553,-328.251 372.1809,-324.1628 377.2725,-333.454 381.9553,-328.251"/>
</g>
<!-- 14 -->
<g id="node15" class="node">
<title>14</title>
<path fill="none" stroke="#56d87b" stroke-width="2" d="M303.5,-252C303.5,-252 214.5,-252 214.5,-252 208.5,-252 202.5,-246 202.5,-240 202.5,-240 202.5,-228 202.5,-228 202.5,-222 208.5,-216 214.5,-216 214.5,-216 303.5,-216 303.5,-216 309.5,-216 315.5,-222 315.5,-228 315.5,-228 315.5,-240 315.5,-240 315.5,-246 309.5,-252 303.5,-252"/>
<text text-anchor="middle" x="259" y="-231.5" font-family="sans" font-size="10.00" fill="#000000">fit_titrations_hDPP4</text>
</g>
<!-- 12&#45;&gt;14 -->
<g id="edge35" class="edge">
<title>12&#45;&gt;14</title>
<path fill="none" stroke="#c0c0c0" stroke-width="2" d="M373.291,-365.1149C347.5433,-356.9597 318.5678,-344.0432 298,-324 280.8392,-307.2768 270.7608,-281.747 265.1636,-262.144"/>
<polygon fill="#c0c0c0" stroke="#c0c0c0" stroke-width="2" points="268.4871,-261.0195 262.5649,-252.2345 261.7161,-262.7952 268.4871,-261.0195"/>
</g>
<!-- 15 -->
<g id="node16" class="node">
<title>15</title>
<path fill="none" stroke="#d87d56" stroke-width="2" d="M479.5,-252C479.5,-252 384.5,-252 384.5,-252 378.5,-252 372.5,-246 372.5,-240 372.5,-240 372.5,-228 372.5,-228 372.5,-222 378.5,-216 384.5,-216 384.5,-216 479.5,-216 479.5,-216 485.5,-216 491.5,-222 491.5,-228 491.5,-228 491.5,-240 491.5,-240 491.5,-246 485.5,-252 479.5,-252"/>
<text text-anchor="middle" x="432" y="-231.5" font-family="sans" font-size="10.00" fill="#000000">calculate_expression</text>
</g>
<!-- 12&#45;&gt;15 -->
<g id="edge37" class="edge">
<title>12&#45;&gt;15</title>
<path fill="none" stroke="#c0c0c0" stroke-width="2" d="M432,-359.7623C432,-335.201 432,-291.2474 432,-262.3541"/>
<polygon fill="#c0c0c0" stroke="#c0c0c0" stroke-width="2" points="435.5001,-262.0896 432,-252.0896 428.5001,-262.0897 435.5001,-262.0896"/>
</g>
<!-- 13&#45;&gt;0 -->
<g id="edge7" class="edge">
<title>13&#45;&gt;0</title>
<path fill="none" stroke="#c0c0c0" stroke-width="2" d="M346.4522,-287.7325C333.8263,-245.804 303.6751,-143.546 299,-108 296.9136,-92.1366 293.9856,-87.1939 299,-72 302.2908,-62.0288 308.2116,-52.3944 314.5064,-44.0924"/>
<polygon fill="#c0c0c0" stroke="#c0c0c0" stroke-width="2" points="317.2672,-46.2448 320.8424,-36.2714 311.828,-41.8384 317.2672,-46.2448"/>
</g>
<!-- 13&#45;&gt;14 -->
<g id="edge36" class="edge">
<title>13&#45;&gt;14</title>
<path fill="none" stroke="#c0c0c0" stroke-width="2" d="M328.5322,-287.8314C316.9673,-278.8779 302.8596,-267.9558 290.3817,-258.2955"/>
<polygon fill="#c0c0c0" stroke="#c0c0c0" stroke-width="2" points="292.5102,-255.5171 282.4603,-252.1628 288.225,-261.0521 292.5102,-255.5171"/>
</g>
<!-- 13&#45;&gt;15 -->
<g id="edge38" class="edge">
<title>13&#45;&gt;15</title>
<path fill="none" stroke="#c0c0c0" stroke-width="2" d="M372.1874,-287.8314C381.8514,-279.1337 393.5796,-268.5783 404.0816,-259.1265"/>
<polygon fill="#c0c0c0" stroke="#c0c0c0" stroke-width="2" points="406.7275,-261.454 411.8191,-252.1628 402.0447,-256.251 406.7275,-261.454"/>
</g>
<!-- 14&#45;&gt;0 -->
<g id="edge8" class="edge">
<title>14&#45;&gt;0</title>
<path fill="none" stroke="#c0c0c0" stroke-width="2" d="M249.3887,-215.9591C233.9923,-184.3464 208.2142,-117.9401 236,-72 246.2773,-55.0078 263.8614,-43.1015 281.6207,-34.8813"/>
<polygon fill="#c0c0c0" stroke="#c0c0c0" stroke-width="2" points="283.0726,-38.067 290.8858,-30.9112 280.3156,-31.6328 283.0726,-38.067"/>
</g>
<!-- 16 -->
<g id="node17" class="node">
<title>16</title>
<path fill="none" stroke="#56c9d8" stroke-width="2" d="M425,-180C425,-180 355,-180 355,-180 349,-180 343,-174 343,-168 343,-168 343,-156 343,-156 343,-150 349,-144 355,-144 355,-144 425,-144 425,-144 431,-144 437,-150 437,-156 437,-156 437,-168 437,-168 437,-174 431,-180 425,-180"/>
<text text-anchor="middle" x="390" y="-159.5" font-family="sans" font-size="10.00" fill="#000000">collapse_scores</text>
</g>
<!-- 14&#45;&gt;16 -->
<g id="edge39" class="edge">
<title>14&#45;&gt;16</title>
<path fill="none" stroke="#c0c0c0" stroke-width="2" d="M292.0568,-215.8314C308.9677,-206.5368 329.7385,-195.1208 347.7941,-185.1971"/>
<polygon fill="#c0c0c0" stroke="#c0c0c0" stroke-width="2" points="349.876,-188.0468 356.9537,-180.1628 346.5043,-181.9122 349.876,-188.0468"/>
</g>
<!-- 15&#45;&gt;0 -->
<g id="edge9" class="edge">
<title>15&#45;&gt;0</title>
<path fill="none" stroke="#c0c0c0" stroke-width="2" d="M491.7987,-217.8438C575.7308,-192.3217 712.2627,-138.6574 656,-72 639.5038,-52.456 484.2026,-33.2233 397.2617,-23.8699"/>
<polygon fill="#c0c0c0" stroke="#c0c0c0" stroke-width="2" points="397.5834,-20.3845 387.269,-22.806 396.8422,-27.3451 397.5834,-20.3845"/>
</g>
<!-- 15&#45;&gt;16 -->
<g id="edge40" class="edge">
<title>15&#45;&gt;16</title>
<path fill="none" stroke="#c0c0c0" stroke-width="2" d="M421.4016,-215.8314C416.7123,-207.7925 411.0972,-198.1666 405.9202,-189.2918"/>
<polygon fill="#c0c0c0" stroke="#c0c0c0" stroke-width="2" points="408.8031,-187.2875 400.7411,-180.4133 402.7566,-190.8146 408.8031,-187.2875"/>
</g>
<!-- 16&#45;&gt;0 -->
<g id="edge10" class="edge">
<title>16&#45;&gt;0</title>
<path fill="none" stroke="#c0c0c0" stroke-width="2" d="M345.5431,-143.8691C330.5274,-135.346 315.4424,-123.5645 307,-108 296.0603,-87.8314 306.293,-63.1743 318.0077,-44.7719"/>
<polygon fill="#c0c0c0" stroke="#c0c0c0" stroke-width="2" points="321.0507,-46.5217 323.7913,-36.2875 315.2667,-42.5789 321.0507,-46.5217"/>
</g>
<!-- 17 -->
<g id="node18" class="node">
<title>17</title>
<path fill="none" stroke="#59d856" stroke-width="2" d="M452,-108C452,-108 328,-108 328,-108 322,-108 316,-102 316,-96 316,-96 316,-84 316,-84 316,-78 322,-72 328,-72 328,-72 452,-72 452,-72 458,-72 464,-78 464,-84 464,-84 464,-96 464,-96 464,-102 458,-108 452,-108"/>
<text text-anchor="middle" x="390" y="-87.5" font-family="sans" font-size="10.00" fill="#000000">interactive_heatmap_delta</text>
</g>
<!-- 16&#45;&gt;17 -->
<g id="edge41" class="edge">
<title>16&#45;&gt;17</title>
<path fill="none" stroke="#c0c0c0" stroke-width="2" d="M390,-143.8314C390,-136.131 390,-126.9743 390,-118.4166"/>
<polygon fill="#c0c0c0" stroke="#c0c0c0" stroke-width="2" points="393.5001,-118.4132 390,-108.4133 386.5001,-118.4133 393.5001,-118.4132"/>
</g>
<!-- 18 -->
<g id="node19" class="node">
<title>18</title>
<path fill="none" stroke="#56d8a2" stroke-width="2" d="M635.5,-108C635.5,-108 494.5,-108 494.5,-108 488.5,-108 482.5,-102 482.5,-96 482.5,-96 482.5,-84 482.5,-84 482.5,-78 488.5,-72 494.5,-72 494.5,-72 635.5,-72 635.5,-72 641.5,-72 647.5,-78 647.5,-84 647.5,-84 647.5,-96 647.5,-96 647.5,-102 641.5,-108 635.5,-108"/>
<text text-anchor="middle" x="565" y="-87.5" font-family="sans" font-size="10.00" fill="#000000">interactive_heatmap_absolute</text>
</g>
<!-- 16&#45;&gt;18 -->
<g id="edge42" class="edge">
<title>16&#45;&gt;18</title>
<path fill="none" stroke="#c0c0c0" stroke-width="2" d="M434.1599,-143.8314C457.7732,-134.1162 487.0202,-122.0831 511.87,-111.8592"/>
<polygon fill="#c0c0c0" stroke="#c0c0c0" stroke-width="2" points="513.2415,-115.0797 521.1577,-108.038 510.5781,-108.6061 513.2415,-115.0797"/>
</g>
<!-- 17&#45;&gt;0 -->
<g id="edge11" class="edge">
<title>17&#45;&gt;0</title>
<path fill="none" stroke="#c0c0c0" stroke-width="2" d="M377.1305,-71.8314C371.3165,-63.6232 364.3304,-53.7606 357.9354,-44.7323"/>
<polygon fill="#c0c0c0" stroke="#c0c0c0" stroke-width="2" points="360.679,-42.5505 352.0427,-36.4133 354.9669,-46.5966 360.679,-42.5505"/>
</g>
<!-- 18&#45;&gt;0 -->
<g id="edge12" class="edge">
<title>18&#45;&gt;0</title>
<path fill="none" stroke="#c0c0c0" stroke-width="2" d="M508.2624,-71.9243C474.3457,-61.119 431.3502,-47.4213 397.1806,-36.5354"/>
<polygon fill="#c0c0c0" stroke="#c0c0c0" stroke-width="2" points="397.9276,-33.1001 387.337,-33.3994 395.8027,-39.7698 397.9276,-33.1001"/>
</g>
</g>
</svg>
